/* XPM */
static char *_016a506fb7d4fe0b54c988fe23796faQtLwC0WVKKwVgBwb[] = {
/* columns rows colors chars-per-pixel */
"50 50 83 1 ",
"  c #020303",
". c #02060B",
"X c #03090E",
"o c #090A0E",
"O c #020710",
"+ c #030A12",
"@ c #090D15",
"# c #070E19",
"$ c #090E1A",
"% c #0B1117",
"& c #07101B",
"* c #0C111D",
"= c #11131D",
"- c #0C1321",
"; c #0D1323",
": c #0F1521",
"> c #0D1423",
", c #0F1626",
"< c #101623",
"1 c #111624",
"2 c #131926",
"3 c #121827",
"4 c #111728",
"5 c #121928",
"6 c #12192B",
"7 c #131A2A",
"8 c #141A2B",
"9 c #141B2D",
"0 c #161C2D",
"q c #191D2D",
"w c #181D2F",
"e c #151C30",
"r c #171D33",
"t c #181E34",
"y c #191F34",
"u c #181F35",
"i c #1C202F",
"p c #1B2135",
"a c #1A2037",
"s c #1C2237",
"d c #1B2239",
"f c #1C223A",
"g c #1D233B",
"h c #1E243B",
"j c #1D243C",
"k c #21253D",
"l c #22273C",
"z c #242A3C",
"x c #1F2540",
"c c #212741",
"v c #242A44",
"b c #242A46",
"n c #292C45",
"m c #252B48",
"M c #262C4A",
"N c #292E4C",
"B c #282E4E",
"V c #2C314E",
"C c #2A2F50",
"Z c #2A3051",
"A c #2D3253",
"S c #2D3255",
"D c #2F3456",
"F c #2F3559",
"G c #323654",
"H c #30365A",
"J c #31375B",
"K c #31375C",
"L c #33395F",
"P c #34395D",
"I c #383D5E",
"U c #353B63",
"Y c #373D61",
"T c #373C65",
"R c #393E65",
"E c #393F69",
"W c #3B4065",
"Q c #3B406B",
"! c #3B416C",
"~ c #3D426C",
"^ c #3C426E",
"/ c #3E4370",
"( c #414774",
/* pixels */
".XX....X..@@+.OOOXX..++.XX+@@+X.XXXXXXXXX.XXX.....",
".X.....X..XX..OOO+X...X..X+@@+XXXXXXXXXX++XXXX.   ",
"....XX..X.....OO.++......X++@+XXXXXXXXXX+@XXXX.   ",
"........XXX..OO...+..O+O..+++++++++XXXXX++++@@X.  ",
".....X..X+XX++....+O.+@++O+++++++++XXXXX++@++XX.. ",
"....XX...X.X++..O+@+.+@$$#*:,*@++++++XXX++@+XXX.. ",
"....XX.....X++OO$100544-#@@#$*59#+@#+++X+@@X..... ",
"....XXX.....X+$-15999yxvxr*++++$99*@++XXX++XXXX...",
"   ..XX....X+##+.+++++#5dNNy$..++5s<@+XXXXXXXXXXXX",
"    ......+++.++#-,,*@+++*aZN4O+++:f3+XX+X..XXXXX+",
".....XXX..XX+-ymHTQ~QTFj*@@:NKr++++:j,XX++...X.XX@",
"X....XXXX.+<hDUUKSZSRT~(/Z5+$NT9++++5j%XX@+....XX@",
".....XXXX@wNDNd,+.+$k1*yS!~j#5YL1@*X+af+X+#+XXXXX+",
"    ....@yNv5$++1vZSDIANMcv~F-5TS<*X+*v:X+*#++XXXX",
"    ...+0kw*+@0CKNrcrfNZmrcmUH*yQf@a*@fa++*:+++XXX",
".. ..X+1y<@@:vRm-$4ZUUYIDY~mjFS*A~5z<@3v$+*5@+++XX",
".XX..X*5*.X3SFm$*mKj*:*5:yfvScRGz(H*+*:v:+*a%XXXXX",
".....+<$..:AN:#-Sj#0**-fvfykvfN~kD~f+@0v1+*h-XXXXX",
" ..  @*..@Mv*+$Zr+35,vsskkVkvNaPsyQN5@*c5X*v:XXXXX",
" .. .$+.XsM*++Ma@+:yvkVVw<1kncNNvsHDy@%c5+4M:XXXXX",
" ....@X.*M1X+9x#+*vaNG%     @kGGv4NVv@:v5+yM*XXXXX",
"  .  X.X9f+@avs@@rrmv=       @Vkv1kkM@$v1@vM$XXXXX",
" ..  ..+k:X*Aa$@3Vmfk         =sc*aaA$5N1:Fc@XXXXX",
".X.....$c++fv1$@amjk*         .kA-dkD#5k%kL9XXXXXX",
".X.....*y.*N:#51HvrN@          sD1vLV-f9*HZ@XXXX..",
".......<1.jj%+@,RvhN=         owN5nWs1v$mY9..XX+OO",
".......1$$M-X+mrThhmk         =V0@h~4y4s~v+...X+++",
"  .....<$5M$@+NaT11Mko        5h*+vV5kyES$....X+++",
"  ....X*$yc%8@DvR$5cyv       3v1$yYy5fEK*...+..++#",
"  ...XX@<fa++@KvL9:9vkn3o o1w5*:5Ih,M~S-..@.*..++#",
"  ....X@5fy+$:FacZ+$vvNAai3:5#5rGkyYQf$X..*$*...+#",
"  .....X*fy+++ZZ9L,@5ykfHAs9jDcSvZLv:++@.@*1+...++",
"    ....+fy@++v~,MN#+$3k33sa5vNfj4&#+O...y9*....++",
".........9f%@+*EvrHc+.+:*:31*$+3@+#+++..yf1X...O++",
".........:h*@@+SRr9Fc#*:*%@..++$++++++$fv1...+@@++",
".... ...X%h<@@+r~Af5NN5vhz8%+@*++++,,yvN<...X@**@+",
"..   ..XX@wy@@+#S~Nv1yNajDAky95405yvMZm:....X+@@++",
"..  ..XX++*y*@++4EDkMk-aayafjZVZAMxyxx*...XX..X..+",
"..  ..XX+++15@+.+dEZyMHa-*w:+$*-::rxy$........X..X",
".. ..XXXXX.@3*+..#cTZ5yMNf9,-*-5dcj,+..+X....X++.X",
"....XXXXX...$,@..+#jLHr$4fmNNmvcd-++.+XXX.XXX+++.+",
".XXXXXXX.....@*+.++#5ZKNr:#&&##++++#@+.XXXXXX+++++",
"XXX++XX.......+$+++++-yNZNxr5:--:,*$+...XX..++++++",
"XXXX+X........X++#+++++&5ajjjar5,*@X...X++XX++++++",
"..XXXXXXX....XXXX++++X++++@##%#++++XX.+@%%+X+++++O",
"...XXXXXXXXXXXXXX+++...+++++++++++XX..+@%@+X+++++O",
"+XXX....XXXXXXXXX+++.O+++++++@++++X....++XX++++++.",
"@@+X.....+XXX+XXX++OOO+++++++++++++XX..XX.XX++++++",
"@+X.....X+++XXXXX++++++++++O++++++XXXXXXX.XX++++++",
"X.....XX+++XXXXXX+..X+X..+X.+++++@......X.XX++++++"
};
