/* XPM */
static char *cc02709bf7f34e08a38ae4674ed9539eMvcfTKdkcsP1LMxZ[] = {
/* columns rows colors chars-per-pixel */
"50 50 10 1 ",
"  c None",
". c #8A9AB5",
"X c #8B9BB5",
"o c #A3B0C4",
"O c #BBC5D3",
"+ c #BCC6D3",
"@ c #CCD4DD",
"# c #D4DBE2",
"$ c #EBEFF1",
"% c #ECF0F1",
/* pixels */
"                                                  ",
"                                                  ",
"                                                  ",
"                                                  ",
"                                                  ",
"                                                  ",
"                                                  ",
"                                                  ",
"                                                  ",
"                                                  ",
"                                                  ",
"                                                  ",
"                                                  ",
"                  $$$$$$$$$$$$$$$                 ",
"                 $%%%%%%%%%%%%%%%$                ",
"            $$$$$@+++++++++++++++@$$$$$           ",
"           $%%%%%+XXXXXXXXXXXXXXX+%%%%%$          ",
"        $$$@+++++++++++++++++++++++++++@$$$       ",
"       $%%%+XXXXX+%%%%%%%%%%%%%%%+XXXXX+%%%$      ",
"      $@+++++++++#%%%%%%%%%%%%%%%#+oXXXo+++@$     ",
"     $%+XXX+%%%%%%%%%%%%%%%%%%%%%%%+XXXXXXX+%$    ",
"    $@+++++#%%%%%%%%%%%%%%%%%%%%%%%+XXXXXXXo+@$   ",
"   $%+X+%%%%%%%%%%%%%%%%%%%%%%%%%%%+XXXXXXXXX+%$  ",
"   $%#+#%%%%%%%%%%%%%%%%%%%%%%%%%#+oXXXXXXXXX+%$  ",
"   $%%%%%%%%%%%%%%%%%%%%%%%%%%%%%+XXXXXXXXXXX+%$  ",
"   $%%%%%%%%%%%%%%%%%%%%%%%%%%%%%+XXXXXXXXXXX+%$  ",
"   $%%%%%%%%%%%%%%%%%%%%%%%%%%%%%+XXXXXXXXXXX+%$  ",
"   O+#%%%%%%%%%%%%%%%%%%%%%%%%%#+oXXXXXXXXXo+++O  ",
"   XX+%%%%%%%%%%%%%%%%%%%%%%%%%+XXXXXXXXXXX+%+XX  ",
"   XXo+#%%%%%%%%%%%%%%%%%%%%%#+oXXXXXXXo+++++oXX  ",
"   XXXX+%%%%%%%%%%%%%%%%%%%%%+XXXXXXXXX+%%%+XXXX  ",
"    XXXo+++#%%%%%%%%%%%%%#+++oXXXo+++++++++oXXX   ",
"     XXXXXX+%%%%%%%%%%%%%+XXXXXXX+%%%%%+XXXXXX    ",
"      XXXXXo+++++#%%%%%%%#+++++++++++++oXXXXX     ",
"       XXXXXXXXXX+%%%%%%%%%%%%%%%+XXXXXXXXXX      ",
"        XXXXXXXXXo+++++++++++++++oXXXXXXXXX       ",
"         XXXXXXXXXXXXXXXXXXXXXXXXXXXXXXXXX        ",
"         XXXXXXXXXXXXXXXXXXXXXXXXXXXXXXXX         ",
"         XXXXXXXXXXXXXXXXXXXXXXXXXXXXXXX          ",
"          XXXXXXXXXXXXXXXXXXXXXXXXXXXXX           ",
"               XXXXXXXXXXXXXXXXXXXXX              ",
"                XXXXXXXXXXXXXXXXXXX               ",
"                     XXXXXXXXX                    ",
"                      XXXXXXX                     ",
"                                                  ",
"                                                  ",
"                                                  ",
"                                                  ",
"                                                  ",
"                                                  "
};
