/* XPM */
static char *f8c2b20154d74eaec9dfd14493c0052c3XeXhWEnfHsNuqIt[] = {
/* columns rows colors chars-per-pixel */
"50 50 171 2 ",
"   c #010307",
".  c #02060B",
"X  c #03090E",
"o  c #0A0D0E",
"O  c #1D160E",
"+  c #020710",
"@  c #030A11",
"#  c #090E14",
"$  c #0C1114",
"%  c #0C1219",
"&  c #121414",
"*  c #171916",
"=  c #1C1B16",
"-  c #121619",
";  c #14191C",
":  c #1C1D1B",
">  c #1F211D",
",  c #252117",
"<  c #2C2317",
"1  c #25241C",
"2  c #29251B",
"3  c #2E291C",
"4  c #312616",
"5  c #312A1B",
"6  c #3A2F1D",
"7  c #3E341E",
"8  c #171B21",
"9  c #272A27",
"0  c #2A2C24",
"q  c #282B28",
"w  c #313027",
"e  c #3C3521",
"r  c #3F3B26",
"t  c #38372D",
"y  c #3B392D",
"u  c #3E3E32",
"i  c #43331B",
"p  c #493C1D",
"a  c #573C1A",
"s  c #4C3A21",
"d  c #443D29",
"f  c #523E23",
"g  c #4D4217",
"h  c #4C4225",
"j  c #4E4328",
"k  c #594521",
"l  c #574926",
"z  c #584926",
"x  c #56452B",
"c  c #5F4E2E",
"v  c #5E502B",
"b  c #5D553B",
"n  c #6B4D24",
"m  c #61532D",
"M  c #775827",
"N  c #77582A",
"B  c #7C5E2E",
"V  c #645635",
"C  c #655C3B",
"Z  c #7F6535",
"A  c #615941",
"S  c #695D44",
"D  c #67644D",
"F  c #886025",
"G  c #946C2E",
"H  c #996F2D",
"J  c #896732",
"K  c #856A39",
"L  c #9B7331",
"P  c #937836",
"I  c #9C7935",
"U  c #967B3C",
"Y  c #9B7D3C",
"T  c #A97E34",
"R  c #A67E39",
"E  c #8D7842",
"W  c #977F4D",
"Q  c #9E813F",
"!  c #A7813F",
"~  c #AD833C",
"^  c #B18638",
"/  c #B78E3D",
"(  c #B19336",
")  c #BB903E",
"_  c #C69633",
"`  c #C79836",
"'  c #C89936",
"]  c #C2963D",
"[  c #CA9C3B",
"{  c #CCA03E",
"}  c #9F8344",
"|  c #98824C",
" . c #988656",
".. c #A08442",
"X. c #AE8946",
"o. c #A2874B",
"O. c #A2884A",
"+. c #B89041",
"@. c #B69049",
"#. c #BB9F4C",
"$. c #A58D53",
"%. c #A48E58",
"&. c #A7905B",
"*. c #B29A5E",
"=. c #BAA15B",
"-. c #9F957A",
";. c #AF9862",
":. c #B39C62",
">. c #B6A06C",
",. c #B3A476",
"<. c #B4A57B",
"1. c #BCAB7B",
"2. c #C49640",
"3. c #C39A41",
"4. c #CB9E42",
"5. c #C39F4F",
"6. c #C99F48",
"7. c #C69C50",
"8. c #CDA243",
"9. c #CDA44A",
"0. c #CEA94F",
"q. c #D0A64B",
"w. c #D1A94C",
"e. c #C4A659",
"r. c #CEA659",
"t. c #CBA95D",
"y. c #D2AB52",
"u. c #D5AE5A",
"i. c #D6B056",
"p. c #D6B15C",
"a. c #D9B65B",
"s. c #DAB85F",
"d. c #C7AB66",
"f. c #CCB569",
"g. c #D7B361",
"h. c #D9B564",
"j. c #DDBB63",
"k. c #D6B669",
"l. c #D9B668",
"z. c #DBB96C",
"x. c #DEBE73",
"c. c #D2BA7C",
"v. c #DABD7C",
"b. c #E0BB62",
"n. c #DFC077",
"m. c #E2C36E",
"M. c #E1C277",
"N. c #E5C875",
"B. c #E1C47C",
"V. c #ACA482",
"C. c #B7AC86",
"Z. c #B2AC8F",
"A. c #B8B28B",
"S. c #C7B788",
"D. c #DAC080",
"F. c #D7C58E",
"G. c #D8C589",
"H. c #DFD096",
"J. c #E2C681",
"K. c #E5CA84",
"L. c #E7CD8A",
"P. c #E8CF8D",
"I. c #EAD18F",
"U. c #E5D094",
"Y. c #EAD394",
"T. c #ECD696",
"R. c #ECD798",
"E. c #EED99C",
"W. c #EDDBA2",
"Q. c #F0DFA5",
"!. c #F1E3AA",
/* pixels */
"X # # @ . . X X . . . . . . . .     . .         . . .           . .       . X .     . X .     . . . ",
". @ # X . . X X . . . . . .         . .         . X X .         . X       . . .     . X . . . . X X ",
". X @ X . X X X X . . .             . . .   .   . X X . . . . . . X .       . .     . . .   . . . X ",
". . X X X X X @ X . . .             . . . . .   . . .     .     . . .       . .   . X .       . . . ",
". . . . X X @ @ X . . . .     . .   . . . . . . . . .     .       . . . . . . . . . X X X . . X . . ",
". . . . X X X X X X X . . . . . . . . . . . . . . . . . . . .   . . X . . . X . . X X X X X . X X . ",
"X . . . X X . X X X X X . . . . . . . . X . . . . . . . . . . . . . . . . X X X . . X . . . . . . . ",
"X . . . X X . . X X X X X X . . . . . . X . . . . . .   . . . . . . . . . X X X . . . . . . . . X X ",
"@ X . X X X . . . X X @ @ X X . . . . . . . . . X X . . . . . . . . . . . X X . . . . . . X X X . . ",
"@ @ @ X X . . . . . X @ @ @ @ X . . . . . . . o g p X . . . X X . . X X X X . . . . . . X @ X . . . ",
"@ @ X X X . . . . . . X @ # @ @ X X . . . . . & ( I $ X X X X X X X @ @ @ X X X . . . . . X X . X # ",
"X @ X X X . . . . . X @ # # # # # X X X . . . > f.=.= X X X @ @ # # # @ @ X X X . . . X X X . . X # ",
"X X X X X . . . . X @ @ # # # # # @ X X X X # D H.G.l X . X @ # % % # @ @ + + . . . . @ @ @ . . . @ ",
"X X X X X X . . X @ + @ # # # # @ + + + + + % A.!.T.U X . . + @ # # # + + + + + . . . @ @ @ + . . . ",
"X X X X X X X X X + + + + + + + + + + + + + : S.Q.R.*.* + + + + + + + + + + + + + + . . . + + + + + ",
"X X X X X X X X . . . . + + + + + + + + + + A F.E.T.c.z + + + + X X + + + + + + + + + . . . + + + + ",
"X X X X X X X X + + X X . + + + + + + + + @ %.Y.T.I.B.U @ + + + + . . . . . . + . . + @ + . . . . . ",
"+ + + + + + + + + + + + + + + + + + + + + * >.I.P.K.J.;.* + + + + . . . . + + + + + # # + . . @ X X ",
"X + + + + + + + + + + + + + + + + + + + + v c.L.K.J.B.d.k + + + + . . . + + + + + + # % # @ @ @ X X ",
"X + + + + + + @ + + + + + + + . . + + + .  .J.K.B.M.x.k.E + + + + + . . + + + + + + + # @ + . . . . ",
"X + + + + + + % ; ; ; ; ; & & & & & - - 0 <.J.M.x.z.z.l.&.1 - - - & $ $ $ & & - ; ; $ . . . . . . . ",
"+ + + + + + + # V -.Z.V.C.C.<.<.,.,.,.,.1.D.M.x.z.l.g.u.t.*.&.$.o.} Y Y Y Q ..O.W s # . + @ + . . @ ",
"X + + + + + + + : S S.W.Q.W.E.T.Y.P.L.K.B.n.z.z.h.p.u.y.y.y.9.8.[ [ ` ' [ [ 4.X.x * + + # # @ . X @ ",
". + + + + + + + + $ y :.U.T.Y.P.L.K.B.M.x.z.l.g.u.y.y.q.8.[ [ ` _ _ ` ' [ ] G 5 $ + + + # # + . . . ",
". + + + + + + + + . + 2 | c.L.K.B.M.x.z.z.h.p.u.y.q.9.4.[ ` _ _ _ ` [ [ / M = @ + + + + + @ . . . X ",
"+ + + + + + @ @ @ . . + > C d.M.M.x.z.l.g.u.y.y.9.8.[ [ ` _ _ ` ' [ ' T s & + + + + + . + + X X X X ",
"X + + + + @ @ @ # + . + % ; r #.k.z.h.p.u.y.q.9.4.[ ` _ _ _ ` [ [ 3.H < @ . + + + + + + + + + @ @ @ ",
"X + + + + + + + @ + . + # # @ 1 E e.h.y.y.9.8.[ [ ` _ _ ` ' [ [ +.N = X . + + + X X + + + + @ # # # ",
"+ + + + + + + @ @ + + + @ @ + . $ C e.w.9.8.[ ' _ _ _ ' [ [ 8./ f # + + + + + + X X X + + + @ # # # ",
"+ @ @ # @ @ + + + + . . + + + + + 2 U 8.[ [ ` _ _ _ ' [ [ 8.w.P , @ + + + + + + X X + + + + @ @ @ @ ",
"+ + @ @ @ @ + + + + X X + + + + + h ] [ ' _ _ _ ' [ [ { 8.8.w.8.p % + + + + + + . . + + + + + X X X ",
"+ + + + + + + + + + + + + + + + # m 8.` _ _ ` ' [ [ 8.8.q.w.y.a.m 8 # + + + + + + + + + + + + X X . ",
"# + + + + + + + + + + # + + + + 1 U [ _ _ ' [ [ 8.8.8.w.w.y.i.s.U w # + + + + + + + + + + + + X X X ",
"# @ @ + + + + @ + X + + + + + + d 9._ ` ' [ [ 0.R ! y.y.y.p.s.j.9.e + X + + + + + + + + + + + X X X ",
". X # X X @ X X + + + @ @ + + % b y.' [ [ [ 5.Z 3 5 K t.p.s.j.j.j.j X X X X + # # # # # @ + + X X X ",
". @ @ . . X X X + + + + + @ @ 9 $.[ [ [ 8.~ x = # % 1 c @.h.j.m.m.U = X X X + # # # # # @ X X X X X ",
". X X . . X . X X . . . + + @ u z.[ [ 6.I 6 # . + @ @ $ i ! g.m.N.9.5 X X + + + + + + + + X X X X X ",
". X . . . . . . . . . . + + % b i.[ ) B < X .   . . . . X 5 J r.N.b.h # + + + + + + + + X X X X X X ",
". X . . @ @ . . . . X . X X q ,.8.^ k & X . . .   . . . X # = n 7.m.U = + + X X X X X + X X X X X X ",
". X X @ # # X . X X . X X X t v.L i X . . . . . . . . . . . . X a ~ 2.3 + X X X X X X X X X X X X X ",
"X X X @ % % # + X X . . . o j B O . .   . . . . . . + + + X X X X 4 F 7 # X X X X X X + + + + @ X X ",
". . . X # % # + X . . . . & d . . .       . . . . X + + X . . X X @ $ e $ X X X X X + # @ @ @ # X . ",
"X X X X @ @ + X X X . . . .     . . .           . . X X X X X X X X . . X X . . X X @ # # # @ X X X ",
"X X X + X X + + @ @ . . . . .   . . .         . . . X X X X X X X X . X X X . . X X X X # # @ X X X ",
"+ + + + + + + + X X . . . . . .   . . . . . . . . X X X X X X X X X X X + X . . X X X . X # # X X X ",
"+ + + + + + + + + @ X . . @ # @ . . . . . . . . X X X X X X X X X X + @ + X . X X X X . X o # X X . ",
"@ @ + + + + + + + @ @ X X # % # . . . . . . X X X X X X X X X X X X + + X X . . X X X . X X X . . . ",
"@ @ + + + + + + + + + . . # % # + . . . + + + + + X X X X X X X X X + X X X X X X X . . . .       . ",
"@ @ + + + + + + + X . . + + # @ + + + + + + + + + + X X X X X X X X X X X X X X X X . . . .       . ",
"@ + + X + + + + @ @ X X + + + + + @ @ @ @ @ @ + + + X X X X X X X X X X X + # # + X .             . "
};
