/* XPM */
static char *cf0ca4464fad4f71d955cc3dfdee87f8e6yBCKVJCOjuVoct[] = {
/* columns rows colors chars-per-pixel */
"50 50 30 1 ",
"  c #010307",
". c #01060C",
"X c #02080E",
"o c #04080C",
"O c #06080C",
"+ c #07080C",
"@ c #04090F",
"# c #000710",
"$ c #040710",
"% c #030A12",
"& c #050A10",
"* c #030C13",
"= c #070C12",
"- c #020B14",
"; c #060B14",
": c #030C15",
"> c #060D15",
", c #080D13",
"< c #080B14",
"1 c #080D14",
"2 c #060F18",
"3 c #0B0F18",
"4 c #091016",
"5 c #0A1119",
"6 c #0E121B",
"7 c #0C141B",
"8 c #131821",
"9 c #141821",
"0 c #161D25",
"q c #1F232C",
/* pixels */
"X=,&XXXX.o@@@@oo  ..   .@@@      @   @@@  @@.  ...",
"X&=@XXXX.@@...    ..    @@@@    @@   @@@  @@...@@@",
"XX&XXX@@X...      ...   .@@@... .@   ...  ... ..@@",
".XXXXX@&@@.       ....  ..@  .   ..   .. .o.   ...",
".XXXX@&&@@@..  .. ..@......  .   .@......@@@@..@@.",
"X..X@@@@@@@@.......@@.......... .@@..@@@.@@@@@.X@.",
"X..X@XXX@@@@@......@@@.......@...@@..@@@.@@X......",
"@X.X@XXX@@@@@@.....@@@..... .........@@@........@@",
"@XXX@X..X@@&&@@X....XXX... ...X...X.XX@X....XXXX..",
"@@&@XX...X@&&&&XXXXXXXXX....XXXXXX@@XXXXX...X&@X.X",
"&&@@XXXX..X@&=&&@XXXXXXX..XX@@XXX@&&&@XXXXX.XXXXX=",
"@&@@XXXX.XX&===,,@XXXXXX.XXXXX&&=,=&&@@XXXX@XXXXX=",
"@@@XXXXXXX&&11111&XXXXXXXXXXXX&=14=&&%XXX.X&&&XXX@",
"@@@XXXXXX%%&>>>>&%%%%%%%%XXXXX%&>>&%%%%XXXX&$$#XXX",
"X@@XXXXXX%%%%%%%%%%%%%%%%%%%%%%%%%%%%%%%%#XXXX##X#",
"XXXXXXXXXXXXX%%%%%%%%%%%&&%&%%%%XX%%%%#####XXXX#XX",
"XXXXXXXXXXXXX%%%%%%%%%%%%%%%%%%%#XXXXXXXXX%&#XXXXX",
"XX%%%%%%%%%%%%%%%%%%%%%%%#X%%%%##XXXXXX##%>1#.X&XX",
"XX%%%%%%%%%%%%%%%%%X%%%%%%XX%%%%#XXXXXX#%%>5;$&&XX",
"XX%%%%%%%%%%%%%XX%%XXX%%%XXX%%%%%#XXXXX#%%&>&#XX.X",
"X%%%#%%%%X%%%%%XX%%%%%%%%XXX%%%%%%XXXX%%%%%XXXX .X",
"##%%#%%%%X%%&%%%X%%%&&%%XX%%%%%%%%XXX##%%%%X%&#XX&",
"X%%%#%%%#XX%%&&&%%%>>>>%%%%%%%%%%%XX###%%%%%>1&XX&",
"X%%%%%%%#XX%%>>>>>>>>>>>&%%%%%%%%%X%%%%%%%%%;&XXXX",
"XX%%%%%%%XX#%;>5551>>%;>>>&&&&%%#X####%%%%%#%&XXXX",
"XX%%%%%:%XX#>5515551>%%%>>=>>1%;XXXXXX%%#%%X%#XX@@",
"X###%%:>-#X%56>&&>>>>%XX>575&1X&XXXXXX#%#%##%%%&&&",
"XX##%%%%-%X%>>%XX%%%%#X%%55>;;&$$$XXX#%%XX%%%%&&==",
"%%%%%%%%%%XX%%#XX&%%%##%%%%%&&<&&X#%#%%%XXX%%%&==,",
"%%%>*%%%%%XX%%%%%&%%XX%%%%&&&$.#&&%%%%#%XX%%%%&&&&",
"%%%%%%%%%%XX%%%%%%XXXXXXXX&;19&&X3%%%%%%XX%%%%%@@@",
"%%%%%%%%%%%%%%%%%XX%XX%&&%XX1q6&X8;%%%%##%%%%%%XXX",
"&%%%%%%%%%%%%%%%%X%>%%%>>1;X#6&X>0>%%%%%%%%%%%%XXX",
"=&&%%%%-%X%%%%%%%X%>&%#%%%XX%&XX&>%X%%%%%%%%%%%XXX",
".@&@@&XX%%%%%%%%%%->:%#%-=%X.XX%%XXXXX%&===>%%%XXX",
".@@.@@XX%%%%%%%%-->2>-%%;14=&=14>&XXXX%&==>>%XXXXX",
"@@@ .XXXXXXX%%%%%%%;&%XX#&%XXX&&%XXXX%%%%%%%%XXXXX",
".@...X..XXXXX#%%%XX#XX. .XXXXX&=&%X%%%%%%%%%XXXXXX",
".@..@@X.XXXXXXXXXXXXXXX. XXXXX&===%%%%XXXXX%XXXXXX",
".@@&11@XXXXXXXX..XXXXXXXXXXX.XXXXXX%%XXXXXXXXXXXXX",
"@@X&44%XXXX.....    .....X%%%XXXX%XXXXXXXXX%%%%&@X",
"@..X>4%XX.........   ....X%%XXXXX&XXXXXXXX%=&&&=@X",
"@XXX**XXX@..@.  ..     ..XXXXXXXXXXXXXXXXX&===&@@@",
"XXX%XXXXX@..@.. ..     ..XXXXXXXXXXXXXXXXX@@&&&@@@",
"%%%%%%%%X@X..@@. .. ....XXXXXXXXXXXX%XXXXXXX@&=@@@",
"%%%%%%%%%&@XX&1& .XXXXXXXXXXXXXXXX%&%XXXXXX.X@=@@@",
"**%%%%%%%&&XX161XXXXXXXXXXXXXXXXXX%%XXXXXXXX@@X...",
"**%%%%%%%%%XX>61#XXXX%%%%XXXXXXXXX%XXXXXXXXX...  @",
"*%%%%%%%%XXXX%>%%%%%%%%%#XXXXXXXXXXXXXXXXX....   @",
"%%XX##%%%%XX%%%%%--:::-%#XXXXXXXXXXXX%==%X.      ."
};
