/* XPM */
static char *_3c94cebf4c246b0df1567c2f3bd42ceOxERBF0Lw48kWTeM[] = {
/* columns rows colors chars-per-pixel */
"50 50 181 2 ",
"   c None",
".  c #000000",
"X  c #0C0A07",
"o  c #110E09",
"O  c #131204",
"+  c #1C1B06",
"@  c #1B140E",
"#  c #171408",
"$  c #1C1711",
"%  c #1E1813",
"&  c #262508",
"*  c #2C2A09",
"=  c #282709",
"-  c #302F0A",
";  c #33310B",
":  c #38360C",
">  c #3C3A0D",
",  c #2A221B",
"<  c #2E2316",
"1  c #372A1D",
"2  c #37291A",
"3  c #3C3717",
"4  c #362B23",
"5  c #392E22",
"6  c #3B3124",
"7  c #483726",
"8  c #4C3E31",
"9  c #44420E",
"0  c #4E4B11",
"q  c #4C4717",
"w  c #504D11",
"e  c #5C5814",
"r  c #585613",
"t  c #625E18",
"y  c #6F6B18",
"u  c #79751A",
"i  c #757119",
"p  c #4D4327",
"a  c #58422B",
"s  c #4E4132",
"d  c #534436",
"f  c #5B4733",
"g  c #5D4B3A",
"h  c #684D31",
"j  c #674B30",
"k  c #6B5034",
"l  c #6C573F",
"z  c #715335",
"x  c #74593E",
"c  c #725538",
"v  c #685643",
"b  c #6D5946",
"n  c #765C43",
"m  c #725D49",
"M  c #785F46",
"N  c #7A634C",
"B  c #76604D",
"V  c #7C6550",
"C  c #837D1C",
"Z  c #82603D",
"A  c #856645",
"S  c #886B4D",
"D  c #9E764E",
"F  c #917C4E",
"G  c #8A6D51",
"H  c #846C54",
"J  c #8F755C",
"K  c #A77E55",
"L  c #987D63",
"P  c #85811D",
"I  c #8D881E",
"U  c #8C871E",
"Y  c #908B1F",
"T  c #958E23",
"R  c #979120",
"E  c #9B9521",
"W  c #9D9529",
"Q  c #938638",
"!  c #9E903A",
"~  c #A19B23",
"^  c #A59C2D",
"/  c #BCB629",
"(  c #C1BA2A",
")  c #CBC42C",
"_  c #D3CB2D",
"`  c #DCD42F",
"'  c #E5DD32",
"]  c #E6DB39",
"[  c #EBE333",
"{  c #F0E734",
"}  c #F3EB34",
"|  c #F5E33F",
" . c #FAEE3D",
".. c #F7E93B",
"X. c #FBF236",
"o. c #FBF03A",
"O. c #9B864E",
"+. c #A08548",
"@. c #AE8052",
"#. c #A8815B",
"$. c #B68656",
"%. c #B88A5A",
"&. c #B1865A",
"*. c #A38669",
"=. c #AB8968",
"-. c #BB8E61",
";. c #B68F67",
":. c #BD9166",
">. c #B8956C",
",. c #BC9978",
"<. c #BA9673",
"1. c #C8935E",
"2. c #CCAA4F",
"3. c #C3B248",
"4. c #DEAD5E",
"5. c #CDB25A",
"6. c #E6BE55",
"7. c #E1B55A",
"8. c #E3B958",
"9. c #CD9D6D",
"0. c #D69E65",
"q. c #C29A73",
"w. c #C59F7A",
"e. c #D9A166",
"r. c #DBA36A",
"t. c #CFA377",
"y. c #DDA770",
"u. c #DFA974",
"i. c #D4A87C",
"p. c #DEBE77",
"a. c #E6BB63",
"s. c #E0AB77",
"d. c #E2AE7C",
"f. c #E3B27D",
"g. c #E9BF7A",
"h. c #ECCC4D",
"j. c #E3CB4C",
"k. c #EED249",
"l. c #E8D449",
"z. c #F2DC43",
"x. c #F4DF4A",
"c. c #E7C353",
"v. c #E5C954",
"b. c #EFD158",
"n. c #F6DF5E",
"m. c #F2D854",
"M. c #F4E342",
"N. c #F9EB44",
"B. c #F8E64F",
"V. c #F9E949",
"C. c #F6E24F",
"Z. c #F7E453",
"A. c #F8E651",
"S. c #F6E15A",
"D. c #EAC868",
"F. c #F5DC65",
"G. c #F1D36D",
"H. c #F4D96B",
"J. c #EDC774",
"K. c #F0CC7E",
"L. c #F3D673",
"P. c #F2D17B",
"I. c #C8A481",
"U. c #C7A380",
"Y. c #DBB38D",
"T. c #E5B483",
"R. c #E7B788",
"E. c #E7B88A",
"W. c #E9BA8D",
"Q. c #EABD92",
"!. c #E3BA92",
"~. c #EDC686",
"^. c #F1CF83",
"/. c #F0CA8D",
"(. c #ECC196",
"). c #EDC394",
"_. c #EFC890",
"`. c #EDC298",
"'. c #EEC39A",
"]. c #EEC299",
"[. c #EEC399",
/* pixels */
"                                                                                                    ",
"                                                                                                    ",
"                                                                                                    ",
"                                                                                                    ",
"                                                                                                    ",
"                        . . . . . . . . . . . . . . . . . . . . . . .                               ",
"                      . . . . . . . . . . . . . . . . . . . . . . . . .                             ",
"                      - > > > > > > > > > > > > > > > > > > > > > > > : -                           ",
"            . . . . * e P I I I I I I I I I I I I I I I I I I I I I I u r O . . .                   ",
"          . . . . . - C ` { { { { { { { { { { { { { { { { { { { { { { ( i O . . . . .               ",
"          * - ; ; ; r E [ X.X.X.X.X.X.o. .N.V.V.V.V.N. .X.X.X.X.X.X.X._ T 9 ; ; ; - *               ",
"      . : t C C C C E ( { X.X.X.X.X.X.o.V.S.H.H.H.H.S.V.X.X.X.X.X.X.X.' / U C C C u e &             ",
"    . . 9 I ' ' ' ' [ { X.X.X.X.X.X.X. .S.P._._._._.L.S.X.X.X.X.X.X.X.} { [ ' ' ' ) P * . .         ",
"    + = t ^ M.N.N.N.N. .X.X.X.X.X.X.X. .S.L././././.H.Z.X.X.X.X.o. .N.N.N.N.N. .o.' E 0 & #         ",
"  & 0 u W 3.F.F.F.F.S.B.o.X.X.X.X.X.X.o.V.S.H.H.H.H.S.V.X.X.X.X.N.A.F.F.F.F.n.B. .[ ( Y y 9 +       ",
". 9 I ` j.D././././.P.F. .X.X.X.X.X.X.X.o. .N.N.N.N. .o.X.X.X.X.V.F././././.^.F.N.} [ ' ) C : . . . ",
". w ~ X.B.H././././.P.F. .X.X.X.X.X.X.X.X.X.X.X.X.X.X.X.X.X.X.X.V.F././././.^.F.N.X.X.X.' R > . . . ",
". w ~ X.N.S.H.H.H.H.F.A.o.X.X.X.X.X.X.X.X.X.X.X.X.X.X.X.X.X.X.X.N.S.H.H.H.H.F.Z. .X.X.X.' R > . . . ",
". w ~ X.o.N.V.V.V.V.N. .X.X.X.X.X.X.X.X.X.X.X.X.X.X.X.X.X.X.X.X.o.N.N.V.V.V.N. .o.X.X.X.' R > . . . ",
". w ~ X.X.X.X.X.X.X.X.X.X.X.o. . . . . .o.o.X.X.X.X.X.X.X.X............. . . . . . . . .] T > . . . ",
". w ~ X.X.X.X.X.X.X.X.X.X. .V.S.n.n.n.S.B.N.X.X.X.X.X.X.X...z.k.k.k.k.k.m.n.n.n.n.n.n.n.v.Q 3 . . . ",
". w ~ X.X.X.X.X.X.X.X.X.X.N.S.P.^.^.^.P.F.V.X.X.X.X.X.X.X.M.h.7.7.7.7.a.J.K.^.^.^.^.^.^.p.F 6 . . . ",
". w ~ ..o.o.X.X.X.X.X.X.X.N.F./.'.'.'._.L.B.X.X.X.X.X.X.X.z.c.e.e.e.e.y.T.).'.'.'.'.'.'.Y.J 5 . . . ",
". q ! S.A.N.X.X.X.X.X.X.X.N.F./.'.'.'._.L.B.X.X.X.X.X.X.X.| k.6.7.4.e.y.T.).).Q.E.R.R.R.i.G 5 . . . ",
". p O.P.F.Z.X.X.X.X.X.X.X.N.F./.'.'.'._.L.B.X.X.X.X.X.X.X...| z.h.8.e.y.T.).Q.E.d.s.s.s.9.A 1 . . . ",
". 8 L '.P.n.o.X.X.X.X.X.X.N.F./.'.'.'._.L.B.X.X.X.X.X.X.X.X.X.X.z.c.e.y.T.).Q.T.r.e.e.e.1.Z 2 . . . ",
". 8 L '.^.L.S.S.S.S.A.N.o.N.S.L.P.P.P.L.n.N.X.X.X.X.X.X.X.X.X.X.| k.6.a.g.).Q.T.r.e.r.u.9.A 1 . . . ",
". 8 L '._.^.L.L.L.L.H.Z.o. .N.S.S.S.S.S.V. .X.X.X.X.X.X.X.X.X.X...M.k.b.J._.Q.T.r.e.u.T.i.G 5 . . . ",
". 8 L '.'.'.'.'.'.'.^.F. .X.X.X.X.X.X.X.X.X.X.X.X.X.X.X.X.X.X.X.X.X.X.V.H._.Q.T.r.r.d.Q.Y.J 6 . . . ",
". 8 L '.).Q.W.E.E.E.~.G.S.Z.Z.Z.Z.Z.Z.Z.Z.Z.Z.Z.Z.Z.Z.Z.Z.Z.Z.Z.C.x.z.j.5.>.=.#.D D K =.*.m 4 . . . ",
". 8 L '.Q.R.d.d.d.d.f.J.L.L.L.L.L.L.L.L.L.L.L.L.L.L.L.L.L.L.L.L.G.D.c.2.+.v g f a a f g g 8 ,       ",
". 8 L '.W.d.e.e.e.e.y.T.).[.[.[.[.[.[.[.[.[.[.[.[.[.[.[.[.[.[.[.W.f.e.@.k # . . . . . . . .         ",
". 7 V <.<.9.e.e.e.e.y.T.).'.'.'.'.'.'.'.'.'.'.).Q.W.W.W.W.Q.).'.W.d.e.@.h o . . . . . . .           ",
"  4 d v S #.0.e.e.e.y.T.).'.'.'.'.'.'.'.'.'.'.Q.R.d.d.d.d.R.W.'.W.d.e.@.h o . . .                   ",
"    X X 7 A 0.e.e.e.y.T.).'.'.'.'.'.'.'.'.'.'.R.d.e.e.e.e.s.R.'.W.d.e.@.h o . .                     ",
"    . . 2 z K @.@.@.-.t.Q.'.).Q.Q.Q.Q.Q.Q.).'.R.s.e.e.e.e.u.R.'.Q.T.y.&.k o . .                     ",
"        < 7 j h h h A =.!.).W.T.f.f.f.T.E.Q.'.R.s.e.e.e.e.u.R.'.Q.W.T.;.l o . .                     ",
"          X o o o o 6 H Y.Q.T.y.e.e.e.r.f.W.'.R.s.e.e.e.e.u.R.'.'.'.).,.m o . .                     ",
"          . . . . . , m ,.w.>.%.$.$.$.%.:.w.U.q.:.$.$.$.$.-.q.U.I.I.I.*.v o .                       ",
"            . . . . , d B N n c z z z c n N N M x z z z z x M V V V V b s o                         ",
"                      $ % % % @ @ @ @ @ @ % % % @ @ @ @ @ @ % % % % % % $                           ",
"                        . . . . . . . . . . . . . . . . . . . . . . . .                             ",
"                        . . . . . . . . . . . . . . . . . . . . . . .                               ",
"                                                                                                    ",
"                                                                                                    ",
"                                                                                                    ",
"                                                                                                    ",
"                                                                                                    ",
"                                                                                                    ",
"                                                                                                    "
};
