/* XPM */
static char *d6426e0796004286fe5fea9e0fc1270bRBWDwcA3v1V89lAx[] = {
/* columns rows colors chars-per-pixel */
"50 50 201 2 ",
"   c None",
".  c #000000",
"X  c #05060B",
"o  c #0B0C0E",
"O  c #0B0C13",
"+  c #0B0C1A",
"@  c #0F1013",
"#  c #121314",
"$  c #151718",
"%  c #191B1D",
"&  c #171A1C",
"*  c #12162D",
"=  c #181A28",
"-  c #181B36",
";  c #1E2024",
":  c #1F222F",
">  c #192134",
",  c #202326",
"<  c #23262B",
"1  c #292B2D",
"2  c #272A31",
"3  c #292D31",
"4  c #24253F",
"5  c #2D3336",
"6  c #2F3539",
"7  c gray20",
"8  c #32363E",
"9  c #1E2B4C",
"0  c #1C2347",
"q  c #1F3252",
"w  c #20264F",
"e  c #252649",
"r  c #242B57",
"t  c #223256",
"y  c #293665",
"u  c #343868",
"i  c #2F3975",
"p  c #323D7A",
"a  c #3C4349",
"s  c #3F466F",
"d  c #394277",
"f  c #41494D",
"g  c #41454F",
"h  c #454D53",
"j  c #484E5A",
"k  c #485055",
"l  c #4B5359",
"z  c #4F585E",
"x  c #515A5F",
"c  c #535C61",
"v  c #555D6A",
"b  c #434878",
"n  c #4B5377",
"m  c #535876",
"M  c #434B6F",
"N  c #5A6266",
"B  c #576166",
"V  c #5C6474",
"C  c #686D6F",
"Z  c #646C7C",
"A  c #686A77",
"S  c #69757D",
"D  c #7A7A7A",
"F  c #77777A",
"G  c #374683",
"H  c #3B4891",
"J  c #3E5A9D",
"K  c #3C5197",
"L  c #3F63A3",
"P  c #484F99",
"I  c #444F9F",
"U  c #4E568F",
"Y  c #5C6594",
"T  c #686D81",
"R  c #6D7983",
"E  c #71798A",
"W  c #737D9A",
"Q  c #4B53A2",
"!  c #4455A8",
"~  c #4B5AB6",
"^  c #515EBB",
"/  c #476BB5",
"(  c #5162BA",
")  c #5766B7",
"_  c #6672BA",
"`  c #6774A5",
"'  c #5463C5",
"]  c #5465CF",
"[  c #576DD1",
"{  c #596ED6",
"}  c #5974D9",
"|  c #6779D4",
" . c #5C6EE1",
".. c #5E71E2",
"X. c #5D7DEA",
"o. c #5C7EE4",
"O. c #6274E2",
"+. c #6678E3",
"@. c #697BE3",
"#. c #75828C",
"$. c #78868E",
"%. c #7A8396",
"&. c #7D8B94",
"*. c #778092",
"=. c #7986BC",
"-. c #7683A9",
";. c #7E90C8",
":. c #5E82EC",
">. c #6E80E5",
",. c #7484E6",
"<. c #7C8BE7",
"1. c #7F8EE8",
"2. c #608CF5",
"3. c #6299FE",
"4. c gray52",
"5. c #848D98",
"6. c #83929B",
"7. c #8A9AA3",
"8. c #8F9FA9",
"9. c #919DB4",
"0. c #919EA5",
"q. c #93A3AC",
"w. c #99A2A7",
"e. c #95A4B4",
"r. c #9BADB7",
"t. c #9CAEBA",
"y. c #97A9B5",
"u. c #9FB0BB",
"i. c #A6AEBF",
"p. c #A4B4BE",
"a. c #B2B7BA",
"s. c #8890C0",
"d. c #8D98D2",
"f. c #97A4C7",
"g. c #A5B5C2",
"h. c #ABBAC3",
"j. c #ABBCCD",
"k. c #A7B4CA",
"l. c #B3BEC4",
"z. c #B2B5C7",
"x. c #ACBED0",
"c. c #A7ACC5",
"v. c #818FE8",
"b. c #8392E8",
"n. c #8A98EA",
"m. c #929EEB",
"M. c #93A2ED",
"N. c #99A5EC",
"B. c #9DA8ED",
"V. c #A2ADEE",
"C. c #A7B1EF",
"Z. c #AAB4EF",
"A. c #AEBDE5",
"S. c #ADB7F0",
"D. c #B6BFF2",
"F. c #B5C0C7",
"G. c #B6C3CA",
"H. c #BBC7CE",
"J. c #B1C2D5",
"K. c #BCC9D4",
"L. c #B4C4DB",
"P. c #BBCADB",
"I. c #BCCBE4",
"U. c #BBCAE8",
"Y. c #B7C8E0",
"T. c #BFD0EB",
"R. c #BBC6F4",
"E. c gray80",
"W. c #C6C7CB",
"Q. c #C1CDD4",
"!. c #C1CDD9",
"~. c #C7D1D7",
"^. c #CDD6DB",
"/. c #CFD8DD",
"(. c #D3D9DC",
"). c #C8D5E9",
"_. c #D6DDE1",
"`. c #D3DCEC",
"'. c #C6CCF4",
"]. c #C5D5F4",
"[. c #CBDBFB",
"{. c #C9D3F8",
"}. c #D1D6F7",
"|. c #D2DBF7",
" X c #C0C5E3",
".X c #DBE2E5",
"XX c #DDE5ED",
"oX c #D4E1FD",
"OX c #DEE2F9",
"+X c #DCE5F7",
"@X c #E1E6E9",
"#X c #E6EAED",
"$X c #EBEBEB",
"%X c #E9EEF2",
"&X c #E9EEFC",
"*X c #E3E7FB",
"=X c #EDF0F2",
"-X c #F2F4F6",
";X c #F2F5FC",
":X c #F7F9F9",
">X c #FDFEFF",
/* pixels */
"                                    . . . . . . . . . . . .                                         ",
"                                  - 0 0 9 q t 9 9 0 9 9 t 9 >                                       ",
"                              . + w p H K J L J K H K J L G q .                                     ",
"                              . + y ~ ..X.2.3.2.X. .X.2.3./ y . .                                   ",
"                              . + r I ' } :.2.o.{ ' { o.2./ y . .                                   ",
"                              . O e G Q ( } X.[ ( Q ( [ :.! y . .                                   ",
"                              . X - u b Q ' { ^ P b P ^  .! r . .                                   ",
"                              . X = e u U ) | _ Y U U Q ! G w . .                                   ",
"                                X = = 4 M ` ;.=.-.W Y b y r -                                       ",
"                                    . @ a #.r.y.y.y.S a X X                                         ",
"                                  % ; 3 x &.r.u.g.g.&.z , ; &                                       ",
"                                # 6 k B R 7.t.g.j.L.e.#.c f 5 .                                     ",
"                              . # f $.q.q.y.t.j.Y.].L.g.8.S a . .                                   ",
"                            $ % 3 c 6.r.r.r.t.x.I.[.U.J.g.&.x = & $                                 ",
"                          $ 8 h c R 7.r.r.r.t.x.I.[.].I.J.e.#.l f 5 X                               ",
"                        . % h $.7.q.y.r.r.r.t.x.I.[.[.].].L.g.7.S f X .                             ",
"                      # # 3 N q.g.g.g.g.g.g.h.J.I.].].[.[.T.J.g.&.c % # #                           ",
"                    % 6 f N 5.F.~.~.~.~.~.~.~.!.P.L.I.].[.].I.J.e.#.k a 5                           ",
"                  . ; k $.0.l..X=X=X=X=X=X=X%X_.K.g.J.U.[.[.].].J.t.6.S h o .                       ",
"                . . , c q.F./.-X>X>X>X>X>X:X-X_.G.r.j.Y.].[.[.[.).J.t.&.l O . .                     ",
"                . . 1 C l.^.@X:X>X>X>X>X-X@X_.Q.h.r.g.x.Y.).|.+X`.K.u.&.l o . .                     ",
"                . . 3 D (.%X-X>X>X>X>X:X@X~.F.h.p.r.u.g.k.K.`.;XXXQ.u.&.l o . .                     ",
"                . . 7 4.$X>X>X>X>X>X>X:X.XG.u.t.t.r.r.r.r.G._.>X#X~.p.&.l o . .                     ",
"                . . 7 4.$X>X>X>X>X>X>X:X#X/.K.F.p.r.r.r.r.G._.>X-X.XQ.w.N @ . .                     ",
"                . . 7 4.$X>X>X>X>X>X>X>X-X#X.X~.l.r.r.t.r.G._.>X:X=X@Xa.C # . .                     ",
"                . . 7 4.$X>X>X>X>X>X>X>X>X>X>X.XG.r.r.r.t.G._.>X>X>X>XE.D # . .                     ",
"                . . 7 4.$X>X>X>X>X>X>X>X>X>X>X#X/.G.G.G.G./.#X>X>X>X>XE.D # . .                     ",
"                . . 7 4.$X>X>X>X>X>X>X>X>X>X>X-X#X.X.X.X.X#X-X>X>X>X>XE.D # . .                     ",
"                . . 7 4.$X>X>X>X>X>X>X>X>X>X>X>X>X>X>X>X>X>X>X>X>X>X>XE.D # . .                     ",
"                . . 3 T  X}.}.}.}.}.}.}.}.}.}.}.}.}.}.}.}.}.}.}.}.}.}.c.A # . .                     ",
"                . . : m d.B.B.B.B.B.B.B.B.B.B.B.B.B.B.B.B.B.B.B.B.B.B.=.n O . .                     ",
"                . . * i [ ............................................~ y O . .                     ",
"                . . * i ] O.@.<.b.b.b.1.,.+. .@.,.b.,.@. .+.,.b.b.b.b._ s O . .                     ",
"                . . * i ] @.n.Z.D.D.D.S.m.,...<.N.D.N.<. .,.m.D.D.D.D.s.m O . .                     ",
"                . . * i ] ,.C.*X>X>X>X&XR.b.O.M.'.>X'.M. .n.R.;X>X>X>XW.F # . .                     ",
"                . . * i ] ,.N.}.OXOXOX|.Z.<.O.n.D.OXD.n. .v.Z.OXOXOXOXz.A # . .                     ",
"                . . * i ] +.v.V.Z.Z.Z.V.n.@...,.m.Z.m.,. .,.n.Z.Z.Z.Z.s.m O . .                     ",
"                . . * i ] ..O.+.+.+.+.+.O... .O.+.+.+.O. ...O.+.+.+.+.( u O . .                     ",
"                . . * d | >.,.,.,.,.,.,.,.,.,.,.,.,.,.,.,.,.,.,.,.,.@.) u O . .                     ",
"                . . : n d.M.B.C.Z.Z.Z.Z.Z.Z.Z.Z.Z.Z.Z.Z.Z.Z.Z.Z.V.B.M.=.M O . .                     ",
"                . . 2 T A.{.|.*X&X&X&X&X&X&X&X&X&X&X&X&X&X&X&X&X*X|.R.f.V @ . .                     ",
"                  . 2 Z k.I.`.;X>X>X>X>X>X>X>X>X>X>X>X>X>X>X>X>X%X`.L.9.V @ .                       ",
"                  . < l R 6.g.XX&X&X&X&X&X&X&X&X&X&X&X&X&X&X&X&X).i.*.Z j @                         ",
"                      ; < g *.I.oXoXoXoXoXoXoXoXoXoXoXoXoXoXoXoXk.E 5 < ;                           ",
"                        . , V k.U.U.U.U.U.U.U.U.U.U.U.U.U.U.U.U.9.v X .                             ",
"                        . = j E %.%.%.%.%.%.%.%.%.%.%.%.%.%.%.%.Z h X                               ",
"                            2 8 8 8 8 8 8 8 8 8 8 8 8 8 8 8 8 8 6 2                                 ",
"                              . . . . . . . . . . . . . . . . . .                                   ",
"                              . . . . . . . . . . . . . . . . . .                                   ",
"                              . . . . . . . . . . . . . . . . . .                                   "
};
