/* XPM */
static char *_10a2268385940bda4da4647f2e2971crYdf72roiBC7CTbM[] = {
/* columns rows colors chars-per-pixel */
"50 50 172 2 ",
"   c None",
".  c #000000",
"X  c #0A0605",
"o  c #0B070A",
"O  c #0E080C",
"+  c #110A07",
"@  c #120B0D",
"#  c #1A0E0C",
"$  c #1D110D",
"%  c #160D13",
"&  c #1A0F13",
"*  c #1B0F18",
"=  c #0F1013",
"-  c #121314",
";  c #1E1112",
":  c #1D101A",
">  c #16181B",
",  c #181A1E",
"<  c #22140E",
"1  c #231311",
"2  c #291713",
"3  c #271810",
"4  c #2C1914",
"5  c #331E15",
"6  c #341D19",
"7  c #362016",
"8  c #3C231A",
"9  c #261621",
"0  c #2A1924",
"q  c #2F1B29",
"w  c #341E25",
"e  c #1F2126",
"r  c #23272C",
"t  c #2B2C2D",
"y  c #3D2221",
"u  c #2A2D32",
"i  c #272A31",
"p  c #3D2436",
"a  c #2F3033",
"s  c #2F3239",
"d  c #333333",
"f  c #32363E",
"g  c #3B3C3C",
"h  c #373A3E",
"j  c #41251E",
"k  c #43291C",
"l  c #482B1E",
"z  c #472822",
"x  c #492923",
"c  c #452728",
"v  c #512E25",
"b  c #522E28",
"n  c #533124",
"m  c #5B3626",
"M  c #5F3927",
"N  c #5A332B",
"B  c #5E3828",
"V  c #432735",
"C  c #43273A",
"Z  c #46283C",
"A  c #4B2B3A",
"S  c #532E33",
"D  c #502E38",
"F  c #563136",
"G  c #5C3434",
"H  c #533C33",
"J  c #62372D",
"K  c #623A2A",
"L  c #693F2B",
"P  c #623732",
"I  c #663931",
"U  c #6A3C32",
"Y  c #6D412D",
"T  c #72452F",
"R  c #6F4033",
"E  c #744334",
"W  c #794636",
"Q  c #774831",
"!  c #7D4936",
"~  c #754B38",
"^  c #3F434E",
"/  c #444444",
"(  c #4E4E4E",
")  c #534A45",
"_  c #474C58",
"`  c #474C55",
"'  c #505051",
"]  c #6A4E41",
"[  c #525865",
"{  c #5D6473",
"}  c #636464",
"|  c #6C6C6C",
" . c #7F6B69",
".. c #606877",
"X. c #656C7A",
"o. c #6F737A",
"O. c #77787A",
"+. c #814C37",
"@. c #844E38",
"#. c #865137",
"$. c #86513A",
"%. c #8E553B",
"&. c #885F4F",
"*. c #905E47",
"=. c #9C6A53",
"-. c #987062",
";. c #94796C",
":. c #AA877C",
">. c #697183",
",. c #747B8B",
"<. c #767A84",
"1. c #7B8498",
"2. c #848484",
"3. c #8B8B8B",
"4. c #978E8A",
"5. c #888D98",
"6. c #949494",
"7. c #929499",
"8. c #A39296",
"9. c #8790A2",
"0. c #9297A2",
"q. c #939EB6",
"w. c #9FA1A3",
"e. c #97A3BB",
"r. c #A3A3A4",
"t. c #A5ADBE",
"y. c #BAACB2",
"u. c #B1B7BD",
"i. c #C7AB9E",
"p. c #D0BDB7",
"a. c #A9B9C1",
"s. c #AAB4CA",
"d. c #BABFCB",
"f. c #ADB8D0",
"g. c #B1BDD7",
"h. c #BDC7CE",
"j. c #BDC8CF",
"k. c #BAC8E7",
"l. c #BDCBE8",
"z. c gray79",
"x. c #C7C9CC",
"c. c #CFD8DD",
"v. c #C7D1D7",
"b. c #D1D3D5",
"n. c #DFDFDF",
"m. c #D9D2D5",
"M. c #E9E0DB",
"N. c #CFD8E0",
"B. c #CCD5E9",
"V. c #CDD5E5",
"C. c #D3DAE9",
"Z. c #D7DEE3",
"A. c #CFDAF5",
"S. c #D7E0EA",
"D. c #DDE3EC",
"F. c #DBE1E5",
"G. c #DEE7F4",
"H. c #D3E1FC",
"J. c #DFE8F8",
"K. c #DBE6FA",
"L. c #E4E5E6",
"P. c #EFE9E7",
"I. c #ECECED",
"U. c #E2E8ED",
"Y. c #E6ECF6",
"T. c #E5EDFC",
"R. c #EAEEF0",
"E. c #EEF2F5",
"W. c #F5F5F5",
"Q. c #F6F8FD",
"!. c #FBFCFD",
"~. c #F1F5FE",
/* pixels */
"                                                                        . . . . . . .               ",
"                                                                        f ^ ` ` ' ( /               ",
"                                                                    . r [ 1.9.0.w.6.| t .           ",
"                                                                  . . u >.k.H.T.Q.n.3.t . .         ",
"                                                                  . . u <.B.K.G.U.b.w.} / g         ",
"                                                                  . . a <.C.Y.S.v.h.u.r.6.| d . . . ",
"                                                                  . . d 2.I.E.c.a.a.v.I.L.6.g . . . ",
"                                                                  d g } r.I.W.F.j.h.N.Y.D.7.g . . . ",
"                                                              . d } 3.r.z.W.!.R.Z.Z.D.J.C.5.h . . . ",
"                                                            . . g 3.I.W.!.!.!.!.!.Q.T.H.l.1.f . . . ",
"                                                            t d } r.W.!.!.Q.E.L.b.x.d.s.e.>.s . . . ",
"                                                        . g } 2.r.z.!.!.~.T.C.u.3.O.o.X.{ _ i       ",
"                                                      . . / 6.L.I.W.!.Q.T.H.g.,.u - - - - =         ",
"                                                      # # ) 4.M.P.W.Q.Y.B.g.q..., . . . . .         ",
"                                                    < 7 k ] ;.i.p.m.Y.V.t.,..._ > . . .             ",
"                                          . . . . . 4 n ! $.*.=.:.y.A.f.,.i , >                     ",
"                                          + + + + + 8 K %.%.%.%.-.8.g.q.{ = .                       ",
"                                        < 7 8 8 8 8 m T %.%.%.%.&. .,.X._ =                         ",
"                              . . . . X 5 m Q Q Q Q ! #.%.%.%.%.~ H t r e                           ",
"                            X X X X X # k Y %.%.%.%.%.%.%.%.%.%.Y 8 X .                             ",
"                            3 7 8 8 8 k m Q %.%.%.%.%.%.%.%.@.! K 8 X .                             ",
"                  . . . . # 8 K Y Y Y Y Q #.%.%.%.%.%.%.%.$.! E n 5 X .                             ",
"                X X X X X $ l ! %.%.%.%.%.%.%.%.%.%.%.%.%.+.E J x 4 X .                             ",
"              # 3 5 5 5 5 k M @.%.%.%.%.%.%.%.%.%.%.%.@.+.R N z 6 1 X .                             ",
"            . $ 8 M K K K L Q %.%.%.%.%.%.%.%.%.%.%.$.! E N j 1 $ #                                 ",
"          . . < n %.%.%.%.%.%.%.%.%.%.%.%.%.%.%.%.%.@.E I x 2 . .                                   ",
"        + # < 8 B %.%.%.%.%.%.%.%.%.%.%.%.%.%.%.$.@.W E I x 2 . .                                   ",
"      . # 4 j n Y %.%.%.%.%.%.%.%.%.%.%.%.%.%.@.! E E U I x 2 . .                                   ",
"    . . $ 8 P R ! %.%.%.%.%.%.%.%.%.%.%.%.%.%.+.E I I I I x 2 . .                                   ",
"  + # $ 6 v E W ! @.@.%.%.%.%.@.@.%.%.%.%.$.@.! W E J N x 8 1 . .                                   ",
". # 4 8 v J ! ! W W ! @.%.%.@.W W @.%.%.@.! W W ! ! K x 2 1 #                                       ",
". < j P E ! %.@.W U U ! %.%.! U U W %.%.! E U W @.%.K 5 . .                                         ",
". 1 j I U W @.+.W E E ! @.@.! E E W @.@.! W E W ! @.m 5 . .                                         ",
". 1 j I U E W W ! ! ! W W W W ! ! ! W W W ! ! ! W W v 4 . .                                         ",
". 1 j I I I U E ! %.@.W U U W %.%.! U U W @.%.+.E U z 1 . .                                         ",
". ; y G P P I U W @.+.W U U W @.@.W U U E ! @.Q K v 8 1 . .                                         ",
". & w F G G I U E W W R U U R W W E U U U W W J x 6 1 #                                             ",
". % 0 Z D G I I U U U U I I U U U U I I I U I z 1 X X                                               ",
". % 0 Z A F P P I I I I I I I I I I P P N N b 8 $ . .                                               ",
". % 0 Z A A F G G I I I I I I I I G G S c y 6 3 # .                                                 ",
". % 0 Z Z Z A D G I I I I I I I P G A V w ; X X                                                     ",
". % 0 p p C Z A F P P P P P P P G S V p 9 @ . .                                                     ",
". @ : 9 q p Z A A F F F F F F F S c 0 9 * O .                                                       ",
"    o o : q C Z A A A A A A A A V 0 & o o                                                           ",
"    . . @ 9 p p p p p p p p p p p 9 o . .                                                           ",
"      . @ : 0 0 0 0 0 0 0 0 0 0 9 * o .                                                             ",
"          O @ @ @ @ @ @ @ @ @ @ @ O                                                                 ",
"          . . . . . . . . . . . . .                                                                 ",
"          . . . . . . . . . . . . .                                                                 ",
"          . . . . . . . . . . . . .                                                                 "
};
