/* XPM */
static char *a4d331c2ee9d45e9b05ade49c9643d5eFwsDWNQjUEAjHMMN[] = {
/* columns rows colors chars-per-pixel */
"43 50 211 2 ",
"   c None",
".  c #2E2E2D",
"X  c #2F2F2D",
"o  c gray18",
"O  c #2F2F2E",
"+  c #2F2F2F",
"@  c #30302F",
"#  c gray19",
"$  c #313130",
"%  c #323231",
"&  c #333332",
"*  c #343433",
"=  c #353533",
"-  c #353534",
";  c #363635",
":  c #383837",
">  c #3A3A39",
",  c #3A3A3A",
"<  c #3B3B3A",
"1  c gray23",
"2  c #3D3D3C",
"3  c #3E3E3D",
"4  c #3F3F3E",
"5  c gray25",
"6  c #414141",
"7  c #424241",
"8  c gray26",
"9  c #434343",
"0  c #444442",
"q  c #444443",
"w  c #464645",
"e  c #464646",
"r  c #484847",
"t  c #484848",
"y  c #494948",
"u  c #494949",
"i  c #4A4A48",
"p  c #4C4C4B",
"a  c #4D4D4C",
"s  c #4E4E4E",
"d  c #50504F",
"f  c gray32",
"g  c #535352",
"h  c #545453",
"j  c gray33",
"k  c #555554",
"l  c #555555",
"z  c #565654",
"x  c #565655",
"c  c #565656",
"v  c gray34",
"b  c #585857",
"n  c #585858",
"m  c #595958",
"M  c #5A5A59",
"N  c #5B5B5A",
"B  c #5B5B5B",
"V  c #5C5C5B",
"C  c #5D5D5C",
"Z  c #5D5D5D",
"A  c #5F5F5E",
"S  c #60605F",
"D  c #616160",
"F  c #626261",
"G  c #626262",
"H  c #636362",
"J  c gray39",
"K  c #646463",
"L  c #646464",
"P  c #656564",
"I  c #656565",
"U  c gray40",
"Y  c #676766",
"T  c #676767",
"R  c #686867",
"E  c #686868",
"W  c #696968",
"Q  c DimGray",
"!  c #6A6A6A",
"~  c #6C6C6B",
"^  c #6C6C6C",
"/  c #6D6D6C",
"(  c #6D6D6D",
")  c #6E6E6D",
"_  c gray43",
"`  c #6F6F6E",
"'  c #6F6F6F",
"]  c #70706F",
"[  c #737372",
"{  c gray45",
"}  c #747473",
"|  c #747474",
" . c #757574",
".. c gray46",
"X. c #767675",
"o. c #767676",
"O. c #777776",
"+. c #777777",
"@. c #787877",
"#. c #797978",
"$. c #7A7A79",
"%. c gray48",
"&. c #7B7B7A",
"*. c #7B7B7B",
"=. c #7C7C7C",
"-. c gray49",
";. c #7E7E7D",
":. c #7F7F7E",
">. c gray50",
",. c #80807F",
"<. c #808080",
"1. c #818180",
"2. c #818181",
"3. c #828281",
"4. c #838382",
"5. c #848483",
"6. c gray52",
"7. c gray53",
"8. c #888888",
"9. c #8C8C8B",
"0. c gray55",
"q. c #8D8D8C",
"w. c #8D8D8D",
"e. c gray56",
"r. c #909090",
"t. c #919190",
"y. c #929292",
"u. c #939392",
"i. c #939393",
"p. c gray58",
"a. c #959595",
"s. c gray59",
"d. c #979797",
"f. c #989897",
"g. c #989898",
"h. c #999998",
"j. c gray60",
"k. c #9A9A9A",
"l. c #9B9B9B",
"z. c #9C9C9B",
"x. c gray61",
"c. c #9D9D9D",
"v. c gray62",
"b. c #A0A0A0",
"n. c #A1A1A0",
"m. c gray63",
"M. c #A2A2A2",
"N. c gray64",
"B. c #A4A4A3",
"V. c #A4A4A4",
"C. c #A5A5A4",
"Z. c #A5A5A5",
"A. c gray65",
"S. c #A7A7A7",
"D. c gray66",
"F. c #A9A9A9",
"G. c #AAAAAA",
"H. c gray67",
"J. c #ACACAB",
"K. c #ACACAC",
"L. c #AEAEAE",
"P. c #AFAFAE",
"I. c #AFAFAF",
"U. c gray69",
"Y. c #B1B1B0",
"T. c #B1B1B1",
"R. c #B2B2B2",
"E. c #B3B3B2",
"W. c gray70",
"Q. c #B4B4B4",
"!. c gray71",
"~. c #B6B6B6",
"^. c #B7B7B7",
"/. c gray72",
"(. c #B9B9B9",
"). c #BABAB9",
"_. c gray73",
"`. c #BBBBBA",
"'. c #BCBCBC",
"]. c gray74",
"[. c #BEBEBD",
"{. c gray",
"}. c gray75",
"|. c #C0C0C0",
" X c #C1C1C1",
".X c gray76",
"XX c #C3C3C3",
"oX c #C5C5C4",
"OX c #C6C6C6",
"+X c gray78",
"@X c gray79",
"#X c #CACACA",
"$X c gray80",
"%X c #CECECE",
"&X c gray81",
"*X c gray82",
"=X c #D2D2D2",
"-X c gray83",
";X c #D5D5D5",
":X c gray84",
">X c #D7D7D7",
",X c #D8D8D8",
"<X c gray85",
"1X c #DADADA",
"2X c gray86",
"3X c gainsboro",
"4X c #DDDDDC",
"5X c #DDDDDD",
"6X c #DEDEDD",
"7X c gray87",
"8X c gray88",
/* pixels */
"                                                                                      ",
"                                                                                      ",
"                                                                                      ",
"                                                                                      ",
"                                                                                      ",
"                                                                                      ",
"                                  . . .                   . . .                       ",
"                                . . . . .               . . . . .                     ",
"                                . - i C l             i N N q . .                     ",
"                                . 2 ) S.>.2 . . . . . l r.a.H . .                     ",
"                                . 2 O.~.r.C f f f f f [ G.G.) . .                     ",
"                                . 2 O.~.L.S.N.N.N.N.N.T.@X`.O.. .                     ",
"                                . 2 O.~. X;X1X5X5X5X5X5X1X X%.. .                     ",
"                              . . 2 O.~.S.r.k.`.$X$X$X`.k.2.N . . .                   ",
"                            . . . 2 O.~.6.8 d 9.~.~.~.w.a * % . . . . . . . . .       ",
"                          l H H N C } w.>.E ) >.w.w.w.2.~ C e . q S H N l q @ .       ",
"                      . % O.`.~.B.r.) i O.T.S.) r r r ~ G.G.) . R T.~.S.a.T % .       ",
"                      . % >.1X$XT.a.) 8 %.@X~.R . . . H `. X%.. O.=X=X~.k.) % .       ",
"                      . % >.1X'.5.~ [ %.a. XG.H . . . C G.T.[ . O.=X+Xw.R N           ",
"                      . % >.1XL.l 2 O.~.~.~.k.N . . . b c.N.E . O.=X~.H . .           ",
"                      . % >.1X'.,.R [ >.r.L.S.>.T T T ) %.O.f . O.=X~.H . .           ",
"                      . % >.1X=X~.c.) > T G.T.L.G.G.G.8.a : * . O.=X~.H . .           ",
"                        % [ T.~.~.G.>.d O.G.~.'.'.'.'.N.) h 8 . K G.z.C .             ",
"                          f C @.N.T.N.r.c.T.'.@X;X;X;X@X~.c.R . 8 V N                 ",
"                            . f r.J.T.~.~.~.'.=X8X8X8X8X8X+X>.. . . .                 ",
"                              p E %.a.~.~.~.'.=X8X8X8X8X8X+X>.. . .                   ",
"                                % 8 @.~.~.~.'.=X8X8X8X8X8X+X>.. .                     ",
"                              e b T w.~.`. X@X;X8X8X8X$XL.k.) .                       ",
"                            . f w.S.L.~. X;X1X5X8X8X8XT.K e 8                         ",
"                            . l k.~.`.'.@X5X8X8X8X8X8XG.d .                           ",
"                            . l k.`. X$X;X5X8X8X8X8X8XG.d .                           ",
"                            % l k.`.$X8X8X8X8X8X8X8X8XJ.f %                           ",
"                          l R >.S.`.$X8X8X8X8X8X8X8X8X Xw.O.H                         ",
"                      . % E G.T.~.`.$X8X8X8X8X8X8X8X8X5X1X X%.. .                     ",
"                      . % E L.~.~.~.T.L.L.L.L.L.L.L.L.'.;X+X>.. .                     ",
"                      . % E L.~.~.G.2.l l l l l l l l >.+X+X>.. .                     ",
"                      2 8 ) N.S.S.k.E . . . . . . . . H T.~.} . .                     ",
"              . . . q T O.[ ) ) ) E l                 l %.O.f . .                     ",
"            . . . . r 2.T.%.- @ @ .                     . @ . . .                     ",
"            h H H H R O.2.T * . . .                     . . . .                       ",
"        . > ] S.G.G.a.T > >                                                           ",
"        . > E a.f.f.6.V .                                                             ",
"            a l N N l i                                                               ",
"              . . . .                                                                 ",
"              . . .                                                                   ",
"                                                                                      ",
"                                                                                      ",
"                                                                                      ",
"                                                                                      ",
"                                                                                      "
};
