/* XPM */
static char *_d866f408c7548e5c21abdd2789b1482tRKG9yhEH2eCuuZQ[] = {
/* columns rows colors chars-per-pixel */
"50 36 186 2 ",
"   c None",
".  c #2E2E2D",
"X  c #2F2F2D",
"o  c gray18",
"O  c #2F2F2E",
"+  c #30302F",
"@  c #313130",
"#  c #323231",
"$  c #333332",
"%  c #343433",
"&  c #353535",
"*  c #363635",
"=  c #373736",
"-  c #383836",
";  c #383837",
":  c #393938",
">  c #3A3A3A",
",  c #3B3B3A",
"<  c gray23",
"1  c #3C3C3B",
"2  c #3D3D3B",
"3  c #3C3C3C",
"4  c #3D3D3C",
"5  c #3E3E3D",
"6  c #3F3F3E",
"7  c #40403F",
"8  c #424241",
"9  c #434342",
"0  c #444443",
"q  c #444444",
"w  c #454544",
"e  c #464644",
"r  c #464645",
"t  c #474746",
"y  c #484847",
"u  c #494948",
"i  c #4A4A49",
"p  c gray29",
"a  c #4B4B4A",
"s  c #4B4B4B",
"d  c #4C4C4B",
"f  c #4C4C4C",
"g  c #4D4D4C",
"h  c #4E4E4D",
"j  c #4F4F4E",
"k  c #505050",
"l  c #525251",
"z  c #535353",
"x  c #545453",
"c  c #565654",
"v  c #565656",
"b  c #585857",
"n  c #585858",
"m  c #595958",
"M  c gray35",
"N  c #5A5A59",
"B  c #5A5A5A",
"V  c #5B5B5A",
"C  c #5B5B5B",
"Z  c #5C5C5B",
"A  c #5D5D5C",
"S  c #5F5F5E",
"D  c #606060",
"F  c #616160",
"G  c gray38",
"H  c #626262",
"J  c #636362",
"K  c gray39",
"L  c #646463",
"P  c #646464",
"I  c #656564",
"U  c #666665",
"Y  c #676767",
"T  c #686867",
"R  c #696968",
"E  c #6A6A69",
"W  c #6B6B6A",
"Q  c gray42",
"!  c #6C6C6B",
"~  c #6D6D6C",
"^  c gray43",
"/  c #6F6F6E",
"(  c #6F6F6F",
")  c #70706F",
"_  c gray44",
"`  c #727272",
"'  c #747473",
"]  c #747474",
"[  c gray46",
"{  c #767675",
"}  c #777776",
"|  c #797977",
" . c #797978",
".. c #7A7A79",
"X. c #7B7B7A",
"o. c #7C7C7B",
"O. c #7C7C7C",
"+. c #7D7D7C",
"@. c gray49",
"#. c #7E7E7D",
"$. c #7E7E7E",
"%. c gray50",
"&. c #80807F",
"*. c #808080",
"=. c #818181",
"-. c #828281",
";. c gray51",
":. c #838383",
">. c #848483",
",. c #868685",
"<. c #878786",
"1. c #888887",
"2. c #888888",
"3. c gray54",
"4. c #8B8B8B",
"5. c #8C8C8B",
"6. c gray55",
"7. c #8E8E8E",
"8. c #8F8F8E",
"9. c gray56",
"0. c #919190",
"q. c #929291",
"w. c #929292",
"e. c #939392",
"r. c #939393",
"t. c #949493",
"y. c gray58",
"u. c #959595",
"i. c gray59",
"p. c #989897",
"a. c #9B9B9A",
"s. c #9B9B9B",
"d. c gray61",
"f. c #9D9D9C",
"g. c #9D9D9D",
"h. c gray62",
"j. c #9F9F9F",
"k. c #A0A0A0",
"l. c #A2A2A2",
"z. c gray64",
"x. c #A8A8A7",
"c. c gray66",
"v. c #AAAAA9",
"b. c #AAAAAA",
"n. c gray67",
"m. c #ACACAC",
"M. c #ADADAC",
"N. c #AEAEAE",
"B. c #AFAFAF",
"V. c gray69",
"C. c #B1B1B1",
"Z. c #B2B2B2",
"A. c gray70",
"S. c gray71",
"D. c #B6B6B6",
"F. c #B9B9B8",
"G. c gray73",
"H. c #BCBCBC",
"J. c gray74",
"K. c #C0C0C0",
"L. c #C1C1C1",
"P. c gray76",
"I. c gray77",
"U. c #C6C6C6",
"Y. c gray78",
"T. c #C8C8C8",
"R. c #CBCBCA",
"E. c #CBCBCB",
"W. c gray80",
"Q. c #CDCDCD",
"!. c #CECECE",
"~. c gray81",
"^. c #D0D0D0",
"/. c #D2D2D2",
"(. c #D5D5D5",
"). c gray84",
"_. c #D7D7D6",
"`. c #D7D7D7",
"'. c #D8D8D8",
"]. c gray85",
"[. c #DADADA",
"{. c gray86",
"}. c gainsboro",
"|. c #DDDDDD",
" X c #DFDFDF",
".X c gray88",
/* pixels */
"                                                                                                    ",
"                                                                                                    ",
"                                                                                                    ",
"                                                                                                    ",
"                                                                                                    ",
"                                                                                                    ",
"                                                                                                    ",
"                                                  X X X                       X X X                 ",
"                                                X X X X X X                 X X X X X X             ",
"                                                X X , u f u                 f f 8 % X X             ",
"                                                X X f ( o.U 2 X X X X X X z _ +.G 2 X X             ",
"                                                X X S p.b...5 X X X X X X N 9.N.+.t X X             ",
"                                              X X X U z.H.d.' E E E E E E ,.b.H.3.t X X             ",
"                                      X X X X X X X E Z./.U.D.Z.Z.Z.Z.Z.Z.H.T.~.0.u X X             ",
"                                    - - , , , * $ X E Z.).).).).[. X X[.).).).~.0.u X X             ",
"                                    G } ......L u X x &.i.i.i.d.Z.~.P.N.i.i.i.0.( 7 X X             ",
"                          X X X X 0 +.H.T.T.T.d.U X - 8 t t t N ;.D.d.} y t t t 5 $ X X             ",
"                          t y y y N 0.)..X.X.XN.( X - 8 y y y N >.D.d.} y y y t 5 $ X X             ",
"                        N | 1.1.1.0.Z.[..X.X.XN.( X f } 1.1.1.0.b.T.F.z.1.1.1.>.L 5 X X             ",
"                    X X U b.).).).[.[. X.X.X.XN.( X E Z.).).).[.[. X X[.).).)./.t.u X X             ",
"                    X X N 0.F.T.[..X.X.X.X.X.XN.( X G a.F.F.F.F.F.F.P.T.).~.P.Z.;.t X X             ",
"          X X X X X X X t L +.z.~..X.X.X.X.X.XN.( X u E ............5.x.U.N.9.} N , X X             ",
"          X X X X X X X X + - } U..X.X.X.X.X.XN.( X + + $ $ $ $ $ $ z ;.D.3.c + + X X X             ",
"        c G U U U U U U G Z N ..d.Z.U. X).P.b.0.} b S G U U U U U U ( +.9.&._ U U U G N             ",
"    X , ) d.b.b.b.b.b.b.z.i.3.+.! } z.).U.a.T _ +.5.i.z.b.b.b.b.b.b.i...N _ 0.b.b.b.d..., X         ",
"    X 5 ..T.[.[.[.[.[.[.~.H.N.+.0 0 ;.~.F...$ z ;.Z.P./.[.[.[.[.[.[.Z.' + U b.[.[.[.U.3., X         ",
"    X - S 9.a.a.a.a.a.a.0.3.+.G 2 2 G 0.,.S $ t G ;.3.i.a.a.a.a.a.a.;.N X z +.a.a.a.9.U * X         ",
"    X $ 5 u f f f f f f u y t 5 $ $ 5 u y 5 + * 5 t u d f f f f f f t , X , t f f f u 5 $ X         ",
"    X X X X X X X X X X X X X X X X X X X X X X X X X X X X X X X X X X X X X X X X X X X X         ",
"      X X X X X X X X X X X X X X X X X X X X X X X X X X X X X X X X X X X X X X X X X X           ",
"                                                                                                    ",
"                                                                                                    ",
"                                                                                                    ",
"                                                                                                    ",
"                                                                                                    ",
"                                                                                                    "
};
