/* XPM */
static char *_a982fe30d794a689dc207f651cf6169UOEFssnEb0N3R0e5[] = {
/* columns rows colors chars-per-pixel */
"50 34 156 2 ",
"   c None",
".  c #2E2E2D",
"X  c #2F2F2D",
"o  c gray18",
"O  c #2F2F2E",
"+  c #30302F",
"@  c #313130",
"#  c #323231",
"$  c #333332",
"%  c #343432",
"&  c #343433",
"*  c #353534",
"=  c #363635",
"-  c gray21",
";  c #373736",
":  c #383837",
">  c gray22",
",  c #393938",
"<  c #3A3A39",
"1  c #3B3B3A",
"2  c #3C3C3B",
"3  c #3D3D3C",
"4  c #3E3E3D",
"5  c #3F3F3E",
"6  c #3F3F3F",
"7  c #40403E",
"8  c #414140",
"9  c #424241",
"0  c #444443",
"q  c #444444",
"w  c #464645",
"e  c #474746",
"r  c gray28",
"t  c #484847",
"y  c #484848",
"u  c #494948",
"i  c #4B4B4A",
"p  c #4D4D4C",
"a  c #4E4E4C",
"s  c #4F4F4E",
"d  c #525251",
"f  c gray32",
"g  c #535353",
"h  c #555554",
"j  c #575756",
"k  c #595958",
"l  c #5D5D5D",
"z  c #5F5F5E",
"x  c #5F5F5F",
"c  c #606060",
"v  c #616160",
"b  c gray38",
"n  c #636362",
"m  c #646463",
"M  c #646464",
"N  c #666665",
"B  c #6A6A69",
"V  c #6C6C6B",
"C  c #6D6D6C",
"Z  c #6E6E6D",
"A  c gray43",
"S  c #6F6F6E",
"D  c #6F6F6F",
"F  c #717171",
"G  c #727272",
"H  c #737372",
"J  c #767676",
"K  c #787877",
"L  c gray47",
"P  c #797978",
"I  c #797979",
"U  c gray48",
"Y  c #7D7D7C",
"T  c #7E7E7D",
"R  c #7F7F7E",
"E  c #808080",
"W  c #818180",
"Q  c #818181",
"!  c gray51",
"~  c #848483",
"^  c #848484",
"/  c #858584",
"(  c gray52",
")  c #868685",
"_  c #868686",
"`  c gray53",
"'  c #8A8A89",
"]  c gray55",
"[  c #8D8D8C",
"{  c #8F8F8E",
"}  c gray56",
"|  c #929292",
" . c #949493",
".. c gray58",
"X. c #959595",
"o. c gray59",
"O. c #979797",
"+. c #989897",
"@. c #989898",
"#. c gray60",
"$. c #9B9B9A",
"%. c #9B9B9B",
"&. c #9D9D9D",
"*. c #9E9E9D",
"=. c gray62",
"-. c #9F9F9E",
";. c gray64",
":. c #A4A4A4",
">. c #A5A5A5",
",. c gray65",
"<. c #A7A7A7",
"1. c gray66",
"2. c #A9A9A8",
"3. c #A9A9A9",
"4. c gray67",
"5. c gray68",
"6. c #AEAEAE",
"7. c #AFAFAF",
"8. c gray69",
"9. c #B1B1B1",
"0. c gray70",
"q. c #B4B4B3",
"w. c #B4B4B4",
"e. c gray71",
"r. c #B6B6B6",
"t. c #B7B7B7",
"y. c gray72",
"u. c #B9B9B9",
"i. c gray73",
"p. c gray74",
"a. c gray",
"s. c gray75",
"d. c #C1C1C1",
"f. c gray76",
"g. c #C3C3C3",
"h. c gray77",
"j. c #C6C6C6",
"k. c gray78",
"l. c #C8C8C8",
"z. c gray79",
"x. c #CACACA",
"c. c #CBCBCB",
"v. c #CDCDCD",
"b. c #D0D0D0",
"n. c gray82",
"m. c #D2D2D2",
"M. c LightGray",
"N. c #D4D4D3",
"B. c #D5D5D5",
"V. c gray84",
"C. c #D8D8D8",
"Z. c gray85",
"A. c #DADADA",
"S. c gainsboro",
"D. c #DDDDDD",
"F. c gray88",
/* pixels */
"                                                                                                    ",
"                                                                                                    ",
"                                                                                                    ",
"                                                                                                    ",
"                                        o o o o               o o o o o                             ",
"                                        o = 0 u w             w u 2 o o                             ",
"                                        o w P _ v o o o o o t P _ l o o                             ",
"                                        o s o.<.H 5 5 5 5 5 j o.7.H + o                             ",
"                                        o s o.9.=.[ [ [ [ [ #.u.p.P + o                             ",
"                                        o s o.u.v.F.F.F.F.F.F.F.b.~ + o                             ",
"                                        o s o.9.<.o.o.o.2.k.g.<.[ v o o                             ",
"                                        o s o.<.S : : : v <.=.l = # o o                             ",
"                                        o s o.2._ v v v Q e.7.R l t o o                             ",
"                                        o s o.e.p.k.k.k.c.V.V.c.u.J + o                             ",
"                                        o s o.u.c.C.C.C.C.C.C.C.c.Q + o                             ",
"                                        o s o.e.p.g.g.g.g.g.g.g.e.J + o                             ",
"                                        = j +.e.e.u.u.u.e.7.7.7.;.V o o                             ",
"                                      f S Q <.u.g.c.c.c.7.R H H S s o o                             ",
"                                    o l 2.e.e.u.v.F.F.F.<.w + + + + o o                             ",
"                                    o l 2.e.e.u.v.F.g.=.' B N S H H H m                             ",
"                                    o l 2.e.e.u.v.F.+.9 l =.q.c.N.N.N.o.1 o                         ",
"                                    o l 2.u.p.k.b.F.| = s _ #.2.9.9.9._ 1 o                         ",
"                                    o l 2.p.b.C.D.F.| = = w u s f f f s                             ",
"                                  7 9 V 2.p.V.D.b.k.[ s 9 # o o o o o o                             ",
"                      o o o o o % v Q o.9.p.V.b.;.H _ #.P 5 o o                                     ",
"                      # # # # + % S 9.e.e.p.V.c.R o R C.<.w o                                       ",
"                    f V S S m w % S 9.e.e.p.V.c.R o R C.<.w o                                       ",
"                o o N 2.9.9.=.l % S 9.e.e.p.V.c.R o R C.<.w o                                       ",
"                o o f Q _ _ K s # k _ _ _ [ #. .v o v =.R 5 o                                       ",
"                o o % 1 2 2 1 % + = 2 2 2 5 5 5 = o = 5 1 # o                                       ",
"                  o o o o o o o o o o o o o o o o o o o o o o                                       ",
"                                                                                                    ",
"                                                                                                    ",
"                                                                                                    "
};
