/* XPM */
static char *_c8dfc874b3b49c4ef904b0381079842jJMGzcEGkZPd9K78[] = {
/* columns rows colors chars-per-pixel */
"45 50 161 2 ",
"   c None",
".  c #2E2E2D",
"X  c #2F2F2D",
"o  c gray18",
"O  c #2F2F2E",
"+  c #2F2F2F",
"@  c #30302F",
"#  c #313130",
"$  c #313131",
"%  c #323231",
"&  c #373736",
"*  c #3B3B3A",
"=  c #3E3E3D",
"-  c #3F3F3E",
";  c #40403F",
":  c #414140",
">  c #424241",
",  c #444443",
"<  c #464644",
"1  c #474746",
"2  c #484847",
"3  c #4B4B4A",
"4  c #4C4C4B",
"5  c #4C4C4C",
"6  c #4D4D4C",
"7  c #4F4F4E",
"8  c #50504F",
"9  c #515151",
"0  c #525251",
"q  c gray32",
"w  c #535352",
"e  c gray33",
"r  c #555554",
"t  c #565654",
"y  c #575755",
"u  c #565656",
"i  c #575756",
"p  c #585857",
"a  c #595957",
"s  c #585858",
"d  c #5A5A58",
"f  c #5A5A5A",
"g  c #5C5C5A",
"h  c #5C5C5B",
"j  c #5D5D5C",
"k  c #5F5F5F",
"l  c #60605F",
"z  c #626262",
"x  c #636362",
"c  c #646463",
"v  c #676766",
"b  c #676767",
"n  c #686867",
"m  c #6A6A69",
"M  c #6B6B6A",
"N  c gray42",
"B  c #6C6C6C",
"V  c #6D6D6D",
"C  c #6E6E6D",
"Z  c #6F6F6E",
"A  c #71716F",
"S  c gray44",
"D  c #717170",
"F  c #717171",
"G  c #737372",
"H  c gray45",
"J  c #757574",
"K  c gray46",
"L  c #767675",
"P  c #777776",
"I  c #797979",
"U  c gray48",
"Y  c #7B7B7A",
"T  c #7C7C7B",
"R  c #7D7D7C",
"E  c gray49",
"W  c #7E7E7D",
"Q  c #808080",
"!  c gray51",
"~  c #838382",
"^  c #838383",
"/  c #858584",
"(  c #868685",
")  c #868686",
"_  c gray53",
"`  c #888888",
"'  c #898989",
"]  c gray54",
"[  c #8B8B8A",
"{  c #8D8D8C",
"}  c #8E8E8D",
"|  c #8E8E8E",
" . c gray56",
".. c #929292",
"X. c #939393",
"o. c #959594",
"O. c #979797",
"+. c #989898",
"@. c #9B9B9B",
"#. c gray61",
"$. c gray62",
"%. c #A0A0A0",
"&. c gray63",
"*. c #A2A2A1",
"=. c #A2A2A2",
"-. c #A4A4A3",
";. c #A5A5A4",
":. c gray65",
">. c #A7A7A6",
",. c #A7A7A7",
"<. c #A9A9A9",
"1. c gray67",
"2. c #ACACAB",
"3. c #ACACAC",
"4. c #ADADAC",
"5. c gray68",
"6. c #AEAEAE",
"7. c #AFAFAF",
"8. c #B1B1B0",
"9. c #B3B3B2",
"0. c gray70",
"q. c #B5B5B4",
"w. c gray71",
"e. c #B6B6B5",
"r. c #B6B6B6",
"t. c #B7B7B6",
"y. c #B7B7B7",
"u. c gray72",
"i. c gray73",
"p. c #BCBCBC",
"a. c #BDBDBC",
"s. c gray",
"d. c gray75",
"f. c #C0C0C0",
"g. c #C1C1C1",
"h. c gray76",
"j. c #C3C3C3",
"k. c gray77",
"l. c #C5C5C5",
"z. c #C6C6C6",
"x. c #C8C8C8",
"c. c gray79",
"v. c #CACACA",
"b. c #CBCBCB",
"n. c gray80",
"m. c #CDCDCD",
"M. c #CECECE",
"N. c gray81",
"B. c #D2D2D1",
"V. c #D2D2D2",
"C. c gray83",
"Z. c gray84",
"A. c #D7D7D7",
"S. c #D8D8D8",
"D. c #DADADA",
"F. c gray86",
"G. c gainsboro",
"H. c #DDDDDD",
"J. c gray87",
"K. c #DFDFDF",
"L. c gray88",
/* pixels */
"                                                                                          ",
"                                                                                          ",
"                                                                                          ",
"                                                                                          ",
"                                                                                          ",
"                                                                                          ",
"                                                                                          ",
"                                                                                          ",
"                                                                                          ",
"                                                                                          ",
"                                                                                          ",
"                                                                                          ",
"                                                                                          ",
"                                                                                          ",
"                                                  X X X X X       X X X +                 ",
"                                                  7 u 1 $ X     X + X + X                 ",
"                                              + : S #.S & X X X X X X @ X                 ",
"                                              X : I w.' 9 1 2 2 2 3 = $ X                 ",
"              X X +                           + : I w.,.o...........V * +                 ",
"            X X + X X                         X : I w.z.H.L.L.L.L.L.&., X                 ",
"            c K K K V 9                       + : I w.z.H.N.3.#.w.n.1.S k 5               ",
"        X : ` V.V.V.7.c X                     X : I w.z.H.u.b 3 U u.0.5.X.f X             ",
"        u c [ w.w.w.&.K s 9                   + : I w.z.H.p.E z { p.f.f.=.k X +           ",
"    X s +.>./ l l z S O.1.I $                 X : I w.x.H.C.p.9.j.C.C.C.0.b X X           ",
"    X s 5.f.E X + X u 3.C._ $ @               X : I w.z.F.H.H.H.H.H.H.H.u.B X X           ",
"    X 1 H ^ b + X X u 3.C.' $ X X X X X X X + X : I w.p.x.n.n.x.x.n.n.n.2.c X X           ",
"    X + $ $       X u 1.C.' $ + X X X X X X X X : I w.w.w.w.w.u.w.w.w.u.@.h @ X           ",
"    X X X X       X 9 ' %._ V N N N N N N N V V P #.z.j.z.z.j.z.z.z.5.{ I u X             ",
"                      1 7 ) z.x.x.x.x.x.x.x.x.x.x.V.F.F.F.F.F.F.F.F.&.9 :                 ",
"                      X * ) G.L.L.L.L.L.L.L.L.L.L.L.H.L.H.L.L.H.L.L.&., X                 ",
"                      X * ) H.L.L.L.L.L.L.L.L.L.L.L.L.L.L.L.L.L.L.L.&.: X                 ",
"                      $ = _ H.L.L.L.L.L.L.L.L.L.L.L.L.L.L.L.L.H.L.L.&.3 $                 ",
"                    4 A ^ 5.H.L.L.L.L.L.L.L.L.L.L.L.L.L.L.H.V.n.n.n.9.) K s               ",
"                  X u >.S.G.L.L.L.L.L.L.L.L.L.L.L.L.L.L.L.C.j.w.u.u.j.C.w.m @ X           ",
"                  X u 3.H.x.7.5.5.7.3.7.5.5.5.5.5.5.5.j.H.n.>.{  . .3.C.p.N X o           ",
"                  X u 3.C.#.p u e u e e u u u e u e u { S.p.S 5 7 3 Q V.p.m X +           ",
"                  + 9 #.j.^ $ X o X X X + X X X X X X V f.,.j X X X B u.5.c X X           ",
"                  X : b E m   X o + X o X       X X + 7 U H 9       h I A 4 X +           ",
"                  X X + + X     + X X + +         X X + + +           X @ X X X           ",
"                  + + X X       X X + X             X X +             X X X X             ",
"                                                                                          ",
"                                                                                          ",
"                                                                                          ",
"                                                                                          ",
"                                                                                          ",
"                                                                                          ",
"                                                                                          ",
"                                                                                          ",
"                                                                                          ",
"                                                                                          "
};
