/* XPM */
static char *_6db8006c55345099fc9ce75084ebc16HqqYPLKyjwXbVcwZ[] = {
/* columns rows colors chars-per-pixel */
"50 50 219 2 ",
"   c None",
".  c #000708",
"X  c #00061C",
"o  c #001506",
"O  c #000022",
"+  c #00002A",
"@  c #00192B",
"#  c #001721",
"$  c #000635",
"%  c #001932",
"&  c #01133B",
"*  c #001939",
"=  c #051737",
"-  c #0D213A",
";  c #10203F",
":  c #0A1943",
">  c #081644",
",  c #171C43",
"<  c #1E1E46",
"1  c #1E185C",
"2  c #2B1C50",
"3  c #182444",
"4  c #2F214F",
"5  c #31244F",
"6  c #30374F",
"7  c #221862",
"8  c #29186B",
"9  c #29176A",
"0  c #2E1674",
"q  c #2D1873",
"w  c #32177A",
"e  c #200E75",
"r  c #2D206C",
"t  c #462D5C",
"y  c #561F74",
"u  c #5B366C",
"i  c #63267E",
"p  c #683D77",
"a  c #683B78",
"s  c #3D4356",
"d  c #454A5C",
"f  c #4E535F",
"g  c #555968",
"h  c #6F407C",
"j  c #5D616E",
"k  c #656974",
"l  c #71747E",
"z  c #6D707A",
"x  c #351783",
"c  c #391785",
"v  c #3C168C",
"b  c #31008B",
"n  c #421696",
"m  c #45149B",
"M  c #421F90",
"N  c #420D93",
"B  c #671A87",
"V  c #4B01AD",
"C  c #4915A1",
"Z  c #4F14AB",
"A  c #5501BD",
"S  c #5513B6",
"D  c #4D00B3",
"F  c #5936AA",
"G  c #5329A9",
"H  c #794684",
"J  c #787B84",
"K  c #696A80",
"L  c #5B13C2",
"P  c #5F12C9",
"I  c #5609C0",
"U  c #6609D8",
"Y  c #6510D4",
"T  c #6213CD",
"R  c #6C0EE2",
"E  c #6B00E4",
"W  c #730CEE",
"Q  c #7005EB",
"!  c #7615E6",
"~  c #780BF7",
"^  c #790AF9",
"/  c #7605F6",
"(  c #7B2FF1",
")  c #7051C1",
"_  c #7B62C3",
"`  c #80289D",
"'  c #9119BD",
"]  c #933CA9",
"[  c #992DB7",
"{  c #9632B7",
"}  c #8A29A8",
"|  c #915299",
" . c #884D92",
".. c #9B4AAB",
"X. c #9A56AA",
"o. c #9F46B4",
"O. c #A45CAB",
"+. c #A85FAF",
"@. c #AA52BA",
"#. c #AC61B3",
"$. c #B264B8",
"%. c #B164B7",
"&. c #A634C9",
"*. c #8706F9",
"=. c #8717F7",
"-. c #9B12F4",
";. c #A812FA",
":. c #B81EF9",
">. c #9629F8",
",. c #8B38F6",
"<. c #AA2AF8",
"1. c #B738F9",
"2. c #B227F4",
"3. c #C837FA",
"4. c #D637FB",
"5. c #C82AFA",
"6. c #BC45D8",
"7. c #BE60CB",
"8. c #8547F7",
"9. c #8551ED",
"0. c #A747F8",
"q. c #A856F9",
"w. c #B354F7",
"e. c #BE59F7",
"r. c #AD49EF",
"t. c #9774F2",
"y. c #C36EC8",
"u. c #D169DE",
"i. c #D678DA",
"p. c #D879DC",
"a. c #D277D6",
"s. c #CC73D0",
"d. c #D355ED",
"f. c #CF4AF7",
"g. c #DC4EFA",
"h. c #D646FB",
"j. c #DC55F7",
"k. c #CB66F8",
"l. c #D66AF9",
"z. c #D872F8",
"x. c #D470EE",
"c. c #E17EE5",
"v. c #E369F6",
"b. c #E56BF9",
"n. c #E566F9",
"m. c #ED7DF5",
"M. c #EB74F8",
"N. c #EF7CF9",
"B. c #E577F5",
"V. c #F17EFA",
"C. c #8A8D94",
"Z. c #848692",
"A. c #909399",
"S. c #9A9DA2",
"D. c #938FB0",
"F. c #9EA1A5",
"G. c #A2A5A9",
"H. c #A3A7AA",
"J. c #A9AAB3",
"K. c #B4B6B9",
"L. c #B4B7B9",
"P. c #ADB0B4",
"I. c #BCBEC1",
"U. c #9C84E3",
"Y. c #AA89FA",
"T. c #AC93F6",
"R. c #B49EFA",
"E. c #B799F7",
"W. c #B9A5FB",
"Q. c #D09CFB",
"!. c #E681E9",
"~. c #EA83EC",
"^. c #ED85F2",
"/. c #EA8BF8",
"(. c #F286F6",
"). c #F489F6",
"_. c #F283F8",
"`. c #F68AF8",
"'. c #E396FC",
"]. c #F594F7",
"[. c #F59CF7",
"{. c #DEA1FC",
"}. c #E7A3FC",
"|. c #F5A9F8",
" X c #F5A7F7",
".X c #F8BDFA",
"XX c #F6B9F9",
"oX c #BFC1C4",
"OX c #C7CACB",
"+X c #CFD1D3",
"@X c #DBDDDE",
"#X c #D4D6D9",
"$X c #D0C9D4",
"%X c #DDDFE0",
"&X c #D3CAFA",
"*X c #D9D2FA",
"=X c #CEC2FC",
"-X c #F4C5F8",
";X c #E6D7FD",
":X c #F2D6FE",
">X c #F4DBFD",
",X c #F9DAFB",
"<X c #FAD3FA",
"1X c #ECC3FC",
"2X c #DEE0E1",
"3X c #E2E4E5",
"4X c #EBEDEE",
"5X c #E6E8E9",
"6X c #E8E5FC",
"7X c #F3EEF5",
"8X c #FAE2FC",
"9X c #F9ECFD",
"0X c #F7E7FD",
"qX c #F4F6F6",
"wX c #F4F3FD",
"eX c #F9F4FD",
"rX c #F7F8FC",
"tX c #FCFEFE",
"yX c #EFF1F1",
/* pixels */
"                                                                                                    ",
"                                                                                                    ",
"                                                                                                    ",
"                                                                                                    ",
"                                                                                                    ",
"                                                                                                    ",
"                                $ $                   % %                                           ",
"                              H | |  .              c n m v                                         ",
"                            t +.c.~.y.p           7 S R W L 7                                       ",
"                          p %.p.).`.!.y. .      w S U ~ ^ P 1                                       ",
"                        X h p.`.).).).^.$.H   o x R ^ ~ ~ Y n q                                     ",
"                          h i.).).).).).~.s.a & M R ^ ~ ~ W U m *                                   ",
"                          p +.a.(.).).(.N.d.&.[ &.2.>.~ / ^ W m @                                   ",
"                            5 O.m.).).(.b.j.j.j.g.h.1.>.=.=.W S 0                                   ",
"                            : ] j.N.).)._.N.N.N.M.g.4.3.3.<.=.R L 8                                 ",
"                          y } 6.v._.).).).).).)._.b.g.4.4.5.;.*.Y 8                                 ",
"                          i 6.v.(.).).).).`.[.[.[.[./.z.z.z.l.0.U c                                 ",
"                        . a u._.).).).).). X,X8X8X8X>X>X>X>X;XY.Q U C :                             ",
"                        B o.c.).).).).).|.<XtXtXtXtXtXtXtXtXrX&XY.,.V *                             ",
"                      2 { d.m.).).).).[.,XeXqXqXqXqXrXtXtXtXtXqX&X9.V 7                             ",
"                      4 @.M._.).).).|.,XeX4XL.G.G.H.#XtXtXtXrXOXD.F A S w                           ",
"                      5 $.(.).).).)..XeX4XoXj k C.A.L.2XqXqX#XZ.f Z._ L q @                         ",
"                      5 $.(.).).).)..X7XL.g d K.4X4XI.A.3X#XJ 6 C.@XJ.r > *                         ",
"                      5 $.(.).).).)..X7XH.+ 6 OXtXtXoXl @X+Xd O S.4XL.- &                           ",
"                      5 $.(.).).).)..X7XH.$ 6 P.3X3XJ.l @X+Xf + C.#XF.; &                           ",
"                      5 %.(.).).).)..X7XH.3 3 g J J g l @X+Xg $ d l g : >                           ",
"                      4 @.M._.).).).|.-X$XS.s X X O J I.4X5XK.k O $ b C 7 %                         ",
"                      2 [ d.m.).).).).[.,X%XC.k k z I.qXtXtXyXP.k K ) T w                           ",
"                        B ..c.).).).).].,XqX3X@X@X%X4XtXtXtXrX5X@X#XD.M                             ",
"                        . a u.V.).).).].-X,X:X9XtXtXtXtXtXtXtXtXwX*XD.-                             ",
"                          i 6.v.(.).).).]./.B.1XeXeXeXeXwXwXwXwX*Xt.G :                             ",
"                            ` 7.^.).).).)._.M./.}.}.}.{.Q.R.R.R.U.F b                               ",
"                            * O.^.).).).).).).M.b.'.'.{.E.t.( E A 9                                 ",
"                            t #.^.).).).(.(.).). X8XeXwXwX=X8.D 0                                   ",
"                          p $.p.).).).(.l.k./.XX8XtXtXtXtX*X8.U S 8                                 ",
"                          p i.`.).).).^.w.0./.<XtXtXtXtXtX;XY.8.Y 8                                 ",
"                        & H p.`.).).).^.w.0./.<XtXtXtXtXtXrX6XT.U 0                                 ",
"                        | y.!.).).).B.k.r.k.-X9XtXtXtXtXtXtXwXW.E L n                               ",
"                      5 %.^.).).).).z.,.:.'.9XtXtXtXtXtXtXtXwXR./ W Z :                             ",
"                      5 $.).).).).).z.>.:.'.9XtXtXtXtXtXtXtXwXR./ W Z :                             ",
"                      5 $.).).).(.z.e.1.f.}.eXtXtXtXtXtXtXtXwXR./ W Z :                             ",
"                      5 #.!.^.^.B.w.<.h.b.|.9XtXtXtXtXtXtXrX6XT.Q R Z :                             ",
"                        H X.r.q.0.1.3.h.M.].XX8XtXtXtXtXtX;XE.) m n c                               ",
"                          e I ! <.3.g.n.m.).`.XX:X:X:X:X;XW.( N @ %                                 ",
"                            9 { f.h.n._.).).^.B.l.l.l.k.q.8.! m *                                   ",
"                            = ..B.M.m.).).c.#.] ' -.;.-.*./ W C *                                   ",
"                            , O.^.).).).).i.a X x R ^ ~ ~ W Y n *                                   ",
"                            , O.^.).).).).a.a X x R ^ ~ ~ Y c                                       ",
"                            , O.^.).).(.s.O.u # c R ^ ~ ~ P 1                                       ",
"                            , O.^.).`.~.X.<   # c R ^ ~ ~ P 7                                       "
};
