/* XPM */
static char *_21dec6298b64889ec0cb20e80e06ae4yABnVq0GLAM5q47c[] = {
/* columns rows colors chars-per-pixel */
"50 46 212 2 ",
"   c None",
".  c #2B3329",
"X  c #2B332A",
"o  c #2C3329",
"O  c #2C332A",
"+  c #2D332A",
"@  c #2B3429",
"#  c #2B342A",
"$  c #2C3429",
"%  c #2C342A",
"&  c #2D342A",
"*  c #2C352A",
"=  c #2D352A",
"-  c #2C342B",
";  c #2D342B",
":  c #2D352B",
">  c #2D362B",
",  c #2D352C",
"<  c #2E352C",
"1  c #2E352D",
"2  c #2D362C",
"3  c #2E362C",
"4  c #2E362D",
"5  c #2F362D",
"6  c #2F372D",
"7  c #2F362E",
"8  c #30362C",
"9  c #30372D",
"0  c #31372D",
"q  c #30372E",
"w  c #31372E",
"e  c #34352C",
"r  c #3C342B",
"t  c #38352C",
"y  c #3D362E",
"u  c #30382E",
"i  c #30382F",
"p  c #31382F",
"a  c #32382F",
"s  c #313830",
"d  c #313930",
"f  c #323830",
"g  c #323930",
"h  c #333930",
"j  c #323931",
"k  c #333931",
"l  c #333A31",
"z  c #333932",
"x  c #333B32",
"c  c #363930",
"v  c #343A32",
"b  c #353A32",
"n  c #343B32",
"m  c #343B33",
"M  c #353B33",
"N  c #373B33",
"B  c #333C32",
"V  c #343C32",
"C  c #353C32",
"Z  c #353C33",
"A  c #353C34",
"S  c #363C34",
"D  c #373C35",
"F  c #363D35",
"G  c #373D35",
"H  c #3D3B33",
"J  c #383D36",
"K  c #383E36",
"L  c #383F36",
"P  c #393E37",
"I  c #393F37",
"U  c #3F3C35",
"Y  c #3A3F38",
"T  c #3D3F38",
"R  c #45332C",
"E  c #43372F",
"W  c #5A352F",
"Q  c #5C342F",
"!  c #4D3731",
"~  c #433931",
"^  c #403A33",
"/  c #463831",
"(  c #403B34",
")  c #423D37",
"_  c #4F3B36",
"`  c #4F3D37",
"'  c #4A3E38",
"]  c #4A3F39",
"[  c #533630",
"{  c #563B36",
"}  c #5A3833",
"|  c #5F3B37",
" . c #583F3B",
".. c #593F3B",
"X. c #5B3F3A",
"o. c #5E3D38",
"O. c #60332E",
"+. c #65332E",
"@. c #76332F",
"#. c #6A3733",
"$. c #613C37",
"%. c #623D39",
"&. c #633D39",
"*. c #643D39",
"=. c #673C39",
"-. c #6D3B38",
";. c #6A3C38",
":. c #743734",
">. c #7F3330",
",. c #783835",
"<. c #793936",
"1. c #7C3836",
"2. c #7E3836",
"3. c #703B38",
"4. c #394037",
"5. c #3A4038",
"6. c #3B4039",
"7. c #3B4139",
"8. c #3A4238",
"9. c #3D4039",
"0. c #3C403A",
"q. c #3C413A",
"w. c #3D413B",
"e. c #3C433A",
"r. c #3D423B",
"t. c #3D443A",
"y. c #3C453B",
"u. c #3E423C",
"i. c #3E433C",
"p. c #3F433D",
"a. c #3F443D",
"s. c #3F463D",
"d. c #41423C",
"f. c #43433E",
"g. c #45423C",
"h. c #44433D",
"j. c #46433D",
"k. c #47433D",
"l. c #40443E",
"z. c #41443E",
"x. c #42443E",
"c. c #40463E",
"v. c #41473F",
"b. c #49423C",
"n. c #48423D",
"m. c #49423D",
"M. c #4A423D",
"N. c #4B423D",
"B. c #4E413C",
"V. c #4F413C",
"C. c #55403B",
"Z. c #424940",
"A. c #434841",
"S. c #434941",
"D. c #444842",
"F. c #454943",
"G. c #444A42",
"H. c #444B42",
"J. c #464A44",
"K. c #454C44",
"L. c #464D44",
"P. c #474E45",
"I. c #484D46",
"U. c #494F47",
"Y. c #4B4F49",
"T. c #485047",
"R. c #4A5048",
"E. c #4D514B",
"W. c #4D534B",
"Q. c #4E544D",
"!. c #4F544D",
"~. c #50544E",
"^. c #50574F",
"/. c #51574F",
"(. c #535751",
"). c #525850",
"_. c #555953",
"`. c #545A52",
"'. c #565A54",
"]. c #565B54",
"[. c #575B55",
"{. c #5A5E58",
"}. c #5B6059",
"|. c #5C615A",
" X c #5D615B",
".X c #5E625C",
"XX c #5F645D",
"oX c #60655E",
"OX c #61655F",
"+X c #61665E",
"@X c #626660",
"#X c #636861",
"$X c #656963",
"%X c #656A63",
"&X c #666A64",
"*X c #676C65",
"=X c #6B6F69",
"-X c #6C706A",
";X c #6D726B",
":X c #70746E",
">X c #71756F",
",X c #737771",
"<X c #747872",
"1X c #757973",
"2X c #767A74",
"3X c #777B75",
"4X c #787C76",
"5X c #803735",
"6X c #8B3230",
"7X c #8F3433",
"8X c #983232",
"9X c #993232",
/* pixels */
"                                                                                                    ",
"                                                                                                    ",
"                                                                                                    ",
"                                                                                                    ",
"                                                                                                    ",
"                                                                                                    ",
"                                                                                                    ",
"                                                                                                    ",
"                                                                                                    ",
"        o o - o - o - .                                                       # - o - o - o o o % o ",
"    . o % . % % - o . - #                                                   # % . - o . . - # # . . ",
"    o . % , % , , , , , ,                                                   % , , , , , , , % % , % ",
"    o . , , j j b b j b j q                                               q j j b j b j a , # % . % ",
"    - . , j b I Y Y 5.G G a # o % o #                           # . o o % j b Y Y Y Y Y b j , % % % ",
"    o . , b 5.l.a.a.a.p.G j % # % # % o                       o . # # # % b Y a.l.l.a.p.Y b , % % % ",
"    o . a 4.A.E.E.E.E.Y.A.5.j a a a q q a                   , q a a a a a G 5.l.l.l.l.p.5.b % % % % ",
"    % @ j a.W.XX.X.X.X[.Q.F.I G Z Z G j a % % % % o % % % q a b G b G G G I p.p.p.l.l.p.Y b % % % % ",
"    o # B P.|.;X;X>X>X-X.X~.r.t.r.r.r.I b % % % % % % % % % j I r.r.r.r.r.p.p.l.l.l.l.p.I b , o % % ",
"    # % Z T.|.>X,X<X4X<X$X[.F.F.F.F.A.r.Z % % % % % q % % q b I p.p.p.p.p.l.l.l.l.p.p.p.I j % o . . ",
"      # p P.^.|.$X-X<X<X-XoX_._._._.(.I.t.6 % a a j b a b j Z G Y 5.5.p.a.l.l.l.p.5.Y G Z j % % % % ",
"          t.A.P./.XX>X2X>X-X$X$X$X$XoX).F., , j b I I I I I G b j G 4.p.l.l.l.l.p.Y G j q q         ",
"            % , l._.;X4X4X4X4X3X3X3X<XoXT.a , B Y p.x.a.l.r.I j # a G r.l.l.l.p.5.D q % %           ",
"            # # t.Q.+X*X*X*X*X*X&X*X$X[.P.a a H ' C.B.n.x.d.) ~ R E U U r.5.r.r.Y b q . %           ",
"                8.P.Q./.).)././.).)./.T.v.I ) { $.-.%. .h.g.` } +.W ! U b G Z Z b j q               ",
"                  G G 4.4.4.4.4.4.4.4.5.r.5.' %.,.7X<.%.h.n.%.:.6X@.W y q , , a , ,                 ",
"                    # # # # # % o % % j G x.N.;.5X9X2.=.n.N.%.2.8X>.O.r % % # # %                   ",
"                    o % % % % % % o % j I p.n.X.-.2.-...h.n...;.1.#.[ t % o o o %                   ",
"                                % o % j G p.n.] ..%...C.h.x.B...=.{ / e % o #                       ",
"                                  # , j I p.p.x.l.h.l.l.x.l.l.l.x.T N q % %                         ",
"                                  . # a G 5.r.p.x.l.l.l.p.l.x.r.r.I b % o %                         ",
"                                    o j b G I Y r.x.l.l.l.p.5.I Z b j ,                             ",
"                                        , , j G r.p.l.l.l.p.Y b q q q                               ",
"                                        # o , b Y p.p.p.p.r.D j o %                                 ",
"                                          . , j G I I I Y G j j o %                                 ",
"                                              a j b j b b b j 7                                     ",
"                                                # , % , , % o                                       ",
"                                                # # . - . -                                         ",
"                                                  % o o o                                           ",
"                                                                                                    ",
"                                                                                                    ",
"                                                                                                    ",
"                                                                                                    ",
"                                                                                                    ",
"                                                                                                    ",
"                                                                                                    ",
"                                                                                                    "
};
