/* XPM */
static char *c434e0679aa941139057041b3997dc777fI2iJTHAyQxgHSe[] = {
/* columns rows colors chars-per-pixel */
"50 50 198 2 ",
"   c None",
".  c #2B3329",
"X  c #2B332A",
"o  c #2C3329",
"O  c #2C332A",
"+  c #2B3429",
"@  c #2B342A",
"#  c #2C3429",
"$  c #2C342A",
"%  c #2D342A",
"&  c #2C342B",
"*  c #2D342B",
"=  c #2C352B",
"-  c #2D352B",
";  c #2D362B",
":  c #2E362B",
">  c #2E352C",
",  c #2D362C",
"<  c #2E362C",
"1  c #2F362C",
"2  c #2E362D",
"3  c #2F362D",
"4  c #2F372D",
"5  c #36332A",
"6  c #33342B",
"7  c #36342B",
"8  c #31352C",
"9  c #30372D",
"0  c #30372E",
"q  c #30372F",
"w  c #39332B",
"e  c #3B362E",
"r  c #30382E",
"t  c #31382E",
"y  c #31382F",
"u  c #32382F",
"i  c #32392F",
"p  c #313830",
"a  c #313930",
"s  c #323830",
"d  c #323930",
"f  c #323831",
"g  c #333931",
"h  c #333A31",
"j  c #343830",
"k  c #343A32",
"l  c #343B32",
"z  c #353B32",
"x  c #343B33",
"c  c #353B33",
"v  c #363B33",
"b  c #353C33",
"n  c #363C34",
"m  c #363C35",
"M  c #373C35",
"N  c #373D35",
"B  c #373E35",
"V  c #3D3B33",
"C  c #3C3B34",
"Z  c #3D3B34",
"A  c #383D36",
"S  c #383E36",
"D  c #393E37",
"F  c #393F37",
"G  c #3A3F37",
"H  c #3A3F38",
"J  c #3A3F39",
"K  c #3E3F39",
"L  c #49332B",
"P  c #4C362F",
"I  c #51332B",
"U  c #53322C",
"Y  c #56322C",
"T  c #54352F",
"R  c #56342E",
"E  c #5B332D",
"W  c #413831",
"Q  c #463D37",
"!  c #4A3B35",
"~  c #4D3B35",
"^  c #4E3B35",
"/  c #433E38",
"(  c #473F39",
")  c #4F3F3A",
"_  c #5F3732",
"`  c #573C37",
"'  c #583B36",
"]  c #5D3A36",
"[  c #573F3B",
"{  c #5B3D39",
"}  c #593F3A",
"|  c #593F3B",
" . c #5A3F3A",
".. c #5B3F3A",
"X. c #5C3E3A",
"o. c #5E3E3A",
"O. c #64322D",
"+. c #72322E",
"@. c #78312E",
"#. c #6D3531",
"$. c #6A3A36",
"%. c #643D39",
"&. c #653D39",
"*. c #6A3B38",
"=. c #6B3B38",
"-. c #6E3B38",
";. c #6F3B38",
":. c #683C39",
">. c #6A3C38",
",. c #703430",
"<. c #733936",
"1. c #713A37",
"2. c #773936",
"3. c #793936",
"4. c #7D3836",
"5. c #3A4038",
"6. c #3A4138",
"7. c #3B4138",
"8. c #3B4039",
"9. c #3B4239",
"0. c #3C403A",
"q. c #3C413A",
"w. c #3D413B",
"e. c #3C423A",
"r. c #3D423B",
"t. c #3C433B",
"y. c #3E423C",
"u. c #3E433C",
"i. c #3F433D",
"p. c #3F443D",
"a. c #3F453D",
"s. c #40433D",
"d. c #43433E",
"f. c #46433D",
"g. c #47433D",
"h. c #40473D",
"j. c #40443E",
"k. c #41443E",
"l. c #42443E",
"z. c #48423D",
"x. c #49423D",
"c. c #4B423C",
"v. c #4D413C",
"b. c #4E413C",
"n. c #4F413C",
"m. c #4C423C",
"M. c #41483E",
"N. c #41483F",
"B. c #52403B",
"V. c #54403B",
"C. c #56403B",
"Z. c #50413C",
"A. c #52403C",
"S. c #424640",
"D. c #434741",
"F. c #414840",
"G. c #434941",
"H. c #424A41",
"J. c #444B42",
"K. c #454B43",
"L. c #444C42",
"P. c #444C43",
"I. c #464C44",
"U. c #474D44",
"Y. c #494F47",
"T. c #4A4F48",
"R. c #4A5048",
"E. c #4B5149",
"W. c #4C534A",
"Q. c #4D534B",
"!. c #4E544C",
"~. c #51564F",
"^. c #535A51",
"/. c #545952",
"(. c #555953",
"). c #565C54",
"_. c #585D56",
"`. c #585E56",
"'. c #5D625B",
"]. c #5D635B",
"[. c #5E635C",
"{. c #5F645D",
"}. c #60645E",
"|. c #626660",
" X c #636761",
".X c #646862",
"XX c #676C65",
"oX c #70756E",
"OX c #71756F",
"+X c #727670",
"@X c #823735",
"#X c #843635",
"$X c #853635",
"%X c #8A3433",
"&X c #8D3433",
"*X c #943130",
"=X c #903433",
"-X c #9B3232",
/* pixels */
"                                                                                                    ",
"                                                                                                    ",
"                                                                                                    ",
"                                                                                                    ",
"                                                                                                    ",
"                                                                                                    ",
"                                              O O O O +                                             ",
"                                            & . & & & & &                                           ",
"                                          & & 3 & & & & & &                                         ",
"                                          9 i h z z z i i i                                         ",
"                                      + 9 h n A A A A A z i 3 O                                     ",
"                                    . . 3 z A r.r.r.a.r.A z 3 O &                                   ",
"                                    3 & z C / c.z.d.d.a.r.Z e w w                                   ",
"                                  i h h V ! ' %. .[ z.k.( ^ T Y U L                                 ",
"                      + . . & . 3 h z A Q ' $.4.-.o.v.k.[ ] #.+.O.U 5 +                             ",
"                    + . + + . + 3 z A i.B.*.@X-X$X-.B.i.[ 1.&X*X@.E 5 . .                           ",
"                    3 & 9 & & & 3 n A k.Z.&.3.=X4.:.B.k.C.-.$X%X#.T 7 + +                           ",
"                  3 h z h i 9 & 3 h 5.a.z. .:.3.:.o.z.k.Z.o.;.1.O.P 7 + & +                         ",
"              + 3 i z J A z i O 3 h J k.f.v.V.o.[ v.z.k.z.v. . .^ W 8 & O + o O                     ",
"            # & + h m a.r.A h & 4 z J a.k.k.k.d.k.k.k.k.k.i.d.d.5.n & & & & . . +                   ",
"            O & 3 h m i.i.J m i h z A r.r.r.i.a.j.j.j.j.d.i.r.r.r.r.5.5.m z f 9 3                   ",
"            O & 3 f m r.i.J A m n m m m A 5.r.k.j.j.j.j.5.5.A A a.K.W.W.L.a.m z h 9                 ",
"            O & 3 h A a.i.i.J J m m n i n m r.a.j.j.a.i.r.A z z M.!.'.}.(.E.r.A m 9 & +             ",
"            O & & h m a.a.k.k.S.i.m i & i z 5.k.j.j.d.a.5.h 3 i L.`.OXOX.X(.S.r.m z & & O           ",
"            O & 3 h A a.k.k.i.i.r.A i & 3 h m 5.5.5.5.5.m h 3 3 K.).OX+X.X(.K.r.A z & + O           ",
"            O & & h A r.d.a.S.i.r.A i & 3 i h n m m m m h h 3 i L.`.OXOX.X(.S.r.A i & + O           ",
"            O & & z m i.a.S.i.i.r.A i & & & 3 i h 4 4 i 3 3 + h L.`.OX+X.X(.K.r.A i & + O           ",
"            O & 3 h A r.i.a.i.S.r.A i & & & . + . . + + . & & 3 M.'.OX+X.X(.S.r.A h & + O           ",
"            O & 3 f m i.S.i.i.i.r.A h . O . + . O O O & + . + h K.).OX+X.X(.k.r.A h & + O           ",
"            O & * h A a.i.i.S.S.K A i & . . 3           + . + 3 K.`.OXOX.X(.D.r.A h & + O           ",
"            O & 3 h m i.i.S.a.i.r.A h . O &               . & h K.`.OX+X.X(.P.r.A i & + &           ",
"            O & 3 h A i.i.i.i.d.r.A i & + O               & . 3 K.`.OXOX X(.k.r.A i & # +           ",
"            O & & z A a.k.d.a.i.K m h . . &               O . 9 P.`.+X+X}.^.r.m z h & &             ",
"            O & & h A r.k.a.S.a.i.m h . & .               O & f P.).OX+X{.!.A z h 3                 ",
"            O & 8 h A r.i.i.i.i.i.m h 3 . .               O . q K.`.OXOX'.R.i & &                   ",
"            . & O h m r.i.i.i.S.i.m 9 + @ &               & . q K.).OXoX'.Y.i # .                   ",
"              O + f m m J r.r.i.K m h . + O               * . h P.).OXoX'.Y.4 + O                   ",
"                  9 9 h m m 5.d.i.A h . + O               . . q K.`.OXoX'.Y.i # .                   ",
"                    + 3 4 n J i.i.m h & + *               * . h K.).OXOX'.Y.i & .                   ",
"                    + . 3 h m 5.J m 9 & +                   & 3 P.^.XXXX).U.4 O &                   ",
"                      + 3 i z m m h 9 3                     . i a.E.).).W.P.i &                     ",
"                          9 9 h i i 9                           5.M.L.L.P.r.                        ",
"                            3 . & &                               ; 3 & +                           ",
"                            . . +                                   O . .                           ",
"                              &                                     + +                             ",
"                                                                                                    ",
"                                                                                                    ",
"                                                                                                    ",
"                                                                                                    ",
"                                                                                                    "
};
