/* XPM */
static char *ef85ce7da212493ef56a4ec8c175c8f7JydEQTcQUoXoanOf[] = {
/* columns rows colors chars-per-pixel */
"50 50 194 2 ",
"   c #010307",
".  c #02060B",
"X  c #03080E",
"o  c #08080F",
"O  c #020710",
"+  c #030A11",
"@  c #0A0D14",
"#  c #060F18",
"$  c #090F18",
"%  c #120D15",
"&  c #150F19",
"*  c #0B1116",
"=  c #0C1119",
"-  c #121117",
";  c #1A1117",
":  c #141319",
">  c #1A141B",
",  c #16191E",
"<  c #1B191E",
"1  c #22141C",
"2  c #27171F",
"3  c #29181F",
"4  c #391A1F",
"5  c #1D1D22",
"6  c #221621",
"7  c #2F1726",
"8  c #221D22",
"9  c #241C22",
"0  c #2A1C24",
"q  c #2E1A29",
"w  c #381726",
"e  c #331B26",
"r  c #3B1D24",
"t  c #341C2A",
"y  c #232226",
"u  c #2B2227",
"i  c #26262A",
"p  c #2C252A",
"a  c #2C2A2D",
"s  c #302027",
"d  c #32242B",
"f  c #3A252D",
"g  c #322A2E",
"h  c #3C282E",
"j  c #2D2D30",
"k  c #342E32",
"l  c #3A2C32",
"z  c #353234",
"x  c #3A3236",
"c  c #3B3236",
"v  c #3C3439",
"b  c #3C3539",
"n  c #3F393C",
"m  c #401B20",
"M  c #4A1C2E",
"N  c #5B1B2E",
"B  c #461F31",
"V  c #591C35",
"C  c #631C2F",
"Z  c #4C2027",
"A  c #42222C",
"S  c #422B2E",
"D  c #4B2B34",
"F  c #4B2339",
"G  c #522232",
"H  c #502A30",
"J  c #53263C",
"K  c #413136",
"L  c #42353A",
"P  c #443B3E",
"I  c #5B3336",
"U  c #553639",
"Y  c #692629",
"T  c #782A2D",
"R  c #6B2436",
"E  c #642639",
"W  c #702C32",
"Q  c #7B253D",
"!  c #603239",
"~  c #76383C",
"^  c #78383E",
"/  c #453E41",
"(  c #493E42",
")  c #5B3A43",
"_  c #672442",
"`  c #652843",
"'  c #742D49",
"]  c #6E3343",
"[  c #603C42",
"{  c #6F3C40",
"}  c #7A3748",
"|  c #7A2F53",
" . c #454143",
".. c #4B4346",
"X. c #4E474A",
"o. c #4F4A4B",
"O. c #59454A",
"+. c #534A4D",
"@. c #575153",
"#. c #6D464B",
"$. c #754144",
"%. c #794546",
"&. c #634D52",
"*. c #6E4E52",
"=. c #745357",
"-. c #8C252E",
";. c #94272D",
":. c #8E213A",
">. c #902B34",
",. c #982B36",
"<. c #83343E",
"1. c #96333C",
"2. c #A92636",
"3. c #AE2831",
"4. c #CA313F",
"5. c #9D2D4A",
"6. c #853B45",
"7. c #8F394F",
"8. c #973045",
"9. c #993D44",
"0. c #813152",
"q. c #A42648",
"w. c #B52647",
"e. c #A53945",
"r. c #B73945",
"t. c #A72C51",
"y. c #A6335A",
"u. c #B33462",
"i. c #C42C4F",
"p. c #CA3745",
"a. c #D4394B",
"s. c #C83556",
"d. c #D93556",
"f. c #DB3D5D",
"g. c #84454B",
"h. c #894E4E",
"j. c #994F4D",
"k. c #8B4352",
"l. c #A04B4D",
"z. c #AD435F",
"x. c #A1555A",
"c. c #B95659",
"v. c #A36157",
"b. c #B64A62",
"n. c #BA5868",
"m. c #BB6363",
"M. c #DB494F",
"N. c #C2475A",
"B. c #D15B52",
"V. c #E45254",
"C. c #F3545E",
"Z. c #C1695D",
"A. c #D96D5C",
"S. c #C84967",
"D. c #D84462",
"F. c #C85769",
"G. c #D45973",
"H. c #E14268",
"J. c #F74567",
"K. c #E85764",
"L. c #EB5D6B",
"P. c #F04F72",
"I. c #E7517C",
"U. c #CE6A68",
"Y. c #C17364",
"T. c #D57669",
"R. c #EE626C",
"E. c #E47067",
"W. c #F36279",
"Q. c #F27571",
"!. c #E0805C",
"~. c #D5957F",
"^. c #E38065",
"/. c #F39B7E",
"(. c #F0718F",
"). c #D68682",
"_. c #E99781",
"`. c #E79E90",
"'. c #F69E94",
"]. c #F4A68D",
"[. c #F0B281",
"{. c #F1AE95",
"}. c #F0ABA1",
"|. c #FBB6A4",
" X c #EEBCB1",
".X c #FACAA9",
"XX c #E7C9BC",
"oX c #FACBB4",
"OX c #FDD0B8",
"+X c #FDDCCE",
"@X c #FED7D9",
"#X c #F8E3DD",
"$X c #FEDEE6",
"%X c #FFEBEE",
/* pixels */
"X @ @ + . . X X . . . . . . . .     . .       . . . .           . .       . X .     . X .     . . . ",
". @ - - + X X X . . . . . .         . .       . . o o .         . o       . . .     . X . . . X o o ",
". @ > > % @ + o X . . .             . . .       . X X . . . .   . o .       . .     . . .   . . X X ",
". o > 1 1 > % @ o . . .             . . . .     . . .           . . .       . .   . X .       . . . ",
". . % 1 1 3 1 : @ o . . .     . .   . . . . . . . . .     .       . . . . . . . . . o o o . X X X . ",
". . o ; 9 0 u u < @ o . . . . . . . . . . . . . . . . . . . .   . . o . . . o . . o o o o X X X X . ",
"X . o @ : 8 l v p < - o . . . . . . . . o . . . . . . . . . . . . . . . . o o o . . o X . . . . . . ",
"o . o + @ 8 v / x p 0 - o o . . . . . . o . . . . . .   . . . . . . . . . o o o . . . . . . . . o o ",
"+ X o @ * 5 k n P x g 8 - @ o . . . . . . . . . . . . . . . . . . . . . . X o . . . . . . X X X . . ",
"+ + + + @ , i z v / v k y - + X . . . . . . . . . . . . . . X X . . o o X X . . . . . . X + o . . . ",
"+ + o o o * < 8 u n  .n x 0 : @ + X . . . . . . . . X . o o X X X o + + + o X X . . . . . X X . X @ ",
"o + o o o + - 5 8 g  ...P l p 9 : + X X . . . . . . X X X X + + @ @ @ + + o o X . . . o X X . . X @ ",
"o o X X X o @ 5 i i x ..X.+.( l 0 % + X X X X . . . . . . X + @ @ * @ + + + + . . . . + + + . . . o ",
"o o o X X X @ - y i a v ..@.+.K f 0 - @ + + + + + . . . . . + + + + + + + + + O . . . + + + O . . . ",
"X X X X X X o @ : 5 i a x  .X.P l h 0 : @ + + + + + + + + + + + + + + + + + + + + + . . O O O O . O ",
"X X X X X X X o @ * < y p k x n P K s 0 , @ + + + + + + + + + + . . + + + + + + + + O . . . . O . O ",
"X X X X X X X X o + - 5 8 p a z  ...L l p 5 < = @ + + + + + + + + O . . . . . O O O + + O . . . . . ",
"O + + + + + + + + + @ : < y a z n o.+.( x d p < @ + + + + + + + + O . . . . O + + + + @ + . . + X X ",
". + + + + + + + + + + @ = y j z x / @.+.( x d 8 - @ + + + + + + + . . . . O . + + + + = + + + + X X ",
". + + + + + + + + + + + @ , y a a k / +.+...L u < : @ @ @ + + + + + . . . . O + + + + + + O O . . . ",
". + + + + + + + + X + + @ @ , 5 8 u x ( &.&.O.K 0 0 9 : = @ @ + + + . . . . + + + + + . . . . . . . ",
"+ + + + + + + + + . + + @ + @ * - < y g ) =.*.) D D S 0 , = @ + + + . . . O O + + + + . + + O . . + ",
"X + + + + + + + + . . + + + + + @ - > 3 l O.*.#.! I I U d , @ @ + + . . + + + + + + + + + @ + . X + ",
". + + + + + + + + . . + + + + + @ @ : < 0 x [ %.%.{ ~ $.U p , @ + + + + + + + + + + + + @ + . . . . ",
". O + + + + + + + . O + + + + = = * : < < u D $.h.h.g.g.{ D d 5 = + + + + + + + + + + + + + . . . X ",
"O O + + + + + + + . . + + = = @ = = = , 9 0 f ) g.x.v.j.6.^ ! D 0 @ @ O O O O + + + + . + O . X o o ",
". O + + + + + + + + . + = = + @ + + + @ , 0 d D ] l.Z.c.9.9.9.6.H < @ + + O + + + + + + + + + + + + ",
". O + + + + + + + + . + + + + . . + + + @ < d f G <.c.F.c.e.e.e.^ r : @ + + + + + O + + + + + + @ @ ",
"+ + + + + + + + + + . O + + + . . + + + + - 0 t A E 8.S.G.N.r.r.1.W Z > @ + + + + + + + + + + @ @ @ ",
"+ + + + + + + + + + . . + + + + + + + + + @ % 1 t G Q 5.s.D.M.p.2.>.T Z > @ + + + + + + + + + @ + + ",
"+ + + + + + + + + + . . + + + + + + . . . . @ : e M E Q q.d.K.V.4.2.-.T m ; @ + + + + + + + + + o o ",
"+ + + + + + + + + + + + + + + + + . O + + . + % 1 e M R :.w.H.W.L.a.2.;.Y 4 ; + O O + + + + + o X . ",
"+ + + + + + + + + + + + + + + + + O + + + + + @ - : 1 w C :.i.I.(.L.p.3.>.Y r % + + + + + + + o X X ",
"@ + + + + + + + + . + + + + + + + O + + @ + + + + + O % 7 N :.s.P.W.K.B.r.,.R r - + + + + + + + X X ",
". o + o o + X X + + + + + + + + + + + + + + O + @ + + o % 2 V q.d.J.R.^.T.r.5.} A : @ + + + + X X X ",
". o o . . o X X + + + + + + + + + + + # + + + + @ $ * @ @ & 7 _ t.f.C./.[.!.A.N.7.D : + + X X X X X ",
"X o o   . X . X + . . . + + + + + + + + + + . . O + + X X + % e _ y.f.Q.|.oX.X{.T.k.f * + X X X X X ",
". o . . . . . . . . . . . + + + + . O + . . .   . . . . . o @ > B ' y.D.'.+X@X@X].Y.} e @ X X X X X ",
". o . . + o . . . . . . . . . . . . . X . . . .   . o X X + @ - q J 0.u.E.oX$X%XOX_.x.D - + + X X X ",
". o o + @ @ o . X X . . . . . . . . . . . . . . . . X o X . X + % 0 F | z.~.XX#X+X}.n.] 6 @ + + X X ",
"o o X + * * + X X X . . . . . .   . .   . . . . . . + @ @ + + + @ : > q J k.m.). X`.U.0.q @ @ + o X ",
". . . X + * + X X . . . . . . . . .       . . . . X + + + X X X @ @ + @ > t E } n.F.b.' 6 @ @ @ o . ",
"o X X X + + X . X o . . . .     . . .           . . X X X X X X + + X X + @ 6 t ` ' ` t - @ @ o o o ",
"X X X + X X X . + + . . . . .   . . .         . . . X X X X X X X X . X + + + @ & > & @ @ @ @ o o o ",
"+ + + + + + + + X o . . . . . .   . . . . . . . . X X X X X X X X X X + + + X X X + o . o @ @ o o o ",
"+ + + + + + + + + + o . . + @ + . . . . . . . . X X X X X X X X X X + + + X X X X X X . o + @ o o . ",
"+ + + + + + + + + + + X X @ = @ . . . . . . X X X X X X X X X X X X + + X X X . X X X . X X X . . . ",
"+ + + + + + + + + + + . . @ = @ O . . . + + + + + X X X X X X X X X + X X X X X X X . . . .       . ",
"+ + + + + + + + + . . . . + + + + + + + + + + + O O X X X X X X X X X X X X X X X X . . . .       . ",
"+ + + X O O + + + + X X + + + + + + + + + + + + O . X X X X X X X X X X X + @ @ + X .             . "
};
