/* XPM */
static char *_a2386847c554584fea6be4880a7f464OODjUHLoYBi6aNQD[] = {
/* columns rows colors chars-per-pixel */
"50 50 188 2 ",
"   c None",
".  c #241C1D",
"X  c #291C1E",
"o  c #261E21",
"O  c #2C2426",
"+  c #2F2528",
"@  c #2E2B2B",
"#  c #34252A",
"$  c #3D232B",
"%  c #332B2D",
"&  c #382730",
"*  c #3F2D33",
"=  c #353133",
"-  c #3C3335",
";  c #3E3B3B",
":  c #4D1C32",
">  c #501F38",
",  c #561E32",
"<  c #46262F",
"1  c #4B2431",
"2  c #442C33",
"3  c #4A2E37",
"4  c #5C2233",
"5  c #552B39",
"6  c #403236",
"7  c #44353A",
"8  c #4D353B",
"9  c #453B3D",
"0  c #49393D",
"q  c #55333A",
"w  c #59353C",
"e  c #64253B",
"r  c #6A233B",
"t  c #622738",
"y  c #79243B",
"u  c #762438",
"i  c #6E3A3E",
"p  c #62343B",
"a  c #70363F",
"s  c #463D41",
"d  c #4A3D41",
"f  c #5B3E45",
"g  c #682D46",
"h  c #7A2B4E",
"j  c #712748",
"k  c #673740",
"l  c #683848",
"z  c #793D40",
"x  c #444243",
"c  c #4C4245",
"v  c #4E4548",
"b  c #4D4A4A",
"n  c #524346",
"m  c #53474B",
"M  c #534C4D",
"N  c #594A4D",
"B  c #5E4247",
"V  c #554D50",
"C  c #594D51",
"Z  c #565253",
"A  c #5B5355",
"S  c #5E595A",
"D  c #654B4E",
"F  c #68454A",
"G  c #7C4345",
"H  c #70474F",
"J  c #7B464A",
"K  c #624D54",
"L  c #605758",
"P  c #6C5358",
"I  c #625B5D",
"U  c #625257",
"Y  c #765356",
"T  c #675B61",
"R  c #B81B3C",
"E  c #87253B",
"W  c #97283B",
"Q  c #94383D",
"!  c #A92837",
"~  c #B52939",
"^  c #A8363C",
"/  c #CC322F",
"(  c #CB2F3E",
")  c #D62938",
"_  c #C33F3B",
"`  c #E42C3C",
"'  c #E2373E",
"]  c #CE473E",
"[  c #9A2046",
"{  c #963E40",
"}  c #843756",
"|  c #AA2947",
" . c #AA3945",
".. c #A83A4E",
"X. c #B63547",
"o. c #AC2D5B",
"O. c #B42556",
"+. c #AA3E5C",
"@. c #B0315C",
"#. c #863C60",
"$. c #9F3B63",
"%. c #A62E62",
"&. c #B22F63",
"*. c #A43F6D",
"=. c #BF316B",
"-. c #C92542",
";. c #D52946",
":. c #CB384B",
">. c #D92E5F",
",. c #D83D5A",
"<. c #E62D44",
"1. c #EF3D48",
"2. c #E93A56",
"3. c #DE3E63",
"4. c #E33268",
"5. c #F8396A",
"6. c #8B4246",
"7. c #834D4D",
"8. c #864849",
"9. c #9E454B",
"0. c #97504D",
"q. c #844250",
"w. c #954C51",
"e. c #825B5E",
"r. c #925351",
"t. c #A6474A",
"y. c #BB4445",
"u. c #B54142",
"i. c #A45857",
"p. c #A36A5C",
"a. c #AB4161",
"s. c #BE4B6E",
"d. c #BC5A67",
"f. c #BE4A74",
"g. c #C55655",
"h. c #F34646",
"j. c #F15B4F",
"k. c #E64759",
"l. c #F44B5B",
"z. c #EE5E58",
"x. c #CB7256",
"c. c #F0625C",
"v. c #F37C55",
"b. c #D24C6A",
"n. c #C3556C",
"m. c #D45F67",
"M. c #D94A79",
"N. c #CA5B74",
"B. c #D85975",
"V. c #F8446C",
"C. c #EF557F",
"Z. c #F45C73",
"A. c #C66E62",
"S. c #EF6469",
"D. c #F56A6F",
"F. c #F77065",
"G. c #F37774",
"H. c #EA8D66",
"J. c #F98B6A",
"K. c #F69865",
"L. c #EA9475",
"P. c #F7977F",
"I. c #FAC379",
"U. c #EF4E80",
"Y. c #E94B85",
"T. c #F14E8D",
"R. c #EB5182",
"E. c #FD6783",
"W. c #F17982",
"Q. c #F16394",
"!. c #EC7394",
"~. c #F17493",
"^. c #FC8A84",
"/. c #FA9C87",
"(. c #FCA58E",
"). c #FBB4AF",
"_. c #FAC088",
"`. c #FAC19E",
"'. c #FDDAAD",
"]. c #FFDCBB",
"[. c #FEDAC8",
"{. c #FFC5D9",
"}. c #FEE6C9",
"|. c #FEE3D3",
" X c #FEE4DB",
".X c #FDECE4",
"XX c #FFE9F2",
"oX c #FFF3F4",
/* pixels */
"                                                                                                    ",
"                                                                                                    ",
"                                                                                                    ",
"                                                                                                    ",
"      2 2                                                                                           ",
"          8 N 0                                                                                     ",
"          K A N 6                                                                                   ",
"            C M 0 v                                                                                 ",
"            T M V c 9                                                                               ",
"            V d c A 9 c                                                                             ",
"                0 A b c n 3                                                                         ",
"              9   c Z Z d 0 8                                                                       ",
"              x   9 c C L S m q                                                                     ",
"                x - 9 c A I M - 2 3                                                                 ",
"                  = % 9 n M A c 7 8                                                                 ",
"                    @ - 7 n 7 c v 7 <                                                               ",
"                      = + - % - b M s 7 0                                                           ",
"                        O 6 ; ; d Z A v 9 8 D                                                       ",
"                          s x x 9 v I V c d w                                                       ",
"                            = 9 - - 9 U C m D q                                                     ",
"                              = @ # ; d P P K B                                                     ",
"                                  O o % f e.Y H k p F                                               ",
"                                    . X - D Y H a i i 7.                                            ",
"                                    . X O 7 l 7.7.G z G 7.                                          ",
"                                    . . o + 3 G r.r.J 8.J J                                         ",
"                                      o O # & l q.i.p.0.6.6.w.                                      ",
"                                        + $ # 2 g t.A.A.{ Q 9.9.i.                                  ",
"                                          # % $ 1 E x.B.g... . .t.                                  ",
"                                            * 2 1 t W b.!.m.X.X.^ t.                                ",
"                                              $ 1 4 y | :.Y.k.:.~ ^ u.y.                            ",
"                                                5 t e y ! >.z.j.-.! ! ^ y.                          ",
"                                                  e r r E | 4.G.j.;.~ ~ _                           ",
"                                                      r u E -.Y.~.W.` R / _                         ",
"                                                        4 y W ;.Q.~.D.h.) ,.]                       ",
"                                                          , r [ <.V.E.E.K.2.( +.                    ",
"                                                            : j O.1.5.J.J./.' &.a.                  ",
"                                                              > h o.l.l.'.I.K.K.,.s.d.              ",
"                                                                5 h @.3.F.{.|.}.'.H.n.              ",
"                                                                  g } %.k.`. X{.XX/.L.d.            ",
"                                                                    } $.=.v.|.XXoX].P.N.            ",
"                                                                      #.*.M._. X.X|.).S.N.          ",
"                                                                            B.c.^.[.(.G.R.          ",
"                                                                              f.  U.Z.C.            ",
"                                                                                    T.              ",
"                                                                                                    ",
"                                                                                                    ",
"                                                                                                    ",
"                                                                                                    ",
"                                                                                                    ",
"                                                                                                    "
};
