/* XPM */
static char *_2e9ba0908814955dcf039aef16aee65dsz118N377f6cUDG[] = {
/* columns rows colors chars-per-pixel */
"50 50 152 2 ",
"   c #010307",
".  c #02060B",
"X  c #03090E",
"o  c #080B0F",
"O  c #020710",
"+  c #030A11",
"@  c #090E14",
"#  c #0B1116",
"$  c #0C121A",
"%  c #151517",
"&  c #13161A",
"*  c #151A1E",
"=  c #1B1D1D",
"-  c #171C20",
";  c #1B1E23",
":  c #201F21",
">  c #1D2124",
",  c #1C2229",
"<  c #232424",
"1  c #282926",
"2  c #22272B",
"3  c #262A2D",
"4  c #2B2B2B",
"5  c #2F302E",
"6  c #30312D",
"7  c #2C2E31",
"8  c #2D3133",
"9  c #2B3239",
"0  c #333334",
"q  c #373837",
"w  c #383937",
"e  c #34373B",
"r  c #37393B",
"t  c #3C3C3B",
"y  c #3F403F",
"u  c #41413F",
"i  c #353C42",
"p  c #3D4044",
"a  c #434442",
"s  c #474847",
"d  c #43474A",
"f  c #444A4E",
"g  c #4B4C4B",
"h  c #51514E",
"j  c #464B50",
"k  c #4C4F52",
"l  c #4A5055",
"z  c #4F5459",
"x  c #545453",
"c  c #575855",
"v  c #51565B",
"b  c #56595A",
"n  c #5C5C5B",
"m  c #5F605F",
"M  c #62625E",
"N  c #5C5E60",
"B  c #5F6264",
"V  c #656563",
"C  c #676865",
"Z  c #696966",
"A  c #626569",
"S  c #6C6C6C",
"D  c #706E6D",
"F  c #6F706D",
"G  c #71716F",
"H  c #6B6D70",
"J  c #6F7374",
"K  c #747472",
"L  c #787776",
"P  c #777876",
"I  c #797977",
"U  c #737578",
"Y  c #77787A",
"T  c #7C7C7C",
"R  c #807F7D",
"E  c #81817E",
"W  c #7B7F81",
"Q  c #807F82",
"!  c #848483",
"~  c #898785",
"^  c #878886",
"/  c #898987",
"(  c #838789",
")  c #868889",
"_  c #8B8A8A",
"`  c #8C8C8B",
"'  c #888B8E",
"]  c #8E8E8E",
"[  c #908F8E",
"{  c #91908E",
"}  c #8F8F90",
"|  c #929293",
" . c #949493",
".. c #919396",
"X. c #969696",
"o. c #989796",
"O. c #979897",
"+. c #999897",
"@. c #949698",
"#. c #959799",
"$. c #97989A",
"%. c #9A9A98",
"&. c #9C9B9B",
"*. c #9B9C9A",
"=. c #9F9F9E",
"-. c #A09F9E",
";. c #9FA09F",
":. c #A1A09F",
">. c #9D9FA1",
",. c #9EA0A1",
"<. c #A3A3A2",
"1. c #A4A3A1",
"2. c #A4A4A3",
"3. c #A8A7A6",
"4. c #A7A8A7",
"5. c #AAA8A7",
"6. c #A6A6A9",
"7. c #A8A7A8",
"8. c #A7A8A8",
"9. c #A9A9AB",
"0. c #ACABAB",
"q. c #AEAEAE",
"w. c #B0AFAD",
"e. c #B1B0AF",
"r. c #AFAFB2",
"t. c #B4B4B3",
"y. c #B4B5B4",
"u. c #B8B7B6",
"i. c #B8B9B7",
"p. c #B7B7B8",
"a. c #B7B8B8",
"s. c #B9B9B8",
"d. c #BCBCBB",
"f. c #BFC0BE",
"g. c #C0C0BF",
"h. c #BFC0C0",
"j. c #C3C3C2",
"k. c #C8C7C7",
"l. c #C8C8C7",
"z. c #C4C4C8",
"x. c #CCCBCB",
"c. c #D0CFCF",
"v. c #D3D3D2",
"b. c #D4D4D5",
"n. c #DAD8D5",
"m. c #D8D8D8",
"M. c #DAD9D9",
"N. c #E1E0DF",
"B. c #E0DFE0",
"V. c #E1E1E0",
"C. c #E4E5E4",
"Z. c #E9E9E9",
/* pixels */
"X @ @ + X X X X . . . . . . . . .   . .         . . .           . . .     . X .     . . .     . . . ",
"X + @ X X X X X . . . . . .     .   . .         . X o .         . X .     . . .     . X . . . . X X ",
"X X + X X X X X X . . .             . . .   . . . X X . . . . . . X .       .     . . . . . . . . X ",
". X X X X X X + X . . .             . . . . . . . . .     .     . . .       .   . . X . . . . . . . ",
". X X X X X + + X . . . .     . .   . . . . . . . . .     .       . . . . . . . . . X X X . . X X . ",
"X . . X X X X X X X X . . . . . . . . . . . . . . . . . . . .   . . X . . . X . . X X X X X . X X . ",
"X . . X X X X X X X X X . . . . . . . . X . . . . . . . . . . . . . . . . X X X . . X . . . . . . . ",
"X X . X X X X X X X X X X X . . . . . . X . . . . * 3 8 8 4 % o . . . . . X X X . . . . . . . . X X ",
"+ X X X X X . . X X X + + X X X . . X X ; 7 r p d n K T L S a < * @ X . X X X X . . . . X X X X . . ",
"+ + + X X X . . X X X + + + + X X ; p b S T ( ] ..] X.] E L S q 4 < * @ X X X X X . .   X + X X . X ",
"+ + X X X X X X . . X X + @ + 7 n ! q.s.<.%.X._ | | &.{ ! G c s 0 1 4 < ; # X X X X X . X X X X X @ ",
"X + X X X X X X . X X + @ # d #.j.b.b.i.*. .O.T S T | #._ V t S a 1 1 4 0 2 & X X X X X X X X X X @ ",
"X X X X X X X X X X + + @ p 9.V.b.m.b.y.=.X.| n t A ( #.) S n ! c t 1 < 0 q 7 + X X X + + + X X X X ",
"X X X X X X X X X + + + 2 ' b.V.V.B.b.s.1.&.T t 4 g Y ( W ! ] _ S x t 1 0 8 0 ; + X X + O O O X X X ",
"X X X X X X X X X + + , U z.l.b.Z.C.l.q.-.%.K q 4 r n T T ..9.=.T V g 0 7 4 7 0 2 + X X X X O O O O ",
"X X X X X X X X X + e ) d.v.l.v.C.C.j.0.2.o.G 0 0 0 0 V T #.q.<.` G x t 4 1 4 7 0 @ O X X X X O O O ",
"X X X X X X X X X 8 ' l.b.v.v.x.j.v.x.s.5.| T a t t a K ! %.8.%. .! M g 4 < 1 1 4 $ + + O X X X X X ",
"O O + + + + + + 7 K 2.x.v.v.x.j.t.l.m.j.:.K ` G M s c _ +.+.%.X.%. .T C s 1 < 1 4 < @ @ O . X + X X ",
"X O + + + + + 9 ) t.d.l.x.x.z.t.t.v.m.z.0. .=.] K M g ] <.] ! %.9.%.! K M a 0 4 7 0 2 $ @ O + + X X ",
"X O + + + + $ A k.x.j.d.l.l.%.I _ j.b.d.t.u.5. .E L V ` _ E K I G V G / L c n q 4 q t ; @ O X X . X ",
"X + + + + + i >.g.c.=.S 9.x.K t V t.v.l.d.d.K T 2.T R ! K K g t q a P  .%.S I V c g u 8 + X X . . X ",
"O O + + + + l t.0.j.y.| 9.z.S < c 9.z.s.x.v.M C y.` ( C s s 1 : < t T ;.q.<.( ( T S u 0 @ + O X X + ",
"X + + + + * A 0.q.f.j.q.7.z.u.K S t.j.t.l.n.&.L  .[ K a t < % < < t ! q.s.h.O.| %.! s 5 & @ + X X + ",
"X + + + @ v s.-.2.y.d.2.=.a.x.j.<.%.9.i.i.d.+.( { L g q t = % < 1 t K 0.d.l.t.6.<.L g 4 > @ X X X X ",
"X + + + , ( q.S X.d.l.<.,.z.l.z.y.2.1.d.i._ K I n a t t 0 % : 1 4 t ! t.d.x.j.t.%.K s 6 < + X X X X ",
"O O + O j y.| ` %.s.l.s.j.c.d.i.t.u.1.d.t.V x n t x t r 4 = 1 4 0 m :.t.d.x.y.=.*.T u 4 * + X X X X ",
"X O O + z l.2.2.9.s.l.l.x.x.d.u.0.t.i.j.2.h t x t a q 7 4 < 4 t c ] 9.y.j.z.=.( 4.! a < @ + + + + + ",
"X O O + z x.s.<.<.s.x.x.m.b.s.<.T X.l.x.=.g t c u q 4 a g 4 0 n T %.2.d.v.p.%.:.! x q $ + + + + @ + ",
"+ + + $ B b.d.q.0.y.j.j.d.z.d.<.! 2.t.0.` n t 0 g a w s a n a S _ %.9.j.l.<.+.` a 0 > + + + + @ @ @ ",
"+ + + $ A N.l.i.q.q.X.%.y.z.z.<.{ 2.<.%.! Z a 1 t 0 t x g T K I / &.q.s.s.<.` V 4 < @ + + + + + + + ",
"+ + + @ v d.w.l.t.2.( } y.h.e.:.9.t.:.X.T h t g s h s x S ! ` [  .:.0.t.d.=.S 0 < @ + + + + + X X X ",
"+ + + + f e.e.j.9.&.&.2.0.r.9.y.g.y.9. .K s x n n c a u L S | |  .%.0.w.t./ g 1 & + + + + + + X X X ",
"+ + + + f s.i.j.9.| #.<.6.6.j.x.d.e.i.~ x n S g y V n x G T -.&.| X.3.t.<.Z 5 = @ + + + + + + X X X ",
"@ + + + k v.v.j.2.| $.>...=.s.j.i.u.w.I C K h x h P V g B | &.:.] X.3.w.| a ; @ + + + + + + + X X X ",
". X + X 8 <.m.z.2.` ..] ! 2.=.9.j.j.5.T I G Z c n E M t J #.O.&.[ o.2.2.S > @ + @ @ @ @ + + + X X X ",
". X X . & S v.j.3. .! Q %.2.X.9.j.i.<.~ K Z G C h K n n K | +.{ { =.| V > @ + + @ @ @ @ + X X X X X ",
". X X   . g j.d.i.s.=.=.2.<.2.t.d.2.[ K D L Z S C K I K K | &.*.o.{ g * + + + + + + + + + X X X X X ",
". X . . . * A s.x.t.[ %.<.0.t.3./ K V g K ] E _ E I G Z K %.1.+.%.n - + + + + + + + + + X X X X X X ",
". X . . + @ v c.m.w.E ^ ` ( { =.+.K c K ! K q a ] K E ! ( <.%.T S 3 @ + + + X X X X X + X X X X X X ",
". X X + @ @ * H d.0.<.<.:.X.%.-.X.X._ T G n t n S n K X.+.E S N > + + + + X X X X X X X X X X X X X ",
"X X X + # # @ 2 K 2.e.s.y.q.:.*.[  .` F Z Z V c c n K ( ! l 0 & + + X X X X X X X X X + + + + + X X ",
". . . X @ # + + 2 b Y ] X.=.t.3._ T K n M C V c a c g 8 * @ + X X + X X X X X X X X + @ + + + @ X X ",
"X X X X + + X X + @ % 0 n S T ! K k 7 ; 4 0 4 = @ @ @ + X X X X X X X X X X X X X X + @ @ @ + X X X ",
"X X X + X X X X X X . X @ @ @ @ @ X . . . . . . . X X X X X X X X X X X X X X X X X X X + + + X X X ",
"+ + + + + + + + X X X . X . . .   . .   . . . . X X X X X X X X X X X X + X X X X X X X X + @ X X X ",
"+ + + + + + + + + + X X X + @ +   . X X X X X X X X X X X X X X X X + + + X X X X X X . X X @ X X . ",
"+ + + + + + + + + + + X X @ $ @ X X X X X X X X X X X X X X X X X X + + X X X X X X X . X X X . . . ",
"+ + + + + + + + + + + X X @ $ @ O X X X O O + + + X X X X X X X X X + X X X X X X X X X . . .     . ",
"+ + + + + + + + + X X X X + @ + + + + + + + + + O O X X X X X X X X X X X X X X X X . . . .       . ",
"+ + + X O O + + + + X X + + + + + + + + + + + + O X X X X X X X X X X X X + @ @ + X .             . "
};
