/* XPM */
static char *_58e92ef3bb24183cca21196c87316bcryTz2gJQcpK4mx0C[] = {
/* columns rows colors chars-per-pixel */
"50 49 123 2 ",
"   c None",
".  c #4F2813",
"X  c #53311D",
"o  c #543623",
"O  c #543927",
"+  c #563B2A",
"@  c #583D2C",
"#  c #564334",
"$  c #594233",
"%  c #564638",
"&  c #5C4638",
"*  c #5E493B",
"=  c #634936",
"-  c #634E3E",
";  c #5D4E42",
":  c #5C5247",
">  c #5E5249",
",  c #615245",
"<  c #695544",
"1  c #61554C",
"2  c #63584E",
"3  c #6A5B4C",
"4  c #665F57",
"5  c #655D55",
"6  c #625951",
"7  c #665F58",
"8  c #675F58",
"9  c #666057",
"0  c #6F6051",
"q  c #686157",
"w  c #6D6355",
"e  c #676058",
"r  c #676059",
"t  c #676159",
"y  c #676259",
"u  c #67615A",
"i  c #6A6159",
"p  c #686259",
"a  c #696259",
"s  c #6A6259",
"d  c #6A6359",
"f  c #68625A",
"g  c #69625A",
"h  c #68635A",
"j  c #69635A",
"k  c #69635B",
"l  c #6A635B",
"z  c #6D6258",
"x  c #6D6359",
"c  c #6C635A",
"v  c #6A6459",
"b  c #69645B",
"n  c #6B645A",
"m  c #6A645B",
"M  c #6B655B",
"N  c #6E655B",
"B  c #6A645C",
"V  c #6A655C",
"C  c #6A655D",
"Z  c #6B655D",
"A  c #6A665C",
"S  c #6B665D",
"D  c #6B675D",
"F  c #6C675D",
"G  c #6F675D",
"H  c #6C665E",
"J  c #6C675E",
"K  c #6E675E",
"L  c #6C685E",
"P  c #6D685E",
"I  c #6D685F",
"U  c #6D695F",
"Y  c #6E685F",
"T  c #736556",
"R  c #71665A",
"E  c #70685B",
"W  c #746859",
"Q  c #766A5B",
"!  c #766B5B",
"~  c #726B5F",
"^  c #766B5C",
"/  c #776B5D",
"(  c #726C5E",
")  c #726C5F",
"_  c #6D6861",
"`  c #6F6860",
"'  c #6F6961",
"]  c #716B61",
"[  c #706A62",
"{  c #716A63",
"}  c #716B63",
"|  c #726E63",
" . c #716B64",
".. c #716D64",
"X. c #716C65",
"o. c #726D64",
"O. c #726D65",
"+. c #716E64",
"@. c #726E64",
"#. c #726E65",
"$. c #736E65",
"%. c #736F65",
"&. c #716D66",
"*. c #726E67",
"=. c #786D60",
"-. c #736E68",
";. c #736F68",
":. c #757166",
">. c #767469",
",. c #7F7D74",
"<. c #838074",
"1. c #868478",
"2. c #868579",
"3. c #8C897E",
"4. c #8B8980",
"5. c #8B8A80",
"6. c #8C8A80",
"7. c #8C8B81",
"8. c #8D8B82",
"9. c #8D8C82",
"0. c #8F8D83",
"q. c #8F8E83",
"w. c #8F8E84",
/* pixels */
"                                                                                                    ",
"                                                                                                    ",
"                                                                                                    ",
"    ! ^ ^ ^ ^ ^ ^ ^ ^ ! ^ - ! ^ ^ ^ ^ ^ ^ ^ ^ ^ ^ ^ ^ ^ ^ ^ ^ ^ ^ ^ / W 3 Q / ! ^ ^ ^ ^ ^ ^ ^       ",
"    2.2.2.2.2.2.2.2.2.2.2.< 2.2.2.2.2.2.2.2.2.2.2.2.2.2.2.2.2.2.2.2.2.<.W 2.2.2.2.2.2.2.2.2.2.      ",
"    5.5.5.5.5.5.5.5.8.0.w.0 8.w.q.8.8.0.8.8.8.5.0.5.5.5.5.5.5.5.8.8.q.3.=.w.9.9.8.8.8.8.8.8.8.      ",
"    | | o.o.o.o.o.o.| :.$.- o.$.o.o.o.o.o.o.o.o.' :.o.o.o.o.o.o.$.o.$.] 2 $.o.o.o.o.o.o.o.o.o.      ",
"    I I I I I I I I I I I * I F I I I I D D D _ A A I I I I I _ _ _ E F , F F F _ I I F F F _       ",
"    I I A _ A I A A I I F * F F _ D D D A _ A _ _ I A _ I I A I F F F c , _ F F D F _ F F F D       ",
"    F D _ A A _ I I A A M * F F B D D D A A A A I A _ A A I A I D D D h , F D F B D D D D D D       ",
"    m D b D b b D m A I F & B F B D D B D D b b D m D e D m A A B B F c , F h F B B B B B B D       ",
"    m m D A b b h D D D B @ h m B h u D u B b b m D b D h D D D D D c q * h h m h B h B h B m       ",
"    m m m b b b h D b b b + h h h B h B b b b b b b b b h D h B h h h 5 & B u B B h B h h h D       ",
"    e e e b b e e e b b b + q h h h h 8 b e e b b b e b e h e e h h h 5 * B u B h h h h h h h       ",
"    e e e e b y e e u e e O h h e e 8 e y 7 y y y y e u e b e e 9 h h 5 $ e u e e e 8 e h 8 h       ",
"    o o o o o o o o o o o % o o o o o o o o o o o o o o o o o o o o o o # O o o o o o o o o o       ",
"    : : : : : : : : : : : : > ; : : o : : : : : : : : : : : : : : : : : : : : : ; % : : : : :       ",
"    : : : : : : : : : : : : : > > > O : > : : : : : > > : : : : : : : : : : : : ; % : : > : :       ",
"    : : : : : : : : : : : : > > : : O : : > : : : : : : : : : : : : : : : : : : ; % : : : > :       ",
"    : : : : : > : : : : : : > > : : O : : : : : , : : : : : : : : : > > : : : : ; % : : : : :       ",
"    8 8 5 7 5 7 7 7 7 7 8 8 8 8 7 7 $ e 9 9 5 5 5 5 9 5 y y 5 y e 5 e 5 7 5 7 7 > : 5 9 9 5 9       ",
"    5 5 5 5 5 6 6 6 6 7 6 7 6 6 6 > + 1 6 5 5 5 5 5 5 5 6 6 5 6 5 5 5 5 5 5 6 6 : % 2 9 5 5 5       ",
"    e h 8 l > 1 _  ._ &.{ { { Z b m h c I I I ~ I _ o._ m 6 e e D e u u e e 7 6 9 6 9 e e m b       ",
"    e e u 7 ; -._ _ _ _ _ _ _ _ _ _ _ _ _ _ _ _ _ _ _ _ A > b e u e u e u e u 7 y y b 9 e e e       ",
"    e u e b : -._ _ _ _ _ _ _ _ _ _ _ _ _ _ _ _ _ _ _ _ F 2 e e u u u 7 7 7 7 u y y e u e e u       ",
"    e e u e : -._ _ _ _ _ _ _ _ _ _ _ _ _ _ _ _ _ _ _ _ F 2 e e u u u u u 7 u u y y b e u b e       ",
"    e e u e * -._ _ _ _ _ _ _ _ _ _ _ _ _ _ _ _ _ _ _ _ D , u e u u u 7 u u u u y y b e e b e       ",
"    e e e e @ o._ _ _ _ _ _ _ _ _ _ _ _ _ _ _ C _ _ _ _ h ; e u u u u 7 u u u u y 7 e u e e e       ",
"    : ; * & @ + + + $ & ; & ; % ; ; O + + + + + O + O O o @ @ @ + + + + @ @ @ @ @ # * 1 6 6 6       ",
"    8 7 u e 8 8 7 7 7 7 6 7 6 7 6 6 + ; > > > 6 1 > > 1 2 > 1 1 6 > > 6 6 6 6 ; ; > 7 8 e e e       ",
"    7 7 7 7 8 7 7 7 7 7 7 7 7 7 7 7 % 6 6 6 6 6 6 6 6 6 6 6 6 6 > 6 6 6 7 6 6 6 ; 1 8 8 8 8 8       ",
"    7 7 7 7 7 7 7 7 7 7 7 7 7 7 7 7 > 6 6 > 6 6 6 6 1 6 6 6 6 6 6 6 6 6 6 6 6 6 > : 8 8 8 8 8       ",
"    8 8 8 7 7 7 7 7 8 7 7 7 7 7 7 7 ; 6 6 6 6 6 6 6 > 6 6 6 6 6 6 6 6 6 6 6 6 6 > > 7 7 7 7 7       ",
"    7 8 5 8 7 7 7 7 8 8 7 7 7 7 7 7 + 6 6 6 6 > 6 6 6 6 6 6 1 6 6 6 6 > 6 6 6 6 > ; 7 7 7 7 u       ",
"    > > ; ; ; ; > > ; : : ; ; : @ + X @ + @ % ; ; ; ; ; 1 1 1 @ @ % + % % + + + X O + > ; > >       ",
"    b _ B _ ; D b D _ u _ D u _ b D b b _ 7 _ _ u _ u u > ; ; _ u C C u C C C u u C u C C _ _       ",
"    7 7 7 7 ; 8 7 7 7 7 8 7 7 7 7 7 7 7 7 7 8 8 7 7 7 7 6 ; 5 7 u u 7 7 7 7 7 7 7 7 7 7 7 7 7       ",
"    5 7 7 7 : 8 7 7 7 7 7 7 7 7 7 7 7 7 7 7 8 8 7 7 7 7 6 > 7 7 7 7 7 7 7 7 7 7 7 7 7 7 7 7 7       ",
"    8 7 7 7 ; 8 7 7 7 7 7 7 7 7 7 7 7 7 7 7 8 8 7 7 7 7 6 > 7 7 7 7 7 7 7 7 7 7 7 7 7 7 7 7 7       ",
"    8 8 7 7 # 5 7 7 7 7 7 7 7 7 7 7 7 7 7 7 8 8 7 7 7 7 7 : 7 7 7 7 7 7 7 7 7 7 7 7 7 7 7 7 7       ",
"    * * * * @ * * & * * * 6 * * * * * * * * * * * * * * & $ = * * * * - 1 * * * ; * * * * * *       ",
"    ( ( ( ( ( ( | ] ~ ~ ~ = ( ( | ( ( ( ( ( ( ( ~ ( ( ( ( ~ | ( ~ ( ~ E < ( ( ( ] ] ] ^ ~ ~ (       ",
"    >.>.>.>.>.>.>.>.>.>.>.3 >.>.>.>.>.>.>.>.>.>.>.>.>.>.>.>.>.>.>.>.>.:.w :.>.>.>.>.>.>.>.>.>.      ",
"    >.>.>.>.>.>.>.>.>.>.>.3 >.>.>.>.>.>.>.>.>.>.>.>.>.>.>.>.>.>.>.>.>.:.w >.>.>.>.>.>.>.>.>.>.      ",
"    ,.,.,.,.,.,.,.,.,.,.,.3 ,.,.,.,.,.,.,.,.,.,.,.,.,.,.,.,.,.,.,.,.,.,.! ,.,.,.,.,.,.,.,.,.,.      ",
"    5 9 9 v 9 9 9 9 9 q 9 1 9 q q q e 9 9 9 9 q q 5 9 9 9 q 9 9 9 9 5 5 2 q 9 9 9 9 q q e 9 9       ",
"    6 6 2 2 5 2 5 2 2 2 5 X 2 5 2 2 5 2 5 2 2 2 5 2 5 2 2 5 2 5 5 2 2 2 $ 2 2 5 6 2 5 2 2 6 6       ",
"    . . . . . . . . . . . . . . . . . . . . . . . . . . . . . . . . . . . . . . . . . . . . .       ",
"                                                                                                    "
};
