/* XPM */
static char *fd926480842d4dacb1bd9b3e756346cbLthnN5SOhGZAXcER[] = {
/* columns rows colors chars-per-pixel */
"50 48 230 2 ",
"   c None",
".  c #512E19",
"X  c #52321E",
"o  c #56331E",
"O  c #57341F",
"+  c #543320",
"@  c #503422",
"#  c #543420",
"$  c #573521",
"%  c #573621",
"&  c #503726",
"*  c #553625",
"=  c #583622",
"-  c #553827",
";  c #563926",
":  c #563927",
">  c #503928",
",  c #523828",
"<  c #523B2B",
"1  c #563929",
"2  c #563B2A",
"3  c #523C2D",
"4  c #563F2F",
"5  c #5A3C29",
"6  c #573F30",
"7  c #583F30",
"8  c #5A402F",
"9  c #564031",
"0  c #574335",
"q  c #584031",
"w  c #594233",
"e  c #5A4234",
"r  c #5B4334",
"t  c #5A4335",
"y  c #5B4435",
"u  c #5B4535",
"i  c #594436",
"p  c #5B4536",
"a  c #5D4737",
"s  c #5E4737",
"d  c #5A4638",
"f  c #5B4739",
"g  c #5C4638",
"h  c #5C4738",
"j  c #5D483A",
"k  c #5D493A",
"l  c #5C493B",
"z  c #58483C",
"x  c #5B493C",
"c  c #5C493C",
"v  c #5D4A3D",
"b  c #5E4A3D",
"n  c #5D4B3E",
"m  c #5E4B3F",
"M  c #634835",
"N  c #634D3A",
"B  c #634F3F",
"V  c #5D4D41",
"C  c #5F4C40",
"Z  c #5E4D41",
"A  c #5F4D41",
"S  c #5E4E41",
"D  c #5F4E41",
"F  c #5D4D42",
"G  c #5D4D43",
"H  c #5D4E42",
"J  c #5E4E42",
"K  c #5F4E42",
"L  c #5E4F43",
"P  c #5E4F44",
"I  c #5F4F45",
"U  c #5B5045",
"Y  c #5B5145",
"T  c #5A5046",
"R  c #5B5146",
"E  c #5E5044",
"W  c #5F5044",
"Q  c #5E5045",
"!  c #5F5045",
"~  c #5E5146",
"^  c #5F5146",
"/  c #5F5147",
"(  c #5C5247",
")  c #5D5247",
"_  c #5F5247",
"`  c #5D5248",
"'  c #5F5349",
"]  c #5F554D",
"[  c #604E40",
"{  c #604E41",
"}  c #604E42",
"|  c #604F43",
" . c #625042",
".. c #675140",
"X. c #605045",
"o. c #625345",
"O. c #605247",
"+. c #635346",
"@. c #635446",
"#. c #655647",
"$. c #615348",
"%. c #605349",
"&. c #60534A",
"*. c #605449",
"=. c #615449",
"-. c #625449",
";. c #60544A",
":. c #61554A",
">. c #60544B",
",. c #60554B",
"<. c #62554A",
"1. c #62554B",
"2. c #62564B",
"3. c #63564C",
"4. c #62574C",
"5. c #63574C",
"6. c #63574D",
"7. c #60564E",
"8. c #61574E",
"9. c #63574E",
"0. c #675849",
"q. c #62584E",
"w. c #63584E",
"e. c #62584F",
"r. c #63594F",
"t. c #635A4F",
"y. c #65584D",
"u. c #655A4D",
"i. c #6A5949",
"p. c #69594A",
"a. c #6C5B4A",
"s. c #6C5C4C",
"d. c #615851",
"f. c #635A51",
"g. c #645950",
"h. c #645B51",
"j. c #645B52",
"k. c #645B53",
"l. c #635C53",
"z. c #645C53",
"x. c #655C53",
"c. c #665C53",
"v. c #665D53",
"b. c #675E53",
"n. c #655D54",
"m. c #655C55",
"M. c #655D55",
"N. c #655E55",
"B. c #675E54",
"V. c #665F55",
"C. c #655D56",
"Z. c #655E56",
"A. c #655E57",
"S. c #665E56",
"D. c #665F56",
"F. c #675F56",
"G. c #665E57",
"H. c #665F57",
"J. c #6B5D51",
"K. c #665F58",
"L. c #666057",
"P. c #686056",
"I. c #686057",
"U. c #686157",
"Y. c #6D6355",
"T. c #666059",
"R. c #676059",
"E. c #676159",
"W. c #676259",
"Q. c #686058",
"!. c #686158",
"~. c #696258",
"^. c #696358",
"/. c #696259",
"(. c #6B6259",
"). c #6A6359",
"_. c #6B6359",
"`. c #68625A",
"'. c #69625A",
"]. c #68635A",
"[. c #69635B",
"{. c #6A635A",
"}. c #69645B",
"|. c #6A645B",
" X c #6A645C",
".X c #6A655C",
"XX c #6B655C",
"oX c #6B655D",
"OX c #6A665C",
"+X c #6B665D",
"@X c #6B675D",
"#X c #6C675E",
"$X c #6C675F",
"%X c #6C685E",
"&X c #6D685F",
"*X c #6D695F",
"=X c #736555",
"-X c #716659",
";X c #746959",
":X c #776C5E",
">X c #776D5F",
",X c #786D5E",
"<X c #786D5F",
"1X c #716A61",
"2X c #726C63",
"3X c #736E62",
"4X c #726C64",
"5X c #726D65",
"6X c #747065",
"7X c #767469",
"8X c #787268",
"9X c #79756D",
"0X c #79766D",
"qX c #7B766C",
"wX c #7A766D",
"eX c #7A766E",
"rX c #7A776E",
"tX c #7B776E",
"yX c #7B776F",
"uX c #7B786E",
"iX c #7C786F",
"pX c #7E7B72",
"aX c #827E71",
"sX c #868377",
"dX c #868579",
"fX c #89887D",
"gX c #8A887E",
"hX c #8A897E",
"jX c #8B897E",
"kX c #8B8A7F",
/* pixels */
"                                                                                                    ",
"  :X:X:X:X:X:X:X:X:X:X3X;Xa.:X,X:X:X:X:X:X:X,X:X:X,X:X:X,X:X:X,X,X3X,X,X,XN :X,X,X:X:X,X,X,X,X:X:X  ",
"  dXdXdXdXdXdXdXdXdXdXdXsX=XsXdXdXdXdXdXdXdXdXdXdXdXdXdXdXdXdXdXdXdXdXdXdX..dXdXdXdXdXdXdXdXdXdXdX  ",
"  fXfXfXfXfXfXfXfXfXfXkXsX,XfXkXkXfXfXfXgXfXfXfXfXfXfXfXfXfXfXfXfXfXfXfXkXs.kXkXkXfXfXfXfXkXfXfXfX  ",
"  9X9X9X9X9X9X9XqXqXuXuX8XJ.uXuXyX9X9XyX9X9X9X9X9X9X9X9X9X9X9X9XqX0X9XuXuXB yXyXyXyX9XyX9X9X9X9X9X  ",
"  &X&X&X&X&X&X&X&X&X%X%XXXo.&X&X&X&X#X#X&X&X#X#X&X&X&X&X&X&X&X&X&X&X&X&X&Xs &X#X#X#X#X#X&X&X#X#X&X  ",
"  &X&X&X&X&X&X&X%X%X&X&XU.@.&X&X#X#X#X#X#X#X#X#X%X&X&X&X&X&X&X#X%X%X&X#X#Xs #X#X#X#X#X#X#X&X#X&X#X  ",
"  &X#X#X#X#X#X@X&X%X}.&XU.@.}.#X#X#X@X@X#X@X@X@X@X@X#X#X#X#X#X#X%X&X}.@X@Xs #X X#X#X@X@X#X}.#X}.@X  ",
"  @X@X@X@X@X@X@X X@X X@XU.o.#X#X@X@X@X.X@X@X.X@X@X@X@X@X@X@X@X X@X X@X@X@Xg @X@X@X@X#X}.@X}.@X}.@X  ",
"  @X@X[.@X}.[.@X X@XoX XL. .XX}. X X`..X`.`..X@X X@X[.@X X X@X X@X X X X#X7 @X}.[.@X}.}.[.@X}.}.}.  ",
"  [.[.[.[.[.[.[.[.[. X[.c.j [.[.`.`..X.X`.@X@X`.[.[.@X[.[.[.[.[.`.@X@X`. X2 [.[.[.[.}.}.}.}.[.}.}.  ",
"  [.[.[.[.[.[.[.[.[.[.[.c.j W.[.`.`.`.`.`.`.`.`.[.[.W. X[.[.[.[. X`.`. XW.* [.[.[.[.[.W.[.[.[.W.[.  ",
"  W.W.W.W.W.[.W.W.[.[.[.j.j [.W.`.`.`.`.`.`.`.`.`.W.W.W.W.W.W.W.W.W.`.`.[.- `.W.W.W.[.K.[.U.[.[.[.  ",
"  W.W.W.K.W.W.W.W.W.K.W.j.p W.W.`.`.K.W.`.K.W.K.W.W.W.W.W.W.K.W.W.W.K.W.W.@ W.T.K.[.K.[.[.[.H.W.W.  ",
"  . . . . . . . . . . . X 4 . . . . . . . . . . . . . . . . . . . . . . . z . . . . . . . . . . .   ",
"  ( ( ( ` ( ( ( R ( ( ( ( ( ( ( T T @ T T T T T T T T T T T T P T T T T T P T T T P , P ( ( ( ( `   ",
"  ( ( ( ( ( R ' ( ( ( ( ( ( ( ( ' ( > R T T T T T T T T T T T T T T T T T T T T T T < T ( ( ( O.`   ",
"  ( ( ( ( ( ( R ( ( ( ( ( ( ( ( T ' > R T T T T T T T T T T T T T T T T T T T T T T 3 T ( ( ( ( `   ",
"  ( ( ( ( ( R ` ( ( ( ( ( ( R ( T T > T T T T P T T T T T T T T T T P P T T T T T T 3 R R ` ( ( `   ",
"  l.l.l.l.l.l.f.l.l.l.l.l.l.l.l.l.l.6 ] ] ] ] ] ] ] ] ] ] ] ] ] ] ] ] 7.] ] ] ] ] ] 0 f.l.c.c.j.H.  ",
"  W.W.W.W.W.W.[.W.[.L.[.[.[.H.[.`.W.2 d.d.d.d.d.d.d.d.d.d.d.d.d.d.d.d.d.d.d.d.d.d.d.6 K.W.W.[.H.H.  ",
"  q.q.-.' V $.7.7.q.q.7.7.7.7.b x f t t y b b C } } } } ( 7.d.` $.w.7.f.7.7.d.C x d t t } 7.d.7.7.  ",
"  [.[.[.[.I [.[.[.[.[.[.[.[.[.[. X XW. X X X[. X[.}.@X[.[.I c c. X X[.[. X[. X[.@XW. X X X[.[. X}.  ",
"  W.W.W.W.A [.K.W.W.L.[.[.K.W.W.W.W.W.K.W.K.W.K.K.[.K.W.W.A (.[.K.W.W.K.W.[.W.W.W.W.W.K.W.W.K.W.[.  ",
"  W.W.K.[.I W.W.K.[.K.K.[.K.[.K.W.K.W.W.K.W.[.K.[.H.W.W.K.A l.W.W.W.K.W.W.K.W.K.K.W.[.K.W.K.W.W.[.  ",
"  W.H.[.H.A W.W.W.W.W.W.W.W.K.W.W.[.K.K.[.W.H.W.W.W.K.W.[.A c.W.K.W.[.K.K.[.W.K.[.W.K.W.W.[.K.H.W.  ",
"  W.W.[.[.g K.W.W.K.[.K.K.H.W.W.K.[.[.W.K.W.[.H.K.W.K.[.W.A H.H.W.W.[.[.W.H.W.W.K.W.W.W.K.[.H.[.W.  ",
"  j.j.7.7.q 7.f.l.H.c.H.H.H.H.j.j.f.j.j.q.H.c.H.H.j.j.6.7.f $.q.l.c.H.H.H.H.H.c.j.j.j.j.j.j.H.H.H.  ",
"  j.j.6.-.-.-.j.H.H.H.m.H.[.c.W.c.j.A H.H.c.[.[.U.j.j.6.6.-.-.w.c.K.K.c.K.c.K.[.c.j.| H.H.c.[.K.[.  ",
"  K.H.K.K.K.K.K.K.K.H.H.H.K.[.K.K.[.A H.K.K.K.K.[.K.K.K.H.K.K.K.K.K.K.K.K.[.K.K.K.[.I H.K.W.c.[.H.  ",
"  K.K.K.K.K.K.K.K.K.K.K.K.K.K.K.K.K.A K.K.K.K.K.H.H.K.K.K.K.K.K.K.K.K.K.K.K.K.K.K.K.I H.K.K.K.K.H.  ",
"  K.K.K.K.K.K.K.K.K.K.K.K.K.K.K.K.K.` A.K.K.K.K.K.K.K.K.K.K.K.K.K.K.K.K.K.K.K.K.K.K.` j.K.K.K.K.K.  ",
"  K.K.K.K.K.K.K.K.K.K.K.K.K.K.K.K.K.` K.K.K.K.K.K.K.K.K.K.K.K.K.K.K.K.K.K.K.K.K.K.K.$.H.K.K.K.K.K.  ",
"  K.K.K.K.K.K.K.K.K.K.W.K.K.K.K.K.K.2 K.K.K.K.K.K.K.K.K.K.K.K.K.K.K.K.K.K.K.K.K.K.K.4 H.K.K.K.K.K.  ",
"  7.7.O.O.` ( ] -.7.$.` -.$.$.` t t * t A ` $.` $.7.d.O.| ` ( 7.7.>.$.>.$.>.$.$.t t * y c $.$.` `   ",
"  #X#XXX(.} 2X4X5X4X4X4X5X4X4X4X1X1X1X1X4X4X5X4X5X5X5X4X4X0.[. XoXoX X#X X X@XoX X[.[.[. XoXoXoX@X  ",
"  K.K.K.K.A $X$X$X$X$X$X@X$X$X$X$X$X$X$X$X$X$X$X#X&X$X$X$X7.m.H.H.K.K.K.K.K.K.K.K.K.K.K.K.K.K.K.K.  ",
"  K.K.K.H.( $X$X$X$X$X$X&X$X$X$X$X$X$X$X$X$X$X$X$X$X$X$X#X6.H.K.K.K.K.K.K.K.K.K.K.K.K.K.K.K.K.K.K.  ",
"  K.K.K.K.7.#X&X$X$X$X$X$X$X$X$X$X$X$X$X$X$X$X$X$X$X$X$X#Xj.H.K.K.K.K.K.K.K.K.K.K.K.K.K.K.K.K.K.K.  ",
"  K.K.K.K.t #X#X$X$X$X$X$X$X$X$X$X$X$X$X$X$X$X$X$X$X$X$X&X| f.K.K.K.K.K.K.K.K.K.K.K.K.K.K.K.K.K.K.  ",
"  W.H.W.W.q &X&X$X$X&X$X$X&X&X$X&X$X$X&X$X$X&X$X$X&X&X#X#XA f.W.H.W.K.W.K.K.W.L.K.K.K.K.K.W.K.K.W.  ",
"  $ $ $ $ O $ % = $ = = 5 | = $ = $ $ = = $ = = $ = $ = = $ $ $ $ $ $ $ $ q.$ $ $ $ $ $ $ $ $ $ $   ",
"  7X7X7X7X7X7X7X7X7X7X7X3Xp.7X7X7X7X7X7X7X7X7X7X7X7X7X7X7X7X7X7X7X7X7X7X7XM 7X7X7X7X7X7X7X7X7X7X7X  ",
"  7X7X7X7X7X7X7X7X7X7X7X5XY.7X7X7X7X7X7X7X7X7X7X7X7X7X7X7X7X7X7X7X7X7X7X7X0.7X7X7X7X7X7X7X7X7X7X7X  ",
"  7X7X7X7X7X7X7X7X7X7X7X6XY.qX6X7X7X7X7X7X7X7X7X7X7X7X7X7X7X7X7X7X7X7X7X7Xp.7X7X7X7X7X7X7X7X7X7X7X  ",
"  pXpXpXpXpXpXpXpXpXpXpXyX-XpXpXpXpXpXpXpXpXpXpXpXpXpXpXpXpXpXpXpXpXpXpXpXp.pXpXpXpXpXpXpXpXpXpXpX  ",
"  L.L.L.L.L.L.L.L.L.L.L.L.w.L.L.L.L.L.L.L.L.L.L.L.L.K.W.L.L.L.L.L.L.H.L.L.@.L.L.L.L.L.L.L.L.W.H.L.  ",
"  L.L.L.L.L.L.L.L.L.L.L.u.p L.L.L.L.L.L.L.L.L.L.L.L.H.H.L.L.L.L.L.L.L.L.W.X L.L.L.L.L.L.L.L.L.L.L.  "
};
