/* XPM */
static char *cd2fb10c0c3c4629def3f98ff8879cced5orM6udqOteGKXI[] = {
/* columns rows colors chars-per-pixel */
"50 50 204 2 ",
"   c #010307",
".  c #02060B",
"X  c #03090E",
"o  c #020710",
"O  c #020A11",
"+  c #080E15",
"@  c #020C1C",
"#  c #080F1A",
"$  c #0A1117",
"%  c #09121D",
"&  c #020E22",
"*  c #070E2A",
"=  c #041125",
"-  c #03132D",
";  c #0A142B",
":  c #0B0F37",
">  c #041534",
",  c #0D1837",
"<  c #051639",
"1  c #0D1339",
"2  c #04193F",
"3  c #161B3A",
"4  c #20223A",
"5  c #180E49",
"6  c #0C1544",
"7  c #071A43",
"8  c #0A1D43",
"9  c #111349",
"0  c #131551",
"q  c #1A1155",
"w  c #1C1E50",
"e  c #16165C",
"r  c #1B135D",
"t  c #2D1B56",
"y  c #0F2245",
"u  c #12264A",
"i  c #18264A",
"p  c #1D2951",
"a  c #282A47",
"s  c #24285A",
"d  c #2A2A5C",
"f  c #322D50",
"g  c #213455",
"h  c #2E3451",
"j  c #2C3D5D",
"k  c #353B5A",
"l  c #1C1562",
"z  c #22146C",
"x  c #350A77",
"c  c #2B137A",
"v  c #2E2967",
"b  c #31356D",
"n  c #46325A",
"m  c #483768",
"M  c #573F7E",
"N  c #2F4160",
"B  c #3C4D6A",
"V  c #45465B",
"C  c #444E66",
"Z  c #4D5A76",
"A  c #515175",
"S  c #5F5F70",
"D  c #684176",
"F  c #674478",
"G  c #3E0985",
"H  c #2D1480",
"J  c #39118F",
"K  c #371291",
"L  c #381292",
"P  c #3E129B",
"I  c #4D2680",
"U  c #562A84",
"Y  c #473B88",
"T  c #542293",
"R  c #632F91",
"E  c #4411A3",
"W  c #4910AB",
"Q  c #4D0FB1",
"!  c #520FBA",
"~  c #5718BB",
"^  c #732BAC",
"/  c #5A4181",
"(  c #624487",
")  c #6A4788",
"_  c #764A8A",
"`  c #774D96",
"'  c #617087",
"]  c #6D718E",
"[  c #68768C",
"{  c #560FC1",
"}  c #5B0EC9",
"|  c #650DD9",
" . c #680CDD",
".. c #6121C3",
"X. c #6B0CE3",
"o. c #6F0CE9",
"O. c #710FE3",
"+. c #710CED",
"@. c #6F15E2",
"#. c #770BF5",
"$. c #780BF7",
"%. c #7C21EC",
"&. c #823F95",
"*. c #804C8A",
"=. c #8C7097",
"-. c #8756A3",
";. c #9C5CA7",
":. c #8C79A8",
">. c #A663B8",
",. c #B368BB",
"<. c #800FF7",
"1. c #8512F7",
"2. c #881BF7",
"3. c #991DF7",
"4. c #8726F8",
"5. c #942DF8",
"6. c #AA26F9",
"7. c #AB3AF9",
"8. c #BF34F5",
"9. c #C737FA",
"0. c #D43EFA",
"q. c #B14ECF",
"w. c #B46BC5",
"e. c #BE6FCD",
"r. c #B349F9",
"t. c #A559F9",
"y. c #9A62E6",
"u. c #A577E6",
"i. c #A760F9",
"p. c #AC6CF9",
"a. c #CA6FD8",
"s. c #C673D2",
"d. c #CC76D8",
"f. c #D87BDE",
"g. c #CD44EE",
"h. c #D25CEB",
"j. c #D845F9",
"k. c #D858F8",
"l. c #E35DF9",
"z. c #DB7DE2",
"x. c #DE61FB",
"c. c #E37EE8",
"v. c #E467F9",
"b. c #EA70F7",
"n. c #ED76F7",
"m. c #EE7CF6",
"M. c #788499",
"N. c #7A859D",
"B. c #8B96A7",
"V. c #8B93AD",
"C. c #989EAB",
"Z. c #939FB9",
"A. c #97A2B7",
"S. c #A5A5B8",
"D. c #A5AEBB",
"F. c #9C86CD",
"G. c #A49CC4",
"H. c #B1B6CD",
"J. c #B2BAC9",
"K. c #B382F1",
"L. c #CE91DE",
"P. c #CEA7DE",
"I. c #D494F0",
"U. c #E582EA",
"Y. c #E48DEC",
"T. c #E698EB",
"R. c #EF86F2",
"E. c #ED8AF1",
"W. c #F386F6",
"Q. c #F489F6",
"!. c #F492F6",
"~. c #F59BF7",
"^. c #F191F8",
"/. c #D9B3FC",
"(. c #EEAFFC",
"). c #F6A4F8",
"_. c #F4ABF9",
"`. c #EFBBFC",
"'. c #F6B1F8",
"]. c #F3BDFB",
"[. c #BEC5CE",
"{. c #BEC4D3",
"}. c #C8CCD6",
"|. c #CED2DB",
" X c #D3D7DE",
".X c #D4D9DF",
"XX c #D8DCE3",
"oX c #DBC2FC",
"OX c #E1DFE7",
"+X c #E6C8FD",
"@X c #F8C1FA",
"#X c #F3CFFD",
"$X c #E8D6FD",
"%X c #F6DFFD",
"&X c #F9DDFB",
"*X c #E3E7EB",
"=X c #EDEAF6",
"-X c #F7E2FC",
";X c #FAE2FC",
":X c #F3EFFC",
">X c #FAEBFC",
",X c #F4F5F7",
"<X c #FAF6FD",
"1X c #FCFEFE",
/* pixels */
"X + + O . . X X . . . . . . . .     . .         . . .           . .       . X .     . . .     . . . ",
". O + X . . X X . . . . . .         . .         . X X .         . X       . . .     . X . . . . X X ",
". X O X . X X X X . . .             . . .   .   . X X . . . . . . X .       . .     . . .   . . . X ",
". . X X X X X O X . . .             . . . . . . . . .     .     . . .       . . . . X .       . . . ",
". . . . X X O O X . . . .     . .   . . . . . . . . .     .       . . . . . . . . . X X X . . X . . ",
". . . . X X X X X X X . . . . . . . . . . . . . . . . . . . .   . . X . . . X . . X X X X X . X X . ",
"X . . . X X . X X X X X . . . . . . . . X . . . . . . . . . . . . . . . . X X X . . X . . . . . . . ",
"X . . . X X . . X X X X X X . . . . . . X . . . . . .   . . . . . . . . . X X X . . . . . . . . X X ",
"O X . X X X . . . X X O O X X . . . . . . . . . . . . . . . . . . . . . . X X . . . . . . X X X . . ",
"O O O X X . . . . . X O O O O X . . . . . . . . . . . . . . X X . . X X X X . . . . . . X O O . . . ",
"O O X X X . . . . . . X O + O O O O O O X . . . . . O O O O O X X X O O O X X X . . . . . X X . X + ",
"X O X X X . . . . . X O + + + # > < < > @ . . . . O > < < > @ O + + + O O X X X . . . X X X . . X + ",
"X X X X X . . . . X O O + + % 3 _ -.-.` f & O . @ 1 J E E P q = + $ + O O O O . . . . O O O . . . O ",
"X X X X X X . . X O O O + + = d d.Q.Q.U./ - O O = e | $.$.+.H - + + O O O O O o . . . O O O o . . . ",
"X X X X X X X X X O O O O O = d d.Q.Q.U.( , O O = e | $.$.+.H - O O O O O O O O O O . . . . o o o o ",
"X X X X X X X X . . . . o O = d d.Q.Q.R.e.) , - > e | $.$.+.H - O . O O O O O O O O o . . . o o o o ",
"X X X X X X X X . . . . . O = d d.Q.Q.W.n.q.U I I T O.$.$.+.W r & O . . . . . o o . O O o . . . . . ",
"O O O O O O O O O O O O O O = d a.W.Q.W.v.j.g.g.g.8.2.1.<.$.+.W 6 @ . . . o o O O O + + O . . O X X ",
". O O O O O O O O O O O O O = s q.b.Q.W.m.n.n.n.l.0.9.8.6.<.$.! 6 @ . . o . o O O O + % + O O O X X ",
". o O O O O O O O O O O O & t ^ h.n.Q.Q.Q.Q.Q.Q.n.l.j.j.9.6.1.! 6 @ . . o o o O O O O + O o . . . . ",
". O O O O O O O O o O O O > R k.m.Q.Q.Q.Q.Q.~.~.~.^.v.k.k.k.5.{ r * o . . . o O O O O . . . . . . . ",
"o O O O O O O O O . O O @ > ) m.W.Q.Q.Q.Q._.;X>X>X>X-X%X%X#Xt.+.} l & . . o O O O O O . O O o . . O ",
"X O O O O O O O O . o @ 1 U q.W.Q.Q.Q.Q.'.&X1X1X1X1X1X1X1X<X/.i.@.z = O O O O O O O O O + + O . X O ",
". O O O O O O O O . . & w q.v.W.Q.Q.!._.&X*X}.[.[.}.,X1X1X<X.XF.~ H 9 @ O O O O O O O O O O . . . . ",
". o O O O O O O O . . & p >.c.U.U.U.T.-X,XD.N j N Z |.,X<X*X[ g v ! K < O O O O O O O O O O . . . X ",
"o o O O O O O O O . . @ 8 m D D D D =.OXC.B p N.D.A.[ J..X[ g B V.Y l < O . O O O O O . O o . X X X ",
". O O O O O O O O O . & y C S S S S ] C.C 2 i N.D.B.g B.[.g 2 B B.j 7 < O o O O O O O O O O O O O O ",
". o O O O O O O O O O ; b S.|.}.|.|.S.V i 2 2 y u u 8 B.[.g 2 8 u 8 7 < O O O O . . O O O O O O + + ",
"O O O O O O O O O O & m w.Y.P.H.XX{.A.] k , 2 2 2 2 7 B.[.g 2 2 2 2 2 < @ O O O . . . O O O O + + + ",
"O O O + O O O O O O - M U.Q.Y.P.H.H.V.' h , 2 2 2 i ' [.XXN.j 2 7 c z < @ O O O . . O O O O O O O O ",
"O O O O O O O O O O - M U.Q.Q.Y.G.A.N.k 4 a j j j Z XX1X1X=XM.j b ~ J > O O O O o o O O O O O X X X ",
"O O O O O O O O O O - M U.Q.Q.Y.G.Z.N.k 4 S }..X.XXX,X1X1X1X*X XH.A 1 @ O O O O O O O O O O O X X . ",
"O O O O O O O O O O - M U.Q.Q.E.L.:.Z h 4 F T.-X1X1X1X1X1X1X1X$Xu.b - O O O O O O O O O O O X X X X ",
"+ O O O O O O O O o = m w.U.Q.Q.Q.>.m f n &.h.(.#X#X#X+XoXoXoXK.~ r & O O O O O O O O O O O O X X X ",
". X O X X O X X O O O ; v e.Q.Q.Q.U.,.n ;.c.m.v.x.x.x.r.5.4.4...l * O X X X O O + + + + O O O X X X ",
". X X . . X X X O O O & p w.Q.Q.Q.Q.c.,.f.Q.Q._.`.`.`./.K.2.$.X.W 0 & X X X O O + + + + O X X X X X ",
". X X   . X . X O . o @ 3 ` s.Q.Q.Q.Q.Q.Q.Q.!.;X1X1X1X1X$Xp.4.$.o.P q @ O O O O O O O O O X X X X X ",
". X . . . . . . . . . o O , ) z.R.Q.Q.Q.Q.Q.).;X1X1X1X1X1X-Xt.$.#.+.E 9 @ O O O O O O O X X X X X X ",
". X . . O O . . . . . . . O 3 / f.Q.Q.Q.Q.).&X<X1X1X1X1X1X:Xi.$.$.$.X.Q 9 @ X X X X X O X X X X X X ",
". X X O + + X . X X . . . . & d d.Q.Q.Q.Q.'.<X1X1X1X1X1X1X:Xi.$.$.$.$.o.E q @ O X X X X X X X X X X ",
". X X O $ $ O X X X . . . . & d d.Q.Q.Q.Q.'.<X1X1X1X1X1X1X:Xy.X.#.$.$.#.#.K > O X X X O O O O O X X ",
". . . X + $ O X X . . . . . & d d.Q.Q.Q.Q.'.<X1X1X1X1X1X1X=X] L +.#.$.$.#.L > O X X O + O O O + X . ",
"X X X X O O X . X X . . . . & d d.Q.Q.Q.Q.~.@X>X1X1X1X1X$XK.Y e P  .$.$.#.K > O . X O + + + O X X X ",
"X X X O X X X . X O . . . . & d d.Q.Q.Q.Q.Q.!.].#X#X#X+XI.%.H < 6 E } } } c = O . X X X O O O X X X ",
"O O O O O O O O X X . . . . & d d.Q.Q.Q.Q.R.c.h.k.k.k.7.4.+.H > @ 6 0 0 0 - O . X X X . X O + X X X ",
"O O O O O O O O O O X . . O = d d.Q.Q.Q.Q.e.( U ^ 3.3.1.$.+.H - O @ & & & O . X X X X . X X + X X . ",
"O O O O O O O O O O O X X + ; d d.Q.Q.R.e.) , - z ! +.$.$.+.H - O X O O X X . . X X X . X X X . . . ",
"O O O O O O O O O O O . . + ; d d.Q.Q.U.( , O O - l | $.$.+.H - O X O X X X X X X X . . . .       . ",
"O O O O O O O O O . . . . O = d d.Q.Q.U./ - O O & e | $.$.+.H - O X X X X X X X X X . . . .       . ",
"O O O X o o O O O O X X O O @ 3 D _ *._ f = O O @ : x G G G 5 @ X X X X X O + + O X .             . "
};
