/* XPM */
static char *_bb594f2b95d4838b5029c40c8dbb1dfcEgyS6zykFc2llg3[] = {
/* columns rows colors chars-per-pixel */
"50 50 170 2 ",
"   c #010307",
".  c #02060B",
"X  c #03090E",
"o  c #020711",
"O  c #030A11",
"+  c #090E15",
"@  c #030D1B",
"#  c #080F1B",
"$  c #0A1117",
"%  c #07111F",
"&  c #0B121B",
"*  c #030E22",
"=  c #090E2D",
"-  c #031126",
";  c #0B1226",
":  c #03122B",
">  c #0A112B",
",  c #041533",
"<  c #0B1335",
"1  c #051739",
"2  c #0C133E",
"3  c #09193B",
"4  c #19163F",
"5  c #101A3B",
"6  c #091640",
"7  c #0D164A",
"8  c #101841",
"9  c #1C1E41",
"0  c #12134B",
"q  c #141C4C",
"w  c #141555",
"e  c #171956",
"r  c #1E1D54",
"t  c #161559",
"y  c #19155E",
"u  c #231C54",
"i  c #291A51",
"p  c #241E5A",
"a  c #1D2043",
"s  c #252348",
"d  c #252753",
"f  c #292856",
"g  c #2A255E",
"h  c #2C2B5D",
"j  c #322C5C",
"k  c #1F1569",
"l  c #22156E",
"z  c #2B1B69",
"x  c #251270",
"c  c #2C1177",
"v  c #2A147C",
"b  c #371F73",
"n  c #2C2460",
"m  c #352065",
"M  c #352866",
"N  c #37226D",
"B  c #3F2E6F",
"V  c #3A3062",
"C  c #3F2474",
"Z  c #443469",
"A  c #4F396F",
"S  c #4C257C",
"D  c #433072",
"F  c #473872",
"G  c #2D1480",
"H  c #321387",
"J  c #36128C",
"K  c #3C1195",
"L  c #401495",
"P  c #562888",
"I  c #592A88",
"U  c #5F2A90",
"Y  c #63398C",
"T  c #632C92",
"R  c #6F2C9D",
"E  c #74389D",
"W  c #4411A3",
"Q  c #4A10AF",
"!  c #550EBF",
"~  c #4D10B2",
"^  c #5B16B6",
"/  c #722DA0",
"(  c #66438C",
")  c #68488C",
"_  c #724C91",
"`  c #7D519B",
"'  c #560FC1",
"]  c #5C0ECA",
"[  c #5F0DD0",
"{  c #6915CC",
"}  c #620DD4",
"|  c #670DDC",
" . c #680DDE",
".. c #6C13D5",
"X. c #7B1BD4",
"o. c #6F0CE8",
"O. c #710BEC",
"+. c #7411E5",
"@. c #7E12EE",
"#. c #740BF2",
"$. c #780BF7",
"%. c #832FAE",
"&. c #9233BD",
"*. c #83539D",
"=. c #8A45AD",
"-. c #8655A2",
";. c #925BAC",
":. c #A665BB",
">. c #811ED6",
",. c #9B3EC0",
"<. c #A436CC",
"1. c #A73CCC",
"2. c #AC38D4",
"3. c #AC35DA",
"4. c #B037DA",
"5. c #B33ADA",
"6. c #8B1EE3",
"7. c #800FF7",
"8. c #8312F7",
"9. c #981DF8",
"0. c #9F25EF",
"q. c #AB2EE9",
"w. c #BF3BE4",
"e. c #A323F9",
"r. c #AA27F9",
"t. c #B22BF9",
"y. c #B92FF9",
"u. c #BF35F3",
"i. c #B630F9",
"p. c #BB30FA",
"a. c #C13CE7",
"s. c #C53DEA",
"d. c #C036F2",
"f. c #C535FA",
"g. c #D23FF6",
"h. c #D53EF9",
"j. c #AD5AC5",
"k. c #B244D5",
"l. c #B745D8",
"z. c #BF4FDC",
"x. c #AE68C0",
"c. c #B868C9",
"v. c #C351DF",
"b. c #C765DA",
"n. c #CF77DA",
"m. c #D177DD",
"M. c #D24AF1",
"N. c #D741F9",
"B. c #D841FB",
"V. c #DC4BFA",
"C. c #D954F3",
"Z. c #DF52FA",
"A. c #D859F8",
"S. c #E157F9",
"D. c #E45EF9",
"F. c #D576E0",
"G. c #DE7EE6",
"H. c #DE67F0",
"J. c #E66AF6",
"K. c #EA6FF7",
"L. c #E563F8",
"P. c #E666F8",
"I. c #E96DF8",
"U. c #EC74F7",
"Y. c #ED7DF4",
"T. c #E984ED",
"R. c #EE86F2",
"E. c #F283F6",
"W. c #F386F6",
"Q. c #F489F6",
/* pixels */
"X + + O . . X X . . . . . . . .     . .         . . .           . .       . X .     . . .     . . . ",
". O + X . . X X . . . . . .         . .         . X X .         . X       . . .     . X . . . . X X ",
". X O X . X X X X . . .             . . .   . . . X X . . . . . . X .       . .     . . .   . . . X ",
". . X X X X X O X . . .             . . . . . . . . .     .     . . .       . . . . X .       . . . ",
". . . . X X O O X . . . .     . .   . . . . . . . . .     .       . . . . . . . . . X X X . . X X . ",
". . . . X X X X X X X . . . . . . . . . . . . . . . . . . . .   . . X . . . X . . X X X X X . X X . ",
"X . . . X X . X X X X X . . . . . . . . X . . . . . . . . . . . . . . . . X X X . . X . . . . . . . ",
"X . . . X X . . X X X X X X . . . . . . X . . . . . .   . . . . . . . . . X X X . . . . . . . . X X ",
"O X . X X X . . . X X O O X X . . . . . . . . . . . . . . . . . . . . . . X X . . . . . . X X X . . ",
"O O O X X . . . . . X O O O O X . . O @ @ O . . . . . . . . O @ @ O X X X X . . . . . . X O X . . . ",
"O O X X X . . . . . . X O + O O O O 9 h f ; O . . . X . X O = t y 2 + O O X X X . . . . . X X . X + ",
"X O X X X . . . . . X O + + + + & 5 *.m.c.V - . . . X . O : l [ | K < # O X X X . . . X X X . . X + ",
"X X X X X . . . . X O O + + + % a *.n.Q.T.x.A - O . . O : c ] #.$.} K 2 # O O . . . . O O O . . . X ",
"X X X X X X . . X O O O + + + - h n.Q.Q.Q.Q.:.Z > * @ = x ' $.$.$.$.} w * O O o . . . O O O o . . . ",
"X X X X X X X X X O O O O O O * d c.T.Q.Q.Q.R.c.M r r z ..$.$.$.$.O.! 0 * O O O O O . . . . o o o o ",
"X X X X X X X X . . . . o O O O ; j :.Q.Q.Q.I.M.5.2.2.4.u.9.$.$.$.~ w * O O O O O O o . . . o o o o ",
"X X X X X X X X . . . . . O O O @ 3 =.K.W.Q.U.P.P.P.S.B.h.p.r.e.8.W , O . . . o o o O O o . . . . . ",
"o O O O O O O O O O O O O O O O > m ,.L.W.Q.Q.Q.Q.Q.U.Z.Z.Z.V.h.e.^ y * O . o O O O + # O . . O X X ",
". O O O O O O O O O O O O O O * u 1.H.E.Q.Q.Q.Q.Q.Q.W.E.E.E.K.V.h.0.' 0 @ . . O O O + & + O O O X X ",
". o O O O O O O O O O O O O O * g b.E.Q.Q.Q.Q.Q.Q.Q.Q.Q.Q.Q.E.I.V.r.} w * . . O O O O + O o . . . . ",
". O O O O O O O O o O O O O @ i E G.Q.Q.Q.Q.Q.Q.Q.Q.Q.Q.Q.Q.Q.E.Z.p.6.L 0 @ O O O O O . . . . . . . ",
"O O O O O O O O O . O O O O , I C.Y.Q.Q.Q.Q.Q.Q.Q.Q.Q.Q.Q.Q.Q.E.Z.h.f.@.v : O O O O O . O O o . . O ",
"X O O O O O O O O . o O O + , ( Y.W.Q.Q.Q.Q.Q.Q.Q.Q.Q.Q.Q.Q.Q.E.Z.B.f.@.G : O O O O O O + + O . X O ",
". O O O O O O O O . . O O + , ) R.Q.Q.Q.Q.Q.Q.Q.Q.Q.Q.Q.Q.Q.Q.E.Z.B.f.@.G : O O O O O O O O . . . . ",
". o O O O O O O O . o O O + , ) R.Q.Q.Q.Q.Q.Q.Q.Q.Q.Q.Q.Q.Q.Q.E.Z.B.f.@.G : O O O O O O O O . . . X ",
"o o O O O O O O O . . O + & , ) R.Q.Q.Q.Q.Q.Q.Q.Q.Q.Q.Q.Q.Q.Q.E.Z.B.f.@.G : O O O O O . O o . X X X ",
". O O O O O O O + O . O & & , ) R.Q.Q.Q.Q.Q.Q.Q.Q.Q.Q.Q.Q.Q.Q.E.Z.B.f.@.G : O O O O O O O O O O O O ",
". o O O O O O O O O . O + # , Y J.E.Q.Q.Q.Q.Q.Q.Q.Q.Q.Q.Q.Q.Q.E.Z.B.f.@.G : O O . . O O O O O O + + ",
"O O O O O O O O O O . . O @ , S k.Y.Q.Q.Q.Q.Q.Q.Q.Q.Q.Q.Q.Q.Q.E.Z.B.d.{ l - O O . . . O O O O + + + ",
"O O O + O O O O O O . . * 8 q q B m.W.Q.Q.Q.Q.Q.Q.Q.Q.Q.Q.Q.W.Y.Z.h.3.z > O O O . . O O O O O O O O ",
"O O O O O O O O O O . * i %.&.P g z.U.Q.Q.Q.Q.Q.Q.Q.Q.Q.Q.Q.Y.S.V.y.X.e , * O O o o O O O O O X X X ",
"O O O O O O O O O O O : N a.B.<.R s.I.Q.Q.Q.Q.Q.Q.Q.Q.W.U.I.A.i.t.>.W J H k * O O O O O O O O X X . ",
"O O O O O O O O O O O : N a.B.h.g.N.I.Q.Q.Q.Q.Q.Q.Q.Q.E.S.V.p.8.$.~ v  .#.Q 3 @ O O O O O O X X X X ",
"+ O O O O O O O O . O : N w.h.h.h.N.J.Q.Q.Q.Q.Q.Q.Q.Q.W.Y.S.p.7.$.o. .#.$.~ 6 @ O O O O O O O X X X ",
". X O X X O X X O O O @ 4 P U U U T c.Q.Q.Q.Q.Q.Q.Q.Q.Q.Q.D.p.7.$.$.$.$.$.~ 6 # + + + + O O O X X X ",
". X X . . X X X O O O O @ : , , , 6 ;.Q.Q.Q.Q.Q.Q.Q.Q.Q.Q.D.p.$.[ ' ' ' ' J , + + + + + O X X X X X ",
". X X   . X . X X . . o O O O O @ 3 ;.Q.Q.Q.Q.Q.Q.Q.Q.Q.Q.D.p.+.v 7 7 7 7 < O O O O O O O X X X X X ",
". X . . . . . . . . . o . O O O @ 3 ;.Q.Q.Q.Q.Q.Q.Q.Q.Q.Q.D.p.+.l : @ @ @ O O O O O O O X X X X X X ",
". X . . O O . . . . . . . . . . O 3 ;.Q.Q.Q.Q.Q.Q.Q.Q.Q.Q.D.p.+.l : O O O O X X X X X O X X X X X X ",
". X X O + + X . X X . . . . . . O 3 ;.Q.Q.Q.Q.Q.Q.Q.Q.Q.Q.D.p.+.l - X O O X X X X X X X X X X X X X ",
". X X O $ $ O X X X . . . . . . o 3 ;.Q.Q.Q.Q.Q.Q.Q.Q.Q.Q.D.p.+.l : X X X X X X X X X O O O O O X X ",
". . . X + $ O X X . . . . . . . o 3 ;.Q.Q.Q.Q.Q.Q.Q.Q.Q.Q.D.p.+.l : X X X X X X X X O + O O O + X . ",
"X X X X O O X . X X . . . .     O 3 ;.Q.Q.Q.Q.Q.W.U.I.I.I.Z.p.+.l : . . X X . . . X O + + + O X X X ",
"X X X O X X X . O O . . . . .   O 3 ;.Q.Q.Q.W.Y.F.v.s.B.B.B.p.+.l : . X X X . . . X X X O O O X X X ",
"O O O O O O O O X X . . . . . . o 3 ;.Q.Q.Q.I.l.D n R g.B.B.p.+.l : X X O X . . X X X . X O + X X X ",
"O O O O O O O O O O X . . O + O o 3 ;.Q.Q.Q.j.S < - i / s.B.p.+.l : O O O X . X X X X . X X + X X . ",
"O O O O O O O O O O O X X + & + O 3 ;.Q.Q.Q.` , O X * p 5.B.p.+.l : O O X X . . X X X . X X X . . . ",
"O O O O O O O O O O O . . + & + @ 3 -.G.G.G._ , O X @ u <.s.q...k : O X X X X X X X . . . .       . ",
"O O O O O O O O O . . . . O + O @ 1 h F F F s @ O o O > m C b l 7 : X X X X X X X X . . . .       . ",
"O O O X o o O O O O X X O O O O O - : : : : @ O o . X O * - - - - @ X X X O + + O X .             . "
};
