/* XPM */
static char *_eb6b7d684d5456ec9fdae20c29fdbbaAPhQ2bz2uQdq5lQA[] = {
/* columns rows colors chars-per-pixel */
"50 50 195 2 ",
"   c #010307",
".  c #02060B",
"X  c #03090E",
"o  c #020710",
"O  c #020A11",
"+  c #080E14",
"@  c #020D1C",
"#  c #0A1117",
"$  c #07101B",
"%  c #0B121B",
"&  c #030F24",
"*  c #080E27",
"=  c #090E2A",
"-  c #071023",
";  c #03122B",
":  c #080F30",
">  c #041635",
",  c #0C1434",
"<  c #051738",
"1  c #0C113B",
"2  c #04193F",
"3  c #131834",
"4  c #171B3B",
"5  c #0C1747",
"6  c #191844",
"7  c #14124C",
"8  c #0F1750",
"9  c #131651",
"0  c #141757",
"q  c #251A4E",
"w  c #15284B",
"e  c #1E2052",
"r  c #1F3254",
"t  c #212452",
"y  c #2E2751",
"u  c #2E2A56",
"i  c #253758",
"p  c #1F1363",
"a  c #201365",
"s  c #22136A",
"d  c #320B76",
"f  c #241573",
"g  c #2A1679",
"h  c #342165",
"j  c #312975",
"k  c #4C3976",
"l  c #4F3479",
"z  c #374668",
"x  c #3D4D6A",
"c  c #3F506D",
"v  c #3E4871",
"b  c #41516E",
"n  c #4A4E7E",
"m  c #465671",
"M  c #4D5C77",
"N  c #6B4278",
"B  c #3D0C87",
"V  c #2E1481",
"C  c #351587",
"Z  c #361189",
"A  c #420B8F",
"S  c #42119F",
"D  c #50338C",
"F  c #60288C",
"G  c #73319E",
"H  c #4211A0",
"J  c #4918A6",
"K  c #4B10AF",
"L  c #510FB8",
"P  c #4B10B0",
"I  c #5222AD",
"U  c #5420B0",
"Y  c #7C2EAB",
"T  c #7E37A6",
"R  c #5F4282",
"E  c #674687",
"W  c #754988",
"Q  c #744995",
"!  c #794F96",
"~  c #7A5099",
"^  c #6E7694",
"/  c #570EC2",
"(  c #5D0ECB",
")  c #630DD6",
"_  c #670DDD",
"`  c #7123DA",
"'  c #6C0CE5",
"]  c #6F0CE9",
"[  c #7919E7",
"{  c #750BF3",
"}  c #790CF7",
"|  c #7F18F7",
" . c #8B34B8",
".. c #854E8C",
"X. c #80539D",
"o. c #8649A8",
"O. c #8C58A7",
"+. c #8E59A8",
"@. c #9151AF",
"#. c #A865BB",
"$. c #A73DCD",
"%. c #8C1DF6",
"&. c #931AF8",
"*. c #981DF8",
"=. c #9A26F7",
"-. c #963EF8",
";. c #A42BE6",
":. c #A727F9",
">. c #B42CF9",
",. c #BC32F9",
"<. c #C937FA",
"1. c #D43EFB",
"2. c #AC46CE",
"3. c #B64AD6",
"4. c #BF50DC",
"5. c #BD61D2",
"6. c #9D5FEB",
"7. c #9744F8",
"8. c #9B4DF9",
"9. c #B344F7",
"0. c #B84CF6",
"q. c #AE5CFA",
"w. c #A675E9",
"e. c #A863F9",
"r. c #C472D1",
"t. c #D178DB",
"y. c #D558ED",
"u. c #D946FA",
"i. c #C85DF8",
"p. c #DA52F9",
"a. c #E056F9",
"s. c #E35CF9",
"d. c #D965EB",
"f. c #D676E3",
"g. c #DA7DE2",
"h. c #D468F6",
"j. c #D669F6",
"k. c #DF63FB",
"l. c #DB75F7",
"z. c #E06CEF",
"x. c #E47DEB",
"c. c #E96EF7",
"v. c #E666F8",
"b. c #EC74F7",
"n. c #EE7CF6",
"m. c #E677F8",
"M. c #F07FF6",
"N. c #768297",
"B. c #818C9F",
"V. c #9795B0",
"C. c #9AA4B3",
"Z. c #9EA8B6",
"A. c #A1AAB8",
"S. c #BE8CFA",
"D. c #C495FB",
"F. c #E582EA",
"G. c #E882ED",
"H. c #EE85F4",
"J. c #E583FC",
"K. c #EB8FFA",
"L. c #F285F6",
"P. c #F489F6",
"I. c #E799FC",
"U. c #F493F7",
"Y. c #F59DF7",
"T. c #C7A9F2",
"R. c #EABAEF",
"E. c #E0A0FC",
"W. c #EBA4FC",
"Q. c #F5A2F7",
"!. c #F6AAF8",
"~. c #F4B4FA",
"^. c #F7BBF9",
"/. c #BBC2CC",
"(. c #CDCEDE",
"). c #CED3DA",
"_. c #DFDAE9",
"`. c #E0DCE8",
"'. c #E3CFFC",
"]. c #F8C7FA",
"[. c #F6CFFC",
"{. c #E9DCFD",
"}. c #F9D6FB",
"|. c #F9DDFB",
" X c #DFE1E9",
".X c #E2E5EA",
"XX c #E5E9EC",
"oX c #EDEAF3",
"OX c #EDE4F8",
"+X c #F6E6FD",
"@X c #F8EAFD",
"#X c #EFF2F4",
"$X c #F5F2FD",
"%X c #FAF4FE",
"&X c #FCFEFE",
/* pixels */
"X + + O . . X X . . . . . . . .     . .         . . .           . .       . X .     . . .     . . . ",
". O + X . . X X . . . . . .         . .         . X X .         . X       . . .     . X . . . . X X ",
". X O X . X X X X . . .             . . .   .   . X X . . . . . . X .       . .     . . .   . . . X ",
". . X X X X X O X . . .             . . . . .   . . .     .     . . .       . . . . X .       . . . ",
". . . . X X O O X . . . .     . .   . . . . . . . . .     .       . . . . . . . . . X X X . . X . . ",
". . . . X X X X X X X . . . . . . . . . . . . . . . . . . . .   . . X . . . X . . X X X X X . X X . ",
"X . . . X X . X X X X X . . . . . . . . X . . . . . . . . . . . . . . . . X X X . . X . . . . . . . ",
"X . . . X X . . X X X X X X . . . . . . X . . . . . .   . . . . . . . . . X X X . . . . . . . . X X ",
"O X . X X X . . . X X O O X X . . . . . . . . . . . . . . . . . . . . . . X X . . . . . . X X X . . ",
"O O O X X . . . . . X O O O O X . . . . . . . . . . . . . . X X . . X X X X . . . . . . X O X . . . ",
"O O X X X . . . . . . X O + O O X X . . . . . . . . X . X X X X X X O O O X X X . . . . . X X . X + ",
"X O X X X . . . . . X O + + + + + X X X X O O . . . X . X X O + + + + O O X X X . . . X X X . . X + ",
"X X X X X . . . . X O O + + + + + O X X @ > < & . . . . . O ; < > # + O O O O . . . . O O O . . . O ",
"X X X X X X . . X O O O + + + + O O O @ 7 S K s & O . . O , E +.Q 4 @ O O O O o . . . O O O o . . . ",
"X X X X X X X X X O O O O O O O O O O ; f ] } L p * O @ 3 k r.P.t.R 4 @ O O O O O O . . . . o o o o ",
"X X X X X X X X . . . . . O O O O O O 1 V ] } { / 5 & 3 k t.H.P.L.g.k ; O O O O O O o . . . o o o o ",
"X X X X X X X X . . . . . O O O O O ; Z _ { } } ( 8 < E t.H.P.P.P.F.k ; . . . o o o O O o . . . . . ",
"o O O O O O O O O O O O O O O O O O > H } } } &.;.Y Y 2.v.L.P.P.g.! q @ . . . O O O + # O . . O X X ",
". O O O O O O O O O O O O O O O O * p L } &.&.>.u.p.a.a.v.L.P.M.5.t @ . . . . O O O + # + O O O X X ",
". O O O O O O O O O O O O O O . @ 7 / { *.<.1.u.a.n.L.L.L.P.P.c.3.h * O . . . O O O O + O o . . . . ",
". O O O O O O O O o O O O O O . @ 9 ( =.<.1.u.s.n.L.P.P.P.P.P.L.z.$.h & . . O O O O O . . . . . . . ",
"o O O O O O O O O . O O O O O @ 7 H ] q.W.W.W.~.].].].!.P.P.P.P.L.d.l ; . O O O O O O . O O o . . O ",
"X O O O O O O O O . o O O O O ; f ] -.T.&X&X&X&X&X&X&X}.Q.P.P.P.P.G.Q q @ O O O O O O O + + O . X O ",
". O O O O O O O O . . O O + @ 1 g ` T.oX&X&X&X#X.X.X.XoX|.Y.P.P.P.L.y.G > O O O O O O O O O . . . . ",
". o O O O O O O O . o O O @ ; Z K f z A.&X&X&XC.x x x C.%X|.Q.P.P.P.n.o.> O O O O O O O O O . . . X ",
"o o O O O O O O O . . O + % > f D ^ r m A.XXC.B.B.N.i x C.oX!.P.P.P.P.O.> O O O O O O . O o . X X X ",
". O O O O O O O + O . O # % > 2 M ).x 2 m ).b B.&XXXm 2 x `.!.P.P.P.P.O.> O O O O O O O O O O O O O ",
". o O O O O O O O O . O + $ > 2 m /.z 2 m ).b N.XX).c 2 x `.!.P.P.P.P.O.> O O O . . O O O O O O + + ",
"O O O O O O O O O O o . O @ > 2 w z w 5 m ).b i m x w 2 x `.!.P.P.P.P.O.> O O O . . . O O O O + + + ",
"O O O + O O O O O O . . O @ > f g 5 2 m Z.XXC.c 2 2 2 x V.R.Y.P.P.L.b.o.> O O O . . O O O O O O O O ",
"O O O O O O O O O O . . O O ; Z U v x A.&X&X&XC.x x x C.+XU.P.P.P.H.4.F ; O O O o o O O O O O X X X ",
"O O O O O O O O O O O O O O O , n (. X#X&X&X&X#X.X.X_.oX|.U.P.P.P.x.D 1 O O O O O O O O O O O X X . ",
"O O O O O O O O O O O O O O O ; j 6.{.&X&X&X&X&X&X%XI.K.Q.P.P.P.M.y.l ; O O O O O O O O O O X X X X ",
"+ O O O O O O O O . O O O O O @ 7 J w.S.S.D.E.W.W.W.m.b.P.P.P.P.f.T q @ O O O O O O O O O O O X X X ",
". X O X X O X X O O O O O O O O @ 5 K ] | -.i.k.k.a.n.P.P.P.P.P.r.t @ X X X O O + + + + O O O X X X ",
". X X . . X X X O O O O O O O O O & 9 P 7.'.+X+X[.U.P.L.H.P.P.P.r.u - O X X O O + + + + O X X X X X ",
". X X   . X . X O . . . O O O O @ 1 S _ 8.+X&X&X%X}.Y.i.9.n.P.P.F.#.u & X O O O O O O O O X X X X X ",
". X . . . . . . . . . . . O O O @ 9 ( 7.D.$X&X&X&X%X!.0.=.m.P.P.P.F.k ; O O O O O O O O X X X X X X ",
". X . . O O . . . . . . . . . O = s ) S.&X&X&X&X&X%X^.i.=.j.H.P.P.G.Q 6 O O X X X X X O X X X X X X ",
". X X O + + X . X X . . . . . & s ) { S.&X&X&X&X&X&X%XI.,.=.j.P.P.P.g.! > O X X X X X X X X X X X X ",
". X X O # # O X X X . . . . . & f ] } S.&X&X&X&X&X&X&XW.<.%.j.P.P.P.P.O.> O X X X X X O O O O O X X ",
". . . X + # O X X . . . . . . & f ] } S.&X&X&X&X&X&X&X~.p.:.9.j.P.P.P.O.> O X X X X O + O O O + X . ",
"X X X X O O X . X X . . . .   & a ( ) w.{.%X&X&X&X&X@X^.b.u.:.9.l.l.t.Q > O . . . X O + + + O X X X ",
"X X X O X X X . O O . . . . . . * 9 0 I e.OX%X%X%X@X~.U.n.u.1.>.%.[ D 4 O X . . . X X X O O O X X X ",
"O O O O O O O O X X . . . . . . . @ > H %.e.l.J.J.J.H.P.L.c.p.<.;.C 1 @ O X . . X X X . X O + X X X ",
"O O O O O O O O O O X . . O + O . o > H } } :.>.;. .@.r.P.L.v.s.3.e @ O O X . X X X X . X X + X X . ",
"O O O O O O O O O O O X X + % + . o ; Z ' { } } ( 0 5 ~ P.P.L.L.r.t @ O X X . . X X X . X X X . . . ",
"O O O O O O O O O O O . . + % + o . O 1 V ] } } ( 8 2 Q H.P.P.P.r.t @ X X X X X X X . . . .       . ",
"O O O O O O O O O . . . . O + O O O O ; f ] { } ( 8 ; y X.F.P.P.r.t @ X X X X X X X . . . .       . ",
"O O O X o o O O O O X X O O O O O O O & 7 B A A d : O @ 4 W ....N 3 O X X O + + O X .             . "
};
