/* XPM */
static char *_36bb3f4821d45e7edf172dd9c11b95dKXnzu5dcUzpDT1KL[] = {
/* columns rows colors chars-per-pixel */
"50 50 194 2 ",
"   c #010307",
".  c #02060C",
"X  c #03090E",
"o  c #020710",
"O  c #030A11",
"+  c #080E14",
"@  c #020C1B",
"#  c #090F1A",
"$  c #0A1117",
"%  c #0B1119",
"&  c #040E22",
"*  c #070E28",
"=  c #080E2A",
"-  c #051124",
";  c #0A1125",
":  c #04122C",
">  c #0B142A",
",  c #090E30",
"<  c #051432",
"1  c #0A1435",
"2  c #0C133E",
"3  c #04183F",
"4  c #101537",
"5  c #121A3C",
"6  c #0D1543",
"7  c #0A1845",
"8  c #0B1D44",
"9  c #161946",
"0  c #13134D",
"q  c #141453",
"w  c #1A145D",
"e  c #191858",
"r  c #241A57",
"t  c #0E2247",
"y  c #182649",
"u  c #1B224C",
"i  c #1A2350",
"p  c #1B2E51",
"a  c #212146",
"s  c #2D2657",
"d  c #322C5E",
"f  c #283B5B",
"g  c #1D1564",
"h  c #241268",
"j  c #291276",
"k  c #2C147E",
"l  c #392E67",
"z  c #3B3060",
"x  c #393B73",
"c  c #422A6F",
"v  c #473469",
"b  c #46257C",
"n  c #2F4060",
"m  c #334463",
"M  c #394967",
"N  c #41506E",
"B  c #4A5A75",
"V  c #505F79",
"C  c #53637C",
"Z  c #371889",
"A  c #3F0D94",
"S  c #3E1096",
"D  c #3C1297",
"F  c #42159B",
"G  c #532792",
"H  c #4E0CAA",
"J  c #4411A4",
"K  c #4810AA",
"L  c #500FB7",
"P  c #530FBC",
"I  c #5411BB",
"U  c #5F2FB4",
"Y  c #7D38A6",
"T  c #6632BC",
"R  c #5F5D92",
"E  c #684481",
"W  c #794E94",
"Q  c #5D6B83",
"!  c #647289",
"~  c #66748A",
"^  c #6B6A9A",
"/  c #717E93",
"(  c #5C0AC1",
")  c #5C0ECA",
"_  c #5A13C4",
"`  c #761CCC",
"'  c #610DD2",
"]  c #660EDA",
"[  c #680DDE",
"{  c #7826C7",
"}  c #6D0CE5",
"|  c #6F0DE9",
" . c #7716EA",
".. c #760BF4",
"X. c #790CF7",
"o. c #7D16F4",
"O. c #8636AD",
"+. c #8756A2",
"@. c #8C55A8",
"#. c #9450B2",
"$. c #9D58B7",
"%. c #A35ABC",
"&. c #9D60B3",
"*. c #A564BA",
"=. c #B368BA",
"-. c #963AC1",
";. c #8411F6",
":. c #8B16F7",
">. c #8528F3",
",. c #9729F6",
"<. c #9437F4",
"1. c #AB33E5",
"2. c #A329F8",
"3. c #B62EFA",
"4. c #A63AF6",
"5. c #B632F8",
"6. c #C639F9",
"7. c #B54BD3",
"8. c #AF68C0",
"9. c #B96BC7",
"0. c #9655EA",
"q. c #9A4AF8",
"w. c #B246F6",
"e. c #A45EF9",
"r. c #A168EB",
"t. c #B170FA",
"y. c #CF6CDF",
"u. c #C372D1",
"i. c #D479DE",
"p. c #CB47EC",
"a. c #C95AEB",
"s. c #D646F9",
"d. c #DB57F4",
"f. c #E058F9",
"g. c #D96CE8",
"h. c #D97CE2",
"j. c #DB7AE7",
"k. c #CC63F8",
"l. c #DA6FF6",
"z. c #DA78F9",
"x. c #E477EF",
"c. c #E563F8",
"v. c #E677F7",
"b. c #EA73F5",
"n. c #ED7BF6",
"m. c #E171FB",
"M. c #F07EF7",
"N. c #798599",
"B. c #818C9F",
"V. c #8894A5",
"C. c #96A0AF",
"Z. c #99A2B1",
"A. c #A5AEBB",
"S. c #AAB2BE",
"D. c #AA9ECE",
"F. c #ADB5C2",
"G. c #B9BFCB",
"H. c #B989F5",
"J. c #C3AFD1",
"K. c #D485FB",
"L. c #E983EE",
"P. c #EC84F2",
"I. c #EA84F7",
"U. c #E58DFB",
"Y. c #F285F5",
"T. c #F489F6",
"R. c #EA95FB",
"E. c #ED9BF9",
"W. c #F494F6",
"Q. c #F59BF7",
"!. c #DEA1FC",
"~. c #EBA9FC",
"^. c #F3ABF6",
"/. c #F7B3F9",
"(. c #BCC3CC",
"). c #C5CBD3",
"_. c #D4D9DF",
"`. c #DFD0F7",
"'. c #EAD6EF",
"]. c #F7C3F9",
"[. c #F8CCFA",
"{. c #E7D8FC",
"}. c #F4D7F8",
"|. c #F5DBFC",
" X c #E5E8EC",
".X c #EDE3FC",
"XX c #F5E6FA",
"oX c #F3ECFC",
"OX c #F9EBFD",
"+X c #EDF0F2",
"@X c #F2F5F6",
"#X c #FAF3FD",
"$X c #F7F8FC",
"%X c #FBFDFE",
/* pixels */
"X + + O . . X X . . . . . . . .     . .       . . . .           . .       . X .     . X .     . . . ",
". O + X . . X X . . . . . .         . .       . . X X .         . X       . . .     . X . . . . X X ",
". X O X . X X X X . . .             . . .       . X X . . . .   . X .       . .     . . .   . . . X ",
". . X X X X X O X . . .             . . . .     . . .           . . .       . .   . X .       . . . ",
". . . . X X O O X . . . .     . .   . . . . . . . . .     .       . . . . . . . . . X X X . . X . . ",
". . . . X X X X X X X . . . . . . . . . . . . . . . . . . . .   . . X . . . X . . X X X X X . X X . ",
"X . . . X X . X X X X X . . . . . . . . X . . . . . . . . . . . . . . . . X X X . . X . . . . . . . ",
"X . . . X X . . X X X X X X . . . . . . X . . . . . .   . . . . . . . . . X X X . . . . . . . . X X ",
"O X . X X X . . . X X O O X X . . . . . . . . . . . . . . . . . . . . . . X X . . . . . . X X X . . ",
"O O O X X . . . . . X O O O O X . . . . . . . . . . . . . . X X . . X X X X . . . . . . X O X . . . ",
"O O X X X . . . . . . X O + O O X X . . . . . . . . X . X X X X X X O O O X X X . . . . . X X . X + ",
"X O X X X . . . . . X O + + + + + X X X . . . . . . . . X X O O + + + O O X X X . . . X X X . . X + ",
"X X X X X . . . . X O O + + + + + O O O X X X . . . . . . X O + + $ + O O O O . . . . O O O . . . O ",
"X X X X X X . . X O O O + + + + O @ & @ @ O O O O . @ @ @ O O O + + O O O O O o . . . O O O o . . . ",
"X X X X X X X X X O O O O O O O @ u z d > @ O O O @ 6 g w * O O O O O O O O O O O O . . . . o o o o ",
"X X X X X X X X . . . . . O O @ 1 W u.8.z ; @ O @ 1 S ' P q @ O . . O O O O O O O O o . . . o o o o ",
"X X X X X X X X . . . . . O @ 5 W i.Y.L.9.v > @ 2 S } X.] g & O O . . . . . . o o o O O o . . . . . ",
"O O O O O O O O O O O O O O @ u *.Y.T.Y.L.*.v 1 0 P X.X.} J 0 @ O . . . . . o O O O + + O . . O X X ",
". O O O O O O O O O O O O O @ 5 W i.Y.T.Y.n.$.b b ` ;.X.X.} k : O . . . . o o O O O + $ + O O O X X ",
". O O O O O O O O O O O O O O @ 5 @.x.Y.Y.c.s.p.p.6.2.:.;.| S 2 @ O . . . o o O O O O + O o . . . . ",
". O O O O O O O O . O O O O O O : Y d.Y.T.M.n.n.b.d.6.6.3.;.[ Z 1 @ . . . . O O O O O . . . . . . . ",
"o O O O O O O O O . O O O O @ 4 G 7.b.T.T.T.T.T.Y.n.f.s.s.5.:.J 6 @ . . . O O O O O O . O O o . . O ",
"X O O O O O O O O . o O O O @ 9 #.b.Y.T.T.T.Q./././.E.U.U.z.4._ j * @ . O O O O O O O O + + O . X O ",
". O O O O O O O O . . O O @ > c 9.Y.T.T.T.Q.[.#X%X%X%X%X%XoXH.>.) 6 @ O O O O O O O O O O O . . . . ",
". o O O O O O O O . o O O - r 7.x.T.T.T.W.[.XX X X X@X%X%X%X`.r._ q & O O O O O O O O O O O . . . X ",
"o o O O O O O O @ . . O + > d g.Y.T.T.W.[.oXS.V B B F.@X%X XB.x Z K w @ O . O O O O O . O o . X X X ",
". o O O O O @ O + O . O $ > d h.T.T.T.Q.}.S.B f N.V.B.A. XV.n N ^ Z q & o X O O O O O O O O O O O O ",
". o O O O O O O O O . O + - d h.T.T.T.Q.'.Q 8 M  X$X/ Q ).M 7 / F.p 3 & O O O O . . O O O O O O + + ",
"O O O O O O O O O O . . O - d h.T.T.T.Q.'.Q 8 m (._.Q Q ).m 3 ! C.y 3 & O O O O . . . O O O O + + + ",
"O O O + O O O O O O . . O - d h.T.T.T.Q.'.Q 8 t m M p C ).m 3 p f 8 3 & O O O O . . O O O O O O O O ",
"O O O O O O O O O O . . O - s a.n.T.T.T.^.J.! y 8 8 ! (. XS.N t e S w & O O O O o o O O O O O X X X ",
"O O O O O O O O O O O O O @ 9 Y y.T.T.T.W.}.G./ ~ ~ (.@X%X+XZ.~ R F q @ O O O O O O O O O O O X X . ",
"O O O O O O O O O O O O O O @ u %.Y.Y.T.T.].|.|.%X%X%X%X%X%X%X.XD.y - O O O O O O O O O O O O X X X ",
"+ O O O O O O @ O . O O O O @ 9 O.g.Y.T.T.W.I.I.|.OXOXXX.X.X.XH.T 6 @ X O O O O O O O O O O O X X X ",
". X O X X O X X O O O O O O @ & r $.P.T.T.T.Y.b.m.m.m.k.q.q.q.U r & O X X X O O + + + + O O O X X X ",
". X X . . X X X O O O O O O O @ < @.L.T.T.Y.Y.Y.b.R.~.!.t.>.L h > + X X X X O O + + + + O X X X X X ",
". X X   . X . X X . . . O O @ ; d *.P.T.Y.l.l.T./.XX%X%X{.<.J q & X X X X O O O O O O O O X X X X X ",
". X . . . . . . . . . . . O @ u &.P.Y.T.I.4.w.E.OX%X%X%X{.e.o.S 2 @ X O O X O O O O O O X X X X X X ",
". X . . O O . . . . . . . . @ u *.Y.T.Y.n.4.w.E.#X%X%X%X$X`.q.J 6 + O O O O X X X X X O X X X X X X ",
". X X O + + X . X X . . . @ a $.h.T.T.v.w.5.z.}.%X%X%X%X%XoXe.] F 1 @ O O X X X X X X X X X X X X X ",
". X X O $ $ O X X X . . . @ d i.Y.T.T.v.,.3.U.#X%X%X%X%X%XoXe...) 7 @ X X X X X X X X O O O O O X X ",
". . . X + $ O X X . . . . @ d h.T.Y.I.k.2.6.E.#X%X%X%X%X%XoXe.X.) 7 @ X X X X X X X O + O O O + X . ",
"X X X X O O X . X X . . . @ s 9.j.v.k.2.6.c.^.OX%X%X%X%X%X{.0.[ L 6 @ . X X . . . X O + + + O X X X ",
"X X X O X X X . O O . . . O ; l { ,.2.6.s.b.W./.#X%X%X%X{.r.G g q @ O X X X . . . X X X O O O X X X ",
"O O O O O O O O X X . . . . O = h { 5.s.c.n.Y.P.U.U.U.K.e. .k < & O X O O X . . X X X . X O + X X X ",
"O O O O O O O O O O X . . O + + < Y d.c.M.Y.i.%.-.1.5.2.o.| k : O X O O O X . X X X X . X X + X X . ",
"O O O O O O O O O O O X X + % # : +.L.Y.Y.T.@.i e I X.X...) h & O X O O X X . . X X X . X X X . . . ",
"O O O O O O O O O O O . . + % # < +.L.T.Y.P.+.9 q P X.X.[ j , O X X O X X X X X X X . . . .       . ",
"O O O O O O O O O . . . . O + O < +.L.T.L.+.s : 0 P X.X.] w @ X X X X X X X X X X X . . . .       . ",
"O O O X o o O O O O X X O O O O : E =.9.=.v : @ 2 A ( ( H 0 @ X X X X X X O + + O X .             . "
};
