/* XPM */
static char *a3fd306ca46f4c98a27676f304b8daf6UlAz5fp9jIqRPE2I[] = {
/* columns rows colors chars-per-pixel */
"50 50 71 1 ",
"  c #5C5F16",
". c #5D6016",
"X c #72751B",
"o c #75781E",
"O c #737523",
"+ c #767924",
"@ c #7D7A22",
"# c #74762B",
"$ c #76792C",
"% c #797C2C",
"& c #747632",
"* c #777935",
"= c #7A7B33",
"- c #75763B",
"; c #77793C",
": c #787A3B",
"> c #757644",
", c #777842",
"< c #797A44",
"1 c #76764C",
"2 c #777849",
"3 c #7A7B4C",
"4 c #767555",
"5 c #787754",
"6 c #7B7B54",
"7 c #777659",
"8 c #787759",
"9 c #7B7B5B",
"0 c #797763",
"q c #7D7C63",
"w c #7C7B6E",
"e c #7D7C6C",
"r c #7F7E6D",
"t c #7D7C6F",
"y c #7D7C70",
"u c #837E23",
"i c #847C25",
"p c #887E29",
"a c #807F6A",
"s c #817F6E",
"d c #807F72",
"f c #7F8039",
"g c #7D8040",
"h c #7F8052",
"j c #7F8055",
"k c #8A8127",
"l c #82833F",
"z c #84833E",
"x c #818240",
"c c #848341",
"v c #828441",
"b c #858445",
"n c #828448",
"m c #8A874E",
"M c #808156",
"N c #81825C",
"B c #81825E",
"V c #818162",
"C c #808068",
"Z c #848468",
"A c #82806D",
"S c #84826E",
"D c #818073",
"F c #858372",
"G c #858571",
"H c #818074",
"J c #868477",
"K c #878679",
"L c #888678",
"P c #89887B",
"I c #89887C",
/* pixels */
"XXXXXXXXXXXXXXXXXXXXXXXXXXXXXXXXXXXXXXXXXXXXXXXXXX",
"XXXXXXXoXXXXXXXXXXXXXXXXXXXXXXXXoXXXXXXXXXXXXXXXXX",
"XXXXXXXXXXXXXoXXXXXXXXXXXXXo+XXXXXXXXX+zXXXXXXXXXX",
"XXXXXXXXXXXXXXXXXXXXoXXXXXXO$XXXXXXXoXXXX+XXXoXXXX",
"XXXXXXXXXXXXXXXXXXXXXXXXXXXXXXXXXXXgXXXXXmlXXXX+vX",
"XXXXXXXXXXXXXXXXXXXXXXXXXXXXXXXXXXXXXXXXXXXXXXXX+X",
"XXXXXXXXXXXXXXXXXXXXXXXXXXXXXXXXXXXXXXXXXXXXXXXXXX",
"XXXXXXXXXXXXXXXXXoXXXXXXXXXXXXXXXXXXXXXXXXoXXXXXXX",
"XXXXXXXXXXoXXXXXXXXXXXXXXXXXXXXXXXX%$XXXX@poXXXXXX",
"XXXXXXXXXXXXXXXXXXXXXXXXXXXbnXXXXXX=fXXXX@XXXXXXXX",
"XXXXXXXXXXXXXXXXXXXXXXXoXX%x=XXXXXXXXXXoXXXXXXXXoX",
"XXXXXXXXoXXXXXXXXXXXXXXXXXXXXXXXXoXXXXXXXXXXXXXXXX",
"XXXXXXXXXXXXXXXXXXXXXXXXXXXXXXXXXXXXXXXXXXXXXXXXXX",
"XXXXXXXXXoXXXXXXXXXXXXXXXXXXXXXXXX+XXXXXXXXXXXXXXX",
"XXXXoXXXXXXXXXXXXXXXXXXXXXXXXoXXXX=XXXXXXXXXXXX@@X",
"XXXXXXXXXXXXXXXXoXXXXXXXXXXXXXXXXXXXXXXXX%XXXXXXXX",
"XXXXXXXoXXXXXXXXXXXXXXXXXXiuXXXXoXXXXXXX==XXXXXXXX",
"XXXXXXXXXXXXXXXXXXXXXXXXXXXoXXXX%n%XXXXXXXXXXXXXXX",
"XXXXXXXXXXXXXXXXXXXXXXXXXXXXXXXXX+XXXXXXXXXXXXXXXX",
"XoXXXXXoXXXXXXXXXXXXXXXXXXoXXXXXoXXXXXXXXXXXXXXXXX",
"XXXXXXXXXXXoXXXXXXXXXXXXXXXXXXXX@iXXoXXXXXXXXXXXXX",
"XXXXXXXXXXXXXXXXXXXXXXXoXXXXX+$XXXXk@XXoXXXXXXX+%X",
"XoXXXXXXXXXXXoXXXXXXXoXXXo+XX+XXXXXu@X+c$XXXXX+x=X",
"XXXoXXXoXXXoXXXXXXXXXXXXX+=x+XXX@XXXoXXXXXXXXXXXXX",
"XXXXXXXXXXXXXXXXXXXXXXXXXXXX+XXXXXXXXXXXXXXXXXXXXX",
"9da5we<dd2ww&XX$KK6dd6XXXXXXXXXXXXXXXXXXXXXXXXXXXX",
"qdA6wy2dd6ww*XX$KKMDd9XXXXXXXXXXXXoXXXXXXXoXXXXXXX",
"6eq200,eq&80#XX+AA2qq3XXXXXXXXXXXXXXXXXXXXXXXXXXXX",
"BGZ3ee<ee3GG=XX+ee2qq3XXXBGZ3qq#qe<ee<AA,<e2q<3qe9",
"ZLJ9dH3ddMKK:XX$dd6ew6XXXZKJ6wy3dd6dD3qH6dd69s9Dd;",
"VJA5ye2yy3BJ*XX#yy3ew5XXXVJS5we2ey:9d3s2<yy3e9&9y6",
"396<99<VV:99$XX+9,O99,XXX396<99;99:VV:99*59,99,BV6",
"qdA9dehKK6dd:XX$dd3Dd9XXXqdA9dH3wwjKKMdd6dd6eq<-FZ",
"qA96HH=PP6HeOXX#HH6HH6XXXqHA6HH3e>,KI6Hq&-C35#XL6,",
"22#O44*95*92#XX+44-99<XXXOOOXOOXOXXOOXOXXXOXXXXOXX",
"qds3wy3dd=2s:XX#ww5LJBXXXXXXXXXXXXXXXXXXXXXXXXXXXX",
"qDA6ew3Da3DD*XX#ee5LBOXXXXXXXXXXXXXXoXXXXXXXXoXXXX",
"271,95-73O24OXXO74-9&XXXX:<,XXXXXXO<<+XXXXXXXXXXXX",
"qdABKL;qd=ew*XX$dd6Dd6XXXqdAXXXXXX,dd:XXXXXXXXXXXX",
"6dABJK*&a5ww*XX$da,Dd9XXX5eAXXXXXX,dd&XoXXXXoXXXXX",
"&55-66#<1&96XXXO96#69&XXXX#&XXXXXXO;#o;;+XXXXXX&;#",
"q449dH,dd6dd:XX$dd6ew6XXXXXXXXXXXXXXX*dd,XXXXXXDdq",
"qw66dH3dd6d9OXX+qe6ew6XXXXXXoXXXXXXXX:dH:XXXXXXddq",
"-95#69-99&6&XXXO9;-:9>XXXXXXO&#X$&XXXO2OXXXXXXX&2>",
"6dA9dHhKK6dd:XX#ww5LKBXXXXXX9dH&3A$XX.XXXXXXXXXXX ",
"qdq&qDhKG<ed:XX#we-LKBXXXoXX:dHhKBOXXXXXXXXXXXXXXX",
"29OXX;*6OX&5#XXO;2&9q<XXXXXOX99:q9OXOXXXXXXXXXXXXX",
"ZJ=XXXXXX+12*XXXXXODd9XXX*9e2dD3dd&:d=XXXXXXXXXXXX",
"Z<XXXXXXXX5w*ooXXXX3d6XXXqwe9dD3Dd6dd:XXXXXXXXXXXX",
"&XXXXoXXXX-7#XXXXXXXO-XXX27>;99O-9;99#XXXXXXXXXXXX"
};
